<?xml version="1.0" encoding="UTF-8" standalone="no"?>
<!-- Created with Inkscape (http://www.inkscape.org/) -->

<svg
   xmlns:dc="http://purl.org/dc/elements/1.1/"
   xmlns:cc="http://creativecommons.org/ns#"
   xmlns:rdf="http://www.w3.org/1999/02/22-rdf-syntax-ns#"
   xmlns:svg="http://www.w3.org/2000/svg"
   xmlns="http://www.w3.org/2000/svg"
   xmlns:sodipodi="http://sodipodi.sourceforge.net/DTD/sodipodi-0.dtd"
   xmlns:inkscape="http://www.inkscape.org/namespaces/inkscape"
   version="1.1"
   id="svg2"
   width="78"
   height="78"
   viewBox="0 0 78 78"
   sodipodi:docname="Shape 2.svg"
   inkscape:version="0.92.4 (5da689c313, 2019-01-14)">
  <metadata
     id="metadata8">
    <rdf:RDF>
      <cc:Work
         rdf:about="">
        <dc:format>image/svg+xml</dc:format>
        <dc:type
           rdf:resource="http://purl.org/dc/dcmitype/StillImage" />
        <dc:title></dc:title>
      </cc:Work>
    </rdf:RDF>
  </metadata>
  <defs
     id="defs6" />
  <sodipodi:namedview
     pagecolor="#ffffff"
     bordercolor="#666666"
     borderopacity="1"
     objecttolerance="10"
     gridtolerance="10"
     guidetolerance="10"
     inkscape:pageopacity="0"
     inkscape:pageshadow="2"
     inkscape:window-width="1920"
     inkscape:window-height="1017"
     id="namedview4"
     showgrid="false"
     inkscape:zoom="4.2789026"
     inkscape:cx="126.36568"
     inkscape:cy="23.243818"
     inkscape:window-x="-8"
     inkscape:window-y="-8"
     inkscape:window-maximized="1"
     inkscape:current-layer="svg2" />
  <g
     id="g20"
     transform="translate(0.16539726,0.22682516)"
     style="fill:#ffffff">
    <path
       style="opacity:1;vector-effect:none;fill:#c19864;fill-opacity:0;stroke:#ddc480;stroke-width:1;stroke-linecap:butt;stroke-linejoin:miter;stroke-miterlimit:4;stroke-dasharray:none;stroke-dashoffset:0;stroke-opacity:0"
       d="M 26.328848,76.123461 C 15.846205,72.23362 8.3369649,65.370752 3.2158957,55 0.78301227,50.073132 0.5,48.405838 0.5,39 0.5,29.409982 0.75467115,27.98001 3.4385716,22.5 7.1887528,14.842849 14.842849,7.1887528 22.5,3.4385716 27.98001,0.75467115 29.409982,0.5 39,0.5 48.590018,0.5 50.01999,0.75467115 55.5,3.4385716 63.157151,7.1887528 70.811247,14.842849 74.561428,22.5 77.245329,27.98001 77.5,29.409982 77.5,39 77.5,48.590018 77.245329,50.01999 74.561428,55.5 70.789726,63.201093 63.114839,70.849602 55.5,74.495916 47.502617,78.325408 34.254715,79.064548 26.328848,76.123461 Z M 56.25,58.337719 C 55.337174,57.969386 55,54.214327 55,44.416667 V 31 H 51.5 48 V 44.5 58 h -2.457936 c -2.374022,0 -2.467907,-0.264585 -2.75,-7.75 L 42.5,42.5 H 39 35.5 l -0.292064,7.75 C 34.925843,57.735415 34.831958,58 32.457936,58 30.211493,58 30,57.612797 30,53.5 30,49.02381 29.981481,49 26.5,49 23.028302,49 23,49.03571 23,53.416667 c 0,2.59766 -0.514813,4.624398 -1.25,4.921052 -0.6875,0.277413 7.075,0.504386 17.25,0.504386 10.175,0 17.9375,-0.226973 17.25,-0.504386 z M 24,54 c 0,-3.6 0.25,-4 2.5,-4 2.25,0 2.5,0.4 2.5,4 0,3.6 -0.25,4 -2.5,4 C 24.25,58 24,57.6 24,54 Z M 36,50.5 V 43 h 3 3 V 50.5 58 H 39 36 Z M 49,45 V 32 H 51.5 54 V 45 58 H 51.5 49 Z M 35.188962,33.312486 c 6.399064,-6.35003 6.832407,-6.603123 8.587015,-5.015224 1.748817,1.582657 2.057752,1.45734 5.763878,-2.338078 3.389814,-3.471483 4.010319,-3.771776 4.617797,-2.234775 0.498795,1.262018 0.722107,0.83556 0.772063,-1.474409 0.06298,-2.91208 -0.215647,-3.242692 -2.679715,-3.179715 -2.108344,0.05389 -2.335702,0.234031 -0.974409,0.772063 1.540543,0.608878 1.258772,1.206439 -2.128528,4.514049 -3.534899,3.451736 -4.104801,3.686944 -6.026104,2.48707 -1.963394,-1.226159 -2.663143,-0.784041 -9.362851,5.915666 C 29.775631,36.74161 26.952069,40 27.483525,40 c 0.531455,0 3.998902,-3.009381 7.705437,-6.687514 z"
       id="path24"
       inkscape:connector-curvature="0" />
    <path
       style="opacity:1;vector-effect:none;fill:#c19864;fill-opacity:0;stroke:#ddc480;stroke-width:1;stroke-linecap:butt;stroke-linejoin:miter;stroke-miterlimit:4;stroke-dasharray:none;stroke-dashoffset:0;stroke-opacity:0"
       d="M 31.248556,76.942334 C 20.737873,74.869255 9.4996684,66.294126 4.5987507,56.607634 -7.2322813,33.224014 6.9157346,5.4378333 32.991861,0.84461413 53.337848,-2.7392608 73.438808,11.892509 77.155386,32.991861 80.676864,52.983616 66.392209,73.132697 45.949043,77.009664 39.992673,78.139266 37.253497,78.12672 31.248556,76.942334 Z M 58,58 C 58,57.45 57.55,57 57,57 56.387534,57 56,52.233333 56,44.7 56,31.787117 55.452923,30 51.5,30 47.547077,30 47,31.787117 47,44.7 47,56.333333 46.891599,57 45,57 43.17939,57 43,56.333333 43,49.567388 43,43.013034 42.763674,42.059768 41,41.5 c -1.1,-0.349126 -2.9,-0.349126 -4,0 -1.763674,0.559768 -2,1.513034 -2,8.067388 C 35,56.259999 34.806602,57 33.057498,57 c -1.570395,0 -2.001407,-0.814133 -2.25,-4.25 -0.29159,-4.03013 -0.483142,-4.266771 -3.702633,-4.574183 C 23.186279,47.801652 22.037411,49.059917 22.015313,53.75 22.006891,55.5375 21.55,57 21,57 c -0.55,0 -1,0.45 -1,1 0,0.631579 7,1 19,1 12,0 19,-0.368421 19,-1 z M 24,53.5 C 24,50.433333 24.309524,50 26.5,50 28.690476,50 29,50.433333 29,53.5 29,56.566667 28.690476,57 26.5,57 24.309524,57 24,56.566667 24,53.5 Z m 13,-3 c 0,-5.833333 0.205128,-6.5 2,-6.5 1.794872,0 2,0.666667 2,6.5 0,5.833333 -0.205128,6.5 -2,6.5 -1.794872,0 -2,-0.666667 -2,-6.5 z m 12,-6 V 32 H 51.5 54 V 44.5 57 H 51.5 49 Z M 25.5,43 C 25.839919,42.45 25.641476,42 25.059017,42 24.476558,42 24,42.45 24,43 c 0,0.55 0.198442,1 0.440983,1 0.242541,0 0.719098,-0.45 1.059017,-1 z M 43.135113,28.852307 c 1.920338,1.19927 2.513787,0.927261 6.489259,-2.974369 C 52.741554,22.818656 54,22.074871 54,23.291792 54,24.231306 54.45,25 55,25 c 0.55,0 1,-1.35 1,-3 0,-2.761905 -0.277778,-3 -3.5,-3 -1.925,0 -3.5,0.45 -3.5,1 0,0.55 0.763275,1 1.696167,1 1.272922,0 0.852581,0.870359 -1.684528,3.487992 -3.198467,3.29998 -3.480541,3.397633 -5.233034,1.811648 C 42.017136,24.705532 41.56015,24.986969 34.463133,32.036621 30.35841,36.113949 27,39.899139 27,40.448153 c 0,0.549014 3.154833,-2.132451 7.010741,-5.958812 6.468015,-6.418452 7.174364,-6.854834 9.124372,-5.637034 z"
       id="path22"
       inkscape:connector-curvature="0" />
  </g>
  <path
     style="fill:#000000"
     d=""
     id="path12"
     inkscape:connector-curvature="0" />
  <path
     style="opacity:1;vector-effect:none;fill:#c19864;fill-opacity:0;stroke:#ddc480;stroke-width:1;stroke-linecap:butt;stroke-linejoin:miter;stroke-miterlimit:4;stroke-dasharray:none;stroke-dashoffset:0;stroke-opacity:0"
     d="M 35.799438,77.744071 C 29.494678,77.060523 23.811458,74.980868 18.439818,71.391688 9.0507283,65.118151 3.3023123,56.700593 1.3389083,46.350363 0.66033326,42.77321 0.66464526,35.561228 1.3473083,32.222637 2.8938103,24.659918 6.1605783,18.354201 11.371098,12.874094 17.234028,6.7078204 24.436138,2.841437 33.050938,1.2354705 c 4.29048,-0.79982804 11.08488,-0.52662517 15.46031,0.6216591 12.5522,3.2941872 23.20929,13.4250414 27.30313,25.9549324 2.52287,7.721674 2.44803,16.275445 -0.20716,23.676627 -3.66572,10.217954 -11.67157,18.880855 -21.27511,23.021165 -6.11104,2.634615 -12.9902,3.835124 -18.53272,3.234217 z m 18.99597,-18.789814 c 3.36338,-0.294496 3.93543,-0.626016 2.84048,-1.646123 -0.99603,-0.927943 -1.21828,-2.846914 -1.26729,-10.942326 -0.0469,-7.746369 -0.4644,-12.836034 -1.17592,-14.335461 -0.64511,-1.359454 -1.67472,-1.859455 -3.82904,-1.859455 -1.95158,0 -2.98811,0.816884 -3.61597,2.849735 -0.24743,0.801115 -0.48725,5.308834 -0.63966,12.023147 -0.1341,5.907839 -0.35594,11.001801 -0.49298,11.319915 -0.29523,0.685316 -2.22629,0.801034 -2.75412,0.16504 -0.18867,-0.227344 -0.47093,-3.350292 -0.62724,-6.939885 -0.26709,-6.133686 -0.32901,-6.571345 -1.02863,-7.270972 -0.62932,-0.629311 -1.09939,-0.744437 -3.03964,-0.744437 -1.93846,0 -2.4106,0.115404 -3.03767,0.742474 -0.69474,0.694732 -0.75956,1.141014 -1.00822,6.940678 -0.14616,3.409013 -0.40791,6.532844 -0.58166,6.941848 -0.23972,0.56431 -0.58805,0.743644 -1.44441,0.743644 -1.36876,0 -1.44722,-0.164755 -2.02811,-4.258288 -0.27141,-1.912639 -0.64407,-3.305465 -0.97219,-3.633587 -0.37199,-0.371987 -1.29982,-0.566795 -3.08373,-0.647456 -2.19846,-0.09941 -2.67374,-0.01924 -3.43378,0.579325 -0.94174,0.741641 -1.59667,2.919996 -1.59667,5.31069 0,1.624902 -0.50619,2.979824 -1.11324,2.979824 -0.62064,0 -0.94888,0.903505 -0.44224,1.217299 0.21928,0.135816 1.51416,0.341227 2.87751,0.456466 3.57784,0.302425 28.06064,0.308569 31.49442,0.0079 z M 25.470168,43.571021 c 0.5638,-0.860475 0.41038,-1.501823 -0.35926,-1.501823 -0.60586,0 -1.20211,1.129317 -0.9471,1.793854 0.2828,0.736971 0.69207,0.64548 1.30636,-0.292031 z m 5.12968,-5.366175 c 1.52991,-1.398275 4.19457,-3.906355 5.92148,-5.573515 1.72691,-1.667157 3.61747,-3.27545 4.20124,-3.573985 1.01027,-0.51664 1.13344,-0.507793 2.55662,0.183639 1.40615,0.683164 1.55947,0.695514 2.57418,0.207353 0.59344,-0.285491 2.467,-1.801361 4.16348,-3.368599 1.69648,-1.567239 3.2627,-2.849524 3.4805,-2.849524 0.21781,0 0.56443,0.446186 0.77027,0.991525 0.20584,0.545339 0.59572,0.991525 0.8664,0.991525 1.10407,0 1.62912,-3.892828 0.70332,-5.214595 -0.45644,-0.651654 -0.80367,-0.734557 -3.07666,-0.734557 -2.92308,0 -4.1474,0.525903 -3.3792,1.451523 0.24262,0.29234 0.79474,0.531528 1.22693,0.531528 0.44089,0 0.7858,0.196626 0.7858,0.447963 0,0.615261 -3.8414,4.758711 -4.93712,5.325333 -0.82033,0.424209 -1.00582,0.384067 -2.39206,-0.517674 -1.312,-0.853445 -1.62398,-0.931986 -2.45756,-0.618689 -0.98638,0.370729 -12.65151,11.883215 -13.97174,13.788914 -1.30967,1.890452 -0.002,1.242748 2.96412,-1.468165 z"
     id="path38"
     inkscape:connector-curvature="0" />
  <path
     style="opacity:1;vector-effect:none;fill:#c19864;fill-opacity:0;stroke:#ddc480;stroke-width:1;stroke-linecap:butt;stroke-linejoin:miter;stroke-miterlimit:4;stroke-dasharray:none;stroke-dashoffset:0;stroke-opacity:0"
     d="M 33.216248,77.272012 C 20.850098,74.960561 9.4868883,66.279419 4.2781083,55.164171 2.1370353,50.595242 1.3082213,46.968655 1.0896723,41.212748 0.86693226,35.34648 1.2662503,31.970401 2.6888803,27.692079 7.5852883,12.966939 20.329278,2.6323475 35.493098,1.0898808 c 4.2884,-0.43621667 10.05354,0.041989 13.87524,1.1509201 12.90824,3.7455425 23.54212,14.7218271 26.98053,27.8492711 4.47179,17.072836 -4.27921,35.539677 -20.65805,43.593705 -7.10006,3.491343 -15.67153,4.859843 -22.47457,3.588235 z m 22.39295,-18.30967 c 2.31939,-0.289731 2.91458,-0.750621 2.11307,-1.636275 -0.8352,-0.922892 -1.20022,-3.878365 -1.21076,-9.80348 -0.0106,-5.950444 -0.46968,-12.790397 -0.98757,-14.713672 -0.49363,-1.833206 -1.66472,-2.638023 -3.83858,-2.638023 -1.46587,0 -1.93897,0.155322 -2.76842,0.908899 -1.38265,1.256177 -1.5639,2.625668 -1.95676,14.784642 -0.29393,9.097173 -0.39478,10.286891 -0.90353,10.658898 -0.67232,0.491612 -1.09835,0.518922 -1.74179,0.111659 -0.45878,-0.290378 -0.58533,-1.405375 -1.21246,-10.682344 -0.23866,-3.530545 -0.67216,-4.206557 -2.85524,-4.452624 -2.19162,-0.247025 -3.80681,0.133308 -4.39802,1.035616 -0.35935,0.548432 -0.59228,2.351462 -0.81993,6.34684 -0.41763,7.3296 -0.48366,7.6732 -1.52491,7.934533 -1.21437,0.304789 -1.74173,-0.410726 -2.115,-2.869607 -0.80911,-5.329978 -1.04828,-5.598545 -4.98577,-5.598545 -2.05475,0 -2.39428,0.09328 -3.09615,0.850616 -0.81026,0.874281 -1.49368,3.280274 -1.49368,5.258542 0,1.508255 -0.53309,2.81457 -1.1486,2.81457 -0.2797,0 -0.50394,0.28746 -0.50394,0.646042 0,0.647089 0.38074,0.782611 3.13983,1.117588 1.88071,0.228335 30.41115,0.163096 32.30821,-0.07388 z M 25.437668,43.743468 c 0.52621,-0.983227 0.40918,-1.67427 -0.28352,-1.67427 -0.65493,0 -1.02689,0.608376 -1.02689,1.679574 0,0.822295 0.86937,0.818779 1.31041,-0.0053 z m 3.36428,-3.905203 c 0.5994,-0.499894 3.46403,-3.106683 6.36584,-5.792865 2.90182,-2.686183 5.63618,-4.97436 6.07636,-5.084838 0.45986,-0.115419 1.28236,0.029 1.93344,0.339476 0.62321,0.29719 1.40321,0.540346 1.73333,0.540346 0.73405,0 2.39779,-1.203456 5.65083,-4.087506 1.35995,-1.205685 2.66451,-2.192155 2.89904,-2.192155 0.23452,0 0.59846,0.377621 0.80875,0.839158 0.55435,1.216655 1.3491,0.870214 1.88533,-0.821838 0.3984,-1.257111 0.3984,-1.654178 0,-2.806478 l -0.46405,-1.342198 -2.47492,-0.0987 c -3.24858,-0.129548 -4.04296,0.07691 -3.90882,1.0159 0.06,0.420121 0.38394,0.77858 0.7651,0.84667 0.36356,0.06495 0.79601,0.246078 0.961,0.402516 0.35367,0.335326 -2.30025,3.549372 -4.00358,4.84856 l -1.16055,0.8852 -1.72671,-0.934044 c -1.52422,-0.824512 -1.82038,-0.884001 -2.52555,-0.507294 -1.90923,1.019925 -14.51495,13.642892 -14.51495,14.534809 0,0.555033 0.56754,0.359838 1.70011,-0.584723 z"
     id="path860"
     inkscape:connector-curvature="0" />
  <path
     style="opacity:1;vector-effect:none;fill:#c19864;fill-opacity:0;stroke:#ddc480;stroke-width:1;stroke-linecap:butt;stroke-linejoin:miter;stroke-miterlimit:4;stroke-dasharray:none;stroke-dashoffset:0;stroke-opacity:0"
     d="M 33.293868,77.269193 C 21.186118,75.074428 9.8306883,66.5765 4.6236563,55.813604 0.55698126,47.407822 -0.22449674,37.279363 2.4978093,28.261255 5.3525083,18.804575 12.657988,9.9344504 21.317938,5.410326 c 5.90243,-3.0835402 11.13914,-4.4064574 17.51695,-4.42519827 7.05691,-0.020736 11.95268,1.13755857 17.67528,4.18180947 9.78752,5.2066668 16.97573,14.3155958 19.91074,25.2309558 0.78567,2.921942 0.87209,3.81649 0.87209,9.027237 0,5.205865 -0.0869,6.106848 -0.86909,9.015395 -1.04077,3.869845 -3.14388,8.42906 -5.53561,12.00036 -2.4064,3.593202 -7.42599,8.540028 -11.11924,10.958074 -7.82015,5.120006 -18.07293,7.39331 -26.47519,5.870234 z m 22.18796,-18.327657 c 1.24839,-0.160862 2.40531,-0.427975 2.57092,-0.593583 0.18113,-0.181132 0.0138,-0.666338 -0.41996,-1.217775 -0.61276,-0.779005 -0.76076,-1.54444 -0.98547,-5.096877 -0.14543,-2.299113 -0.27253,-6.188044 -0.28245,-8.64207 -0.0195,-4.813548 -0.43682,-9.351773 -1.0235,-11.129447 -0.46054,-1.395443 -1.75312,-2.090892 -3.88617,-2.090892 -1.99609,0 -3.19826,0.839454 -3.68972,2.576475 -0.19053,0.673405 -0.49898,5.834966 -0.68544,11.470136 -0.3928,11.871058 -0.43603,12.283688 -1.31595,12.562967 -0.91915,0.291724 -1.9678,-0.113301 -1.99249,-0.769562 -0.0115,-0.305863 -0.20394,-3.347175 -0.42764,-6.758472 -0.49742,-7.585646 -0.54822,-7.679001 -4.17856,-7.679001 -3.64878,0 -3.67645,0.05266 -4.17742,7.949611 -0.4111,6.480405 -0.6313,7.424305 -1.72957,7.413973 -1.14514,-0.01078 -1.47625,-0.651089 -2.0604,-3.984481 -0.33802,-1.928904 -0.81744,-3.614901 -1.11154,-3.909 -0.34881,-0.348816 -1.32305,-0.557849 -2.99297,-0.642175 -3.89831,-0.196857 -4.60508,0.543954 -5.15272,5.400885 -0.25828,2.290679 -0.41831,2.742157 -1.19734,3.377972 -1.20519,0.98363 -0.66442,1.509161 1.82761,1.77612 2.99495,0.320834 30.40166,0.308506 32.91078,-0.01481 z M 25.470168,43.571021 c 0.5638,-0.860475 0.41038,-1.501823 -0.35926,-1.501823 -0.58498,0 -1.25911,1.219116 -1.01947,1.843622 0.268,0.698384 0.7804,0.571353 1.37873,-0.341799 z m 4.4673,-4.715632 c 1.1671,-1.040477 3.68019,-3.365977 5.58464,-5.167777 1.90445,-1.8018 4.02822,-3.650286 4.71949,-4.107746 l 1.25685,-0.831746 1.73809,0.590796 c 2.18321,0.742095 2.52758,0.584948 6.73031,-3.071237 1.66897,-1.451935 3.18711,-2.7342 3.37363,-2.849479 0.18653,-0.115279 0.57239,0.241451 0.85747,0.792734 0.28508,0.551282 0.74128,1.002331 1.01378,1.002331 1.10616,0 1.57001,-3.866278 0.62561,-5.214595 -0.45644,-0.651654 -0.80367,-0.734557 -3.07666,-0.734557 -2.92308,0 -4.1474,0.525903 -3.3792,1.451523 0.24262,0.29234 0.7116,0.531528 1.04217,0.531528 0.33057,0 0.68934,0.142859 0.79725,0.317464 0.24085,0.389708 -4.27169,5.198833 -5.13546,5.472983 -0.37274,0.118305 -1.21745,-0.151616 -2.10833,-0.673705 -1.03912,-0.608968 -1.70929,-0.800353 -2.2271,-0.636007 -0.84566,0.268401 -13.88756,13.143675 -14.46037,14.275621 -0.6716,1.32716 0.3854,0.868834 2.64783,-1.148131 z"
     id="path862"
     inkscape:connector-curvature="0" />
  <path
     style="opacity:1;vector-effect:none;fill:#c19864;fill-opacity:0;stroke:#ddc480;stroke-width:1;stroke-linecap:butt;stroke-linejoin:miter;stroke-miterlimit:4;stroke-dasharray:none;stroke-dashoffset:0;stroke-opacity:0"
     d="M 33.293868,77.269193 C 21.186118,75.074428 9.8306883,66.5765 4.6236563,55.813604 0.55698126,47.407822 -0.22449674,37.279363 2.4978093,28.261255 5.3525083,18.804575 12.657988,9.9344504 21.317938,5.410326 c 5.90243,-3.0835402 11.13914,-4.4064574 17.51695,-4.42519827 7.05691,-0.020736 11.95268,1.13755857 17.67528,4.18180947 9.78752,5.2066668 16.97573,14.3155958 19.91074,25.2309558 0.78567,2.921942 0.87209,3.81649 0.87209,9.027237 0,5.205865 -0.0869,6.106848 -0.86909,9.015395 -1.04077,3.869845 -3.14388,8.42906 -5.53561,12.00036 -2.4064,3.593202 -7.42599,8.540028 -11.11924,10.958074 -7.82015,5.120006 -18.07293,7.39331 -26.47519,5.870234 z m 22.18796,-18.327657 c 1.24839,-0.160862 2.40531,-0.427975 2.57092,-0.593583 0.18113,-0.181132 0.0138,-0.666338 -0.41996,-1.217775 -0.61276,-0.779005 -0.76076,-1.54444 -0.98547,-5.096877 -0.14543,-2.299113 -0.27253,-6.188044 -0.28245,-8.64207 -0.0195,-4.813548 -0.43682,-9.351773 -1.0235,-11.129447 -0.46054,-1.395443 -1.75312,-2.090892 -3.88617,-2.090892 -1.99609,0 -3.19826,0.839454 -3.68972,2.576475 -0.19053,0.673405 -0.49898,5.834966 -0.68544,11.470136 -0.3928,11.871058 -0.43603,12.283688 -1.31595,12.562967 -0.91915,0.291724 -1.9678,-0.113301 -1.99249,-0.769562 -0.0115,-0.305863 -0.20394,-3.347175 -0.42764,-6.758472 -0.49742,-7.585646 -0.54822,-7.679001 -4.17856,-7.679001 -3.64878,0 -3.67645,0.05266 -4.17742,7.949611 -0.4111,6.480405 -0.6313,7.424305 -1.72957,7.413973 -1.14514,-0.01078 -1.47625,-0.651089 -2.0604,-3.984481 -0.33802,-1.928904 -0.81744,-3.614901 -1.11154,-3.909 -0.34881,-0.348816 -1.32305,-0.557849 -2.99297,-0.642175 -3.89831,-0.196857 -4.60508,0.543954 -5.15272,5.400885 -0.25828,2.290679 -0.41831,2.742157 -1.19734,3.377972 -1.20519,0.98363 -0.66442,1.509161 1.82761,1.77612 2.99495,0.320834 30.40166,0.308506 32.91078,-0.01481 z M 25.470168,43.571021 c 0.5638,-0.860475 0.41038,-1.501823 -0.35926,-1.501823 -0.58498,0 -1.25911,1.219116 -1.01947,1.843622 0.268,0.698384 0.7804,0.571353 1.37873,-0.341799 z m 4.4673,-4.715632 c 1.1671,-1.040477 3.68019,-3.365977 5.58464,-5.167777 1.90445,-1.8018 4.02822,-3.650286 4.71949,-4.107746 l 1.25685,-0.831746 1.73809,0.590796 c 2.18321,0.742095 2.52758,0.584948 6.73031,-3.071237 1.66897,-1.451935 3.18711,-2.7342 3.37363,-2.849479 0.18653,-0.115279 0.57239,0.241451 0.85747,0.792734 0.28508,0.551282 0.74128,1.002331 1.01378,1.002331 1.10616,0 1.57001,-3.866278 0.62561,-5.214595 -0.45644,-0.651654 -0.80367,-0.734557 -3.07666,-0.734557 -2.92308,0 -4.1474,0.525903 -3.3792,1.451523 0.24262,0.29234 0.7116,0.531528 1.04217,0.531528 0.33057,0 0.68934,0.142859 0.79725,0.317464 0.24085,0.389708 -4.27169,5.198833 -5.13546,5.472983 -0.37274,0.118305 -1.21745,-0.151616 -2.10833,-0.673705 -1.03912,-0.608968 -1.70929,-0.800353 -2.2271,-0.636007 -0.84566,0.268401 -13.88756,13.143675 -14.46037,14.275621 -0.6716,1.32716 0.3854,0.868834 2.64783,-1.148131 z"
     id="path864"
     inkscape:connector-curvature="0" />
  <path
     style="opacity:1;vector-effect:none;fill:#c19864;fill-opacity:0;stroke:#ddc480;stroke-width:1;stroke-linecap:butt;stroke-linejoin:miter;stroke-miterlimit:4;stroke-dasharray:none;stroke-dashoffset:0;stroke-opacity:0"
     d="M 33.293868,77.269193 C 21.186118,75.074428 9.8306883,66.5765 4.6236563,55.813604 0.55698126,47.407822 -0.22449674,37.279363 2.4978093,28.261255 5.3525083,18.804575 12.657988,9.9344504 21.317938,5.410326 c 5.90243,-3.0835402 11.13914,-4.4064574 17.51695,-4.42519827 7.05691,-0.020736 11.95268,1.13755857 17.67528,4.18180947 9.78752,5.2066668 16.97573,14.3155958 19.91074,25.2309558 0.78567,2.921942 0.87209,3.81649 0.87209,9.027237 0,5.205865 -0.0869,6.106848 -0.86909,9.015395 -1.04077,3.869845 -3.14388,8.42906 -5.53561,12.00036 -2.4064,3.593202 -7.42599,8.540028 -11.11924,10.958074 -7.82015,5.120006 -18.07293,7.39331 -26.47519,5.870234 z m 22.18796,-18.327657 c 1.24839,-0.160862 2.40531,-0.427975 2.57092,-0.593583 0.18113,-0.181132 0.0138,-0.666338 -0.41996,-1.217775 -0.61276,-0.779005 -0.76076,-1.54444 -0.98547,-5.096877 -0.14543,-2.299113 -0.27253,-6.188044 -0.28245,-8.64207 -0.0195,-4.813548 -0.43682,-9.351773 -1.0235,-11.129447 -0.46054,-1.395443 -1.75312,-2.090892 -3.88617,-2.090892 -1.99609,0 -3.19826,0.839454 -3.68972,2.576475 -0.19053,0.673405 -0.49898,5.834966 -0.68544,11.470136 -0.3928,11.871058 -0.43603,12.283688 -1.31595,12.562967 -0.91915,0.291724 -1.9678,-0.113301 -1.99249,-0.769562 -0.0115,-0.305863 -0.20394,-3.347175 -0.42764,-6.758472 -0.49742,-7.585646 -0.54822,-7.679001 -4.17856,-7.679001 -3.64878,0 -3.67645,0.05266 -4.17742,7.949611 -0.4111,6.480405 -0.6313,7.424305 -1.72957,7.413973 -1.14514,-0.01078 -1.47625,-0.651089 -2.0604,-3.984481 -0.33802,-1.928904 -0.81744,-3.614901 -1.11154,-3.909 -0.34881,-0.348816 -1.32305,-0.557849 -2.99297,-0.642175 -3.89831,-0.196857 -4.60508,0.543954 -5.15272,5.400885 -0.25828,2.290679 -0.41831,2.742157 -1.19734,3.377972 -1.20519,0.98363 -0.66442,1.509161 1.82761,1.77612 2.99495,0.320834 30.40166,0.308506 32.91078,-0.01481 z M 25.470168,43.571021 c 0.5638,-0.860475 0.41038,-1.501823 -0.35926,-1.501823 -0.58498,0 -1.25911,1.219116 -1.01947,1.843622 0.268,0.698384 0.7804,0.571353 1.37873,-0.341799 z m 4.4673,-4.715632 c 1.1671,-1.040477 3.68019,-3.365977 5.58464,-5.167777 1.90445,-1.8018 4.02822,-3.650286 4.71949,-4.107746 l 1.25685,-0.831746 1.73809,0.590796 c 2.18321,0.742095 2.52758,0.584948 6.73031,-3.071237 1.66897,-1.451935 3.18711,-2.7342 3.37363,-2.849479 0.18653,-0.115279 0.57239,0.241451 0.85747,0.792734 0.28508,0.551282 0.74128,1.002331 1.01378,1.002331 1.10616,0 1.57001,-3.866278 0.62561,-5.214595 -0.45644,-0.651654 -0.80367,-0.734557 -3.07666,-0.734557 -2.92308,0 -4.1474,0.525903 -3.3792,1.451523 0.24262,0.29234 0.7116,0.531528 1.04217,0.531528 0.33057,0 0.68934,0.142859 0.79725,0.317464 0.24085,0.389708 -4.27169,5.198833 -5.13546,5.472983 -0.37274,0.118305 -1.21745,-0.151616 -2.10833,-0.673705 -1.03912,-0.608968 -1.70929,-0.800353 -2.2271,-0.636007 -0.84566,0.268401 -13.88756,13.143675 -14.46037,14.275621 -0.6716,1.32716 0.3854,0.868834 2.64783,-1.148131 z"
     id="path866"
     inkscape:connector-curvature="0" />
  <path
     style="opacity:1;vector-effect:none;fill:#c19864;fill-opacity:0;stroke:#ddc480;stroke-width:1;stroke-linecap:butt;stroke-linejoin:miter;stroke-miterlimit:4;stroke-dasharray:none;stroke-dashoffset:0;stroke-opacity:0"
     d="M 33.293868,77.269193 C 21.186118,75.074428 9.8306883,66.5765 4.6236563,55.813604 0.55698126,47.407822 -0.22449674,37.279363 2.4978093,28.261255 5.3525083,18.804575 12.657988,9.9344504 21.317938,5.410326 c 5.90243,-3.0835402 11.13914,-4.4064574 17.51695,-4.42519827 7.05691,-0.020736 11.95268,1.13755857 17.67528,4.18180947 9.78752,5.2066668 16.97573,14.3155958 19.91074,25.2309558 0.78567,2.921942 0.87209,3.81649 0.87209,9.027237 0,5.205865 -0.0869,6.106848 -0.86909,9.015395 -1.04077,3.869845 -3.14388,8.42906 -5.53561,12.00036 -2.4064,3.593202 -7.42599,8.540028 -11.11924,10.958074 -7.82015,5.120006 -18.07293,7.39331 -26.47519,5.870234 z m 22.18796,-18.327657 c 1.24839,-0.160862 2.40531,-0.427975 2.57092,-0.593583 0.18113,-0.181132 0.0138,-0.666338 -0.41996,-1.217775 -0.61276,-0.779005 -0.76076,-1.54444 -0.98547,-5.096877 -0.14543,-2.299113 -0.27253,-6.188044 -0.28245,-8.64207 -0.0195,-4.813548 -0.43682,-9.351773 -1.0235,-11.129447 -0.46054,-1.395443 -1.75312,-2.090892 -3.88617,-2.090892 -1.99609,0 -3.19826,0.839454 -3.68972,2.576475 -0.19053,0.673405 -0.49898,5.834966 -0.68544,11.470136 -0.3928,11.871058 -0.43603,12.283688 -1.31595,12.562967 -0.91915,0.291724 -1.9678,-0.113301 -1.99249,-0.769562 -0.0115,-0.305863 -0.20394,-3.347175 -0.42764,-6.758472 -0.49742,-7.585646 -0.54822,-7.679001 -4.17856,-7.679001 -3.64878,0 -3.67645,0.05266 -4.17742,7.949611 -0.4111,6.480405 -0.6313,7.424305 -1.72957,7.413973 -1.14514,-0.01078 -1.47625,-0.651089 -2.0604,-3.984481 -0.33802,-1.928904 -0.81744,-3.614901 -1.11154,-3.909 -0.34881,-0.348816 -1.32305,-0.557849 -2.99297,-0.642175 -3.89831,-0.196857 -4.60508,0.543954 -5.15272,5.400885 -0.25828,2.290679 -0.41831,2.742157 -1.19734,3.377972 -1.20519,0.98363 -0.66442,1.509161 1.82761,1.77612 2.99495,0.320834 30.40166,0.308506 32.91078,-0.01481 z M 25.470168,43.571021 c 0.5638,-0.860475 0.41038,-1.501823 -0.35926,-1.501823 -0.58498,0 -1.25911,1.219116 -1.01947,1.843622 0.268,0.698384 0.7804,0.571353 1.37873,-0.341799 z m 4.4673,-4.715632 c 1.1671,-1.040477 3.68019,-3.365977 5.58464,-5.167777 1.90445,-1.8018 4.02822,-3.650286 4.71949,-4.107746 l 1.25685,-0.831746 1.73809,0.590796 c 2.18321,0.742095 2.52758,0.584948 6.73031,-3.071237 1.66897,-1.451935 3.18711,-2.7342 3.37363,-2.849479 0.18653,-0.115279 0.57239,0.241451 0.85747,0.792734 0.28508,0.551282 0.74128,1.002331 1.01378,1.002331 1.10616,0 1.57001,-3.866278 0.62561,-5.214595 -0.45644,-0.651654 -0.80367,-0.734557 -3.07666,-0.734557 -2.92308,0 -4.1474,0.525903 -3.3792,1.451523 0.24262,0.29234 0.7116,0.531528 1.04217,0.531528 0.33057,0 0.68934,0.142859 0.79725,0.317464 0.24085,0.389708 -4.27169,5.198833 -5.13546,5.472983 -0.37274,0.118305 -1.21745,-0.151616 -2.10833,-0.673705 -1.03912,-0.608968 -1.70929,-0.800353 -2.2271,-0.636007 -0.84566,0.268401 -13.88756,13.143675 -14.46037,14.275621 -0.6716,1.32716 0.3854,0.868834 2.64783,-1.148131 z"
     id="path868"
     inkscape:connector-curvature="0" />
  <path
     style="opacity:1;vector-effect:none;fill:#c19864;fill-opacity:0;stroke:#ddc480;stroke-width:1;stroke-linecap:butt;stroke-linejoin:miter;stroke-miterlimit:4;stroke-dasharray:none;stroke-dashoffset:0;stroke-opacity:0"
     d="M 33.293868,77.269193 C 21.186118,75.074428 9.8306883,66.5765 4.6236563,55.813604 0.55698126,47.407822 -0.22449674,37.279363 2.4978093,28.261255 5.3525083,18.804575 12.657988,9.9344504 21.317938,5.410326 c 5.90243,-3.0835402 11.13914,-4.4064574 17.51695,-4.42519827 7.05691,-0.020736 11.95268,1.13755857 17.67528,4.18180947 9.78752,5.2066668 16.97573,14.3155958 19.91074,25.2309558 0.78567,2.921942 0.87209,3.81649 0.87209,9.027237 0,5.205865 -0.0869,6.106848 -0.86909,9.015395 -1.04077,3.869845 -3.14388,8.42906 -5.53561,12.00036 -2.4064,3.593202 -7.42599,8.540028 -11.11924,10.958074 -7.82015,5.120006 -18.07293,7.39331 -26.47519,5.870234 z m 22.18796,-18.327657 c 1.24839,-0.160862 2.40531,-0.427975 2.57092,-0.593583 0.18113,-0.181132 0.0138,-0.666338 -0.41996,-1.217775 -0.61276,-0.779005 -0.76076,-1.54444 -0.98547,-5.096877 -0.14543,-2.299113 -0.27253,-6.188044 -0.28245,-8.64207 -0.0195,-4.813548 -0.43682,-9.351773 -1.0235,-11.129447 -0.46054,-1.395443 -1.75312,-2.090892 -3.88617,-2.090892 -1.99609,0 -3.19826,0.839454 -3.68972,2.576475 -0.19053,0.673405 -0.49898,5.834966 -0.68544,11.470136 -0.3928,11.871058 -0.43603,12.283688 -1.31595,12.562967 -0.91915,0.291724 -1.9678,-0.113301 -1.99249,-0.769562 -0.0115,-0.305863 -0.20394,-3.347175 -0.42764,-6.758472 -0.49742,-7.585646 -0.54822,-7.679001 -4.17856,-7.679001 -3.64878,0 -3.67645,0.05266 -4.17742,7.949611 -0.4111,6.480405 -0.6313,7.424305 -1.72957,7.413973 -1.14514,-0.01078 -1.47625,-0.651089 -2.0604,-3.984481 -0.33802,-1.928904 -0.81744,-3.614901 -1.11154,-3.909 -0.34881,-0.348816 -1.32305,-0.557849 -2.99297,-0.642175 -3.89831,-0.196857 -4.60508,0.543954 -5.15272,5.400885 -0.25828,2.290679 -0.41831,2.742157 -1.19734,3.377972 -1.20519,0.98363 -0.66442,1.509161 1.82761,1.77612 2.99495,0.320834 30.40166,0.308506 32.91078,-0.01481 z M 25.470168,43.571021 c 0.5638,-0.860475 0.41038,-1.501823 -0.35926,-1.501823 -0.58498,0 -1.25911,1.219116 -1.01947,1.843622 0.268,0.698384 0.7804,0.571353 1.37873,-0.341799 z m 4.4673,-4.715632 c 1.1671,-1.040477 3.68019,-3.365977 5.58464,-5.167777 1.90445,-1.8018 4.02822,-3.650286 4.71949,-4.107746 l 1.25685,-0.831746 1.73809,0.590796 c 2.18321,0.742095 2.52758,0.584948 6.73031,-3.071237 1.66897,-1.451935 3.18711,-2.7342 3.37363,-2.849479 0.18653,-0.115279 0.57239,0.241451 0.85747,0.792734 0.28508,0.551282 0.74128,1.002331 1.01378,1.002331 1.10616,0 1.57001,-3.866278 0.62561,-5.214595 -0.45644,-0.651654 -0.80367,-0.734557 -3.07666,-0.734557 -2.92308,0 -4.1474,0.525903 -3.3792,1.451523 0.24262,0.29234 0.7116,0.531528 1.04217,0.531528 0.33057,0 0.68934,0.142859 0.79725,0.317464 0.24085,0.389708 -4.27169,5.198833 -5.13546,5.472983 -0.37274,0.118305 -1.21745,-0.151616 -2.10833,-0.673705 -1.03912,-0.608968 -1.70929,-0.800353 -2.2271,-0.636007 -0.84566,0.268401 -13.88756,13.143675 -14.46037,14.275621 -0.6716,1.32716 0.3854,0.868834 2.64783,-1.148131 z"
     id="path870"
     inkscape:connector-curvature="0" />
  <path
     style="opacity:1;vector-effect:none;fill:#c19864;fill-opacity:0;stroke:#ddc480;stroke-width:1;stroke-linecap:butt;stroke-linejoin:miter;stroke-miterlimit:4;stroke-dasharray:none;stroke-dashoffset:0;stroke-opacity:0"
     d="M 134.02539 4.5175781 C 131.97184 4.5261624 130.01127 4.6746738 128.40234 4.9746094 C 119.78754 6.5805759 112.58559 10.447007 106.72266 16.613281 C 101.51214 22.093388 98.245721 28.398218 96.699219 35.960938 C 96.016556 39.299528 96.012831 46.512691 96.691406 50.089844 C 98.65481 60.440074 104.40193 68.857322 113.79102 75.130859 C 119.16266 78.720039 124.84563 80.798874 131.15039 81.482422 C 136.69291 82.083329 143.57255 80.884615 149.68359 78.25 C 159.28713 74.10969 167.29326 65.44647 170.95898 55.228516 C 173.61417 47.827334 173.68889 39.272455 171.16602 31.550781 C 167.07218 19.02089 156.41548 8.8898903 143.86328 5.5957031 C 141.12864 4.8780254 137.44798 4.5032709 134.02539 4.5175781 z M 148.11133 23.003906 C 150.38432 23.003906 150.73301 23.086627 151.18945 23.738281 C 152.11525 25.060048 151.5904 28.953125 150.48633 28.953125 C 150.21565 28.953125 149.82498 28.506276 149.61914 27.960938 C 149.4133 27.415598 149.06742 26.96875 148.84961 26.96875 C 148.63181 26.96875 147.06562 28.25112 145.36914 29.818359 C 143.67266 31.385597 141.79852 32.902009 141.20508 33.1875 C 140.19037 33.675661 140.03701 33.663633 138.63086 32.980469 C 137.20768 32.289037 137.08449 32.280235 136.07422 32.796875 C 135.49045 33.09541 133.59996 34.703937 131.87305 36.371094 C 130.14614 38.038254 127.48108 40.545084 125.95117 41.943359 C 122.98505 44.654272 121.67666 45.302561 122.98633 43.412109 C 124.30656 41.50641 135.9726 29.993776 136.95898 29.623047 C 137.79256 29.30975 138.10402 29.388742 139.41602 30.242188 C 140.80226 31.143929 140.98826 31.183975 141.80859 30.759766 C 142.90431 30.193144 146.74609 26.048855 146.74609 25.433594 C 146.74609 25.182257 146.39987 24.986328 145.95898 24.986328 C 145.52679 24.986328 144.97504 24.747418 144.73242 24.455078 C 143.96422 23.529458 145.18825 23.003906 148.11133 23.003906 z M 224.25 30.466797 C 215.91764 30.43507 214.2713 30.745436 208.63867 33.410156 C 194.40923 40.141909 185.6574 54.480496 186.51758 69.654297 C 187.1117 80.134734 191.0739 88.930081 198.31445 95.847656 C 203.78989 101.07886 210.70688 104.57925 218.30078 105.95898 C 219.20968 106.12416 222.25859 106.20477 225.07617 106.13867 C 229.19876 106.04189 230.82269 105.85671 233.39453 105.18945 C 241.90644 102.98105 249.65926 97.758527 255.07617 90.583984 C 257.27057 87.677559 260.52578 81.159629 261.50781 77.703125 C 262.18419 75.32236 262.25754 74.366692 262.24414 68.117188 C 262.23005 61.515961 262.18429 61.032222 261.32227 58.203125 C 260.08475 54.141607 257.26045 48.460664 254.9043 45.294922 C 251.15368 40.255544 246.61621 36.639463 240.19531 33.572266 C 234.46663 30.835738 232.74007 30.499127 224.25 30.466797 z M 146.71484 33.910156 C 148.86916 33.910156 149.89981 34.410077 150.54492 35.769531 C 151.25644 37.268958 151.6738 42.3591 151.7207 50.105469 C 151.76971 58.200881 151.99225 60.118932 152.98828 61.046875 C 154.08323 62.066982 153.50986 62.398863 150.14648 62.693359 C 146.7127 62.994028 122.23018 62.987972 118.65234 62.685547 C 117.28899 62.570308 115.99467 62.364332 115.77539 62.228516 C 115.26875 61.914722 115.59616 61.011719 116.2168 61.011719 C 116.82385 61.011719 117.33008 59.656152 117.33008 58.03125 C 117.33008 55.640556 117.98599 53.462344 118.92773 52.720703 C 119.68777 52.122138 120.16287 52.043168 122.36133 52.142578 C 124.14524 52.223239 125.07332 52.417076 125.44531 52.789062 C 125.77343 53.117185 126.14461 54.511189 126.41602 56.423828 C 126.99691 60.517361 127.07655 60.681641 128.44531 60.681641 C 129.30167 60.681641 129.64895 60.50181 129.88867 59.9375 C 130.06242 59.528496 130.32454 56.405107 130.4707 52.996094 C 130.71936 47.19643 130.78378 46.74942 131.47852 46.054688 C 132.10559 45.427618 132.57912 45.3125 134.51758 45.3125 C 136.45783 45.3125 136.92732 45.42733 137.55664 46.056641 C 138.25626 46.756268 138.31885 47.194439 138.58594 53.328125 C 138.74225 56.917718 139.02422 60.040234 139.21289 60.267578 C 139.74072 60.903572 141.67157 60.788832 141.9668 60.103516 C 142.10384 59.785402 142.32488 54.691042 142.45898 48.783203 C 142.61139 42.06889 142.85218 37.560881 143.09961 36.759766 C 143.72747 34.726915 144.76326 33.910156 146.71484 33.910156 z M 120.46289 45.808594 C 121.23253 45.808594 121.38607 46.450072 120.82227 47.310547 C 120.20798 48.248058 119.79842 48.338533 119.51562 47.601562 C 119.26062 46.937026 119.85703 45.808594 120.46289 45.808594 z M 238.70508 48.162109 C 241.11297 48.136487 241.44262 48.688422 241.39844 51.095703 C 241.3529 53.577932 240.69724 54.552285 239.68555 53.636719 C 239.34746 53.330755 238.98158 53.080078 238.87305 53.080078 C 238.76451 53.080078 237.14039 54.358668 235.26367 55.921875 C 230.9777 59.491845 230.68667 59.634826 229.1875 58.919922 C 227.71234 58.216474 226.78559 58.225381 225.69922 58.949219 C 225.22358 59.266136 222.69469 61.504995 220.08008 63.925781 C 217.46547 66.346571 214.66896 68.763745 213.86523 69.296875 C 213.0615 69.830008 212.27546 70.265625 212.11914 70.265625 C 211.52506 70.265625 211.47515 69.233573 212.02734 68.363281 C 213.10513 66.664607 224.55725 55.542601 225.85352 54.935547 C 227.06111 54.370021 227.2035 54.367497 228.59375 54.898438 C 229.40026 55.206453 230.3894 55.37515 230.79102 55.273438 C 231.19265 55.171725 232.48039 54.119739 233.65234 52.935547 L 235.7832 50.78125 L 234.99414 49.943359 C 233.87919 48.756543 234.44174 48.373326 237.54102 48.205078 C 237.97476 48.181532 238.36109 48.16577 238.70508 48.162109 z M 236.86133 59.5625 C 238.6325 59.584929 240.40283 59.689938 240.56641 59.855469 C 240.74939 60.040628 241.0547 64.546802 241.25977 70.101562 C 241.70438 82.144806 242.04902 85.385727 242.97461 86.248047 C 243.39658 86.641203 243.52393 86.983884 243.32422 87.183594 C 243.15095 87.356866 241.16843 87.633353 238.91797 87.796875 C 234.3748 88.126874 214.99902 88.126835 209.45898 87.796875 C 205.40613 87.555491 204.78865 87.246353 206.02539 86.085938 C 206.69305 85.459484 206.96522 84.683639 207.39453 82.1875 C 208.05394 78.353424 208.26103 77.951204 209.71875 77.677734 C 211.54885 77.334406 215.16155 77.665744 215.49609 78.207031 C 215.65599 78.46575 216.03938 80.078833 216.34766 81.791016 C 216.97781 85.290776 217.66762 86.40401 218.82031 85.787109 C 219.18841 85.59011 219.62482 85.071913 219.79102 84.634766 C 220.06806 83.906104 220.77334 74.747621 220.77734 71.835938 L 220.7793 70.595703 L 224.35938 70.595703 L 227.94141 70.595703 L 228.33398 76.966797 C 228.55066 80.47025 228.84337 83.767685 228.98438 84.294922 C 229.51078 86.2633 231.21011 86.25841 231.75391 84.287109 C 231.90051 83.755677 232.23819 78.058948 232.50391 71.626953 C 232.76964 65.194957 233.0642 59.855689 233.1582 59.761719 C 233.31962 59.600302 235.09016 59.540071 236.86133 59.5625 z M 210.37891 71.128906 C 210.54935 71.1466 210.74056 71.208142 210.94727 71.314453 C 211.71182 71.707675 211.68276 72.472413 210.88672 72.898438 C 209.8776 73.438502 209.54297 73.22916 209.54297 72.056641 C 209.54297 71.409946 209.86758 71.075826 210.37891 71.128906 z "
     id="path878" />
  <path
     style="opacity:1;vector-effect:none;fill:#c19864;fill-opacity:0;stroke:#ddc480;stroke-width:1;stroke-linecap:butt;stroke-linejoin:miter;stroke-miterlimit:4;stroke-dasharray:none;stroke-dashoffset:0;stroke-opacity:0"
     d="M 35.799438,77.744071 C 29.494678,77.060523 23.811458,74.980868 18.439818,71.391688 9.0507283,65.118151 3.3023123,56.700593 1.3389083,46.350363 0.66033326,42.77321 0.66464526,35.561228 1.3473083,32.222637 2.8938103,24.659918 6.1605783,18.354201 11.371098,12.874094 17.234028,6.7078204 24.436138,2.841437 33.050938,1.2354705 c 4.29048,-0.79982804 11.08488,-0.52662517 15.46031,0.6216591 12.5522,3.2941872 23.20929,13.4250414 27.30313,25.9549324 2.52287,7.721674 2.44803,16.275445 -0.20716,23.676627 -3.66572,10.217954 -11.67157,18.880855 -21.27511,23.021165 -6.11104,2.634615 -12.9902,3.835124 -18.53272,3.234217 z m 18.99597,-18.789814 c 3.36338,-0.294496 3.93543,-0.626016 2.84048,-1.646123 -0.99603,-0.927943 -1.21828,-2.846914 -1.26729,-10.942326 -0.0469,-7.746369 -0.4644,-12.836034 -1.17592,-14.335461 -0.64511,-1.359454 -1.67472,-1.859455 -3.82904,-1.859455 -1.95158,0 -2.98811,0.816884 -3.61597,2.849735 -0.24743,0.801115 -0.48725,5.308834 -0.63966,12.023147 -0.1341,5.907839 -0.35594,11.001801 -0.49298,11.319915 -0.29523,0.685316 -2.22629,0.801034 -2.75412,0.16504 -0.18867,-0.227344 -0.47093,-3.350292 -0.62724,-6.939885 -0.26709,-6.133686 -0.32901,-6.571345 -1.02863,-7.270972 -0.62932,-0.629311 -1.09939,-0.744437 -3.03964,-0.744437 -1.93846,0 -2.4106,0.115404 -3.03767,0.742474 -0.69474,0.694732 -0.75956,1.141014 -1.00822,6.940678 -0.14616,3.409013 -0.40791,6.532844 -0.58166,6.941848 -0.23972,0.56431 -0.58805,0.743644 -1.44441,0.743644 -1.36876,0 -1.44722,-0.164755 -2.02811,-4.258288 -0.27141,-1.912639 -0.64407,-3.305465 -0.97219,-3.633587 -0.37199,-0.371987 -1.29982,-0.566795 -3.08373,-0.647456 -2.19846,-0.09941 -2.67374,-0.01924 -3.43378,0.579325 -0.94174,0.741641 -1.59667,2.919996 -1.59667,5.31069 0,1.624902 -0.50619,2.979824 -1.11324,2.979824 -0.62064,0 -0.94888,0.903505 -0.44224,1.217299 0.21928,0.135816 1.51416,0.341227 2.87751,0.456466 3.57784,0.302425 28.06064,0.308569 31.49442,0.0079 z M 25.470168,43.571021 c 0.5638,-0.860475 0.41038,-1.501823 -0.35926,-1.501823 -0.60586,0 -1.20211,1.129317 -0.9471,1.793854 0.2828,0.736971 0.69207,0.64548 1.30636,-0.292031 z m 5.12968,-5.366175 c 1.52991,-1.398275 4.19457,-3.906355 5.92148,-5.573515 1.72691,-1.667157 3.61747,-3.27545 4.20124,-3.573985 1.01027,-0.51664 1.13344,-0.507793 2.55662,0.183639 1.40615,0.683164 1.55947,0.695514 2.57418,0.207353 0.59344,-0.285491 2.467,-1.801361 4.16348,-3.368599 1.69648,-1.567239 3.2627,-2.849524 3.4805,-2.849524 0.21781,0 0.56443,0.446186 0.77027,0.991525 0.20584,0.545339 0.59572,0.991525 0.8664,0.991525 1.10407,0 1.62912,-3.892828 0.70332,-5.214595 -0.45644,-0.651654 -0.80367,-0.734557 -3.07666,-0.734557 -2.92308,0 -4.1474,0.525903 -3.3792,1.451523 0.24262,0.29234 0.79474,0.531528 1.22693,0.531528 0.44089,0 0.7858,0.196626 0.7858,0.447963 0,0.615261 -3.8414,4.758711 -4.93712,5.325333 -0.82033,0.424209 -1.00582,0.384067 -2.39206,-0.517674 -1.312,-0.853445 -1.62398,-0.931986 -2.45756,-0.618689 -0.98638,0.370729 -12.65151,11.883215 -13.97174,13.788914 -1.30967,1.890452 -0.002,1.242748 2.96412,-1.468165 z"
     id="path883"
     inkscape:connector-curvature="0" />
  <path
     style="opacity:1;vector-effect:none;fill:#c19864;fill-opacity:0;stroke:#ddc480;stroke-width:1;stroke-linecap:butt;stroke-linejoin:miter;stroke-miterlimit:4;stroke-dasharray:none;stroke-dashoffset:0;stroke-opacity:0"
     d="M 35.799438,77.744071 C 29.494678,77.060523 23.811458,74.980868 18.439818,71.391688 9.0507283,65.118151 3.3023123,56.700593 1.3389083,46.350363 0.66033326,42.77321 0.66464526,35.561228 1.3473083,32.222637 2.8938103,24.659918 6.1605783,18.354201 11.371098,12.874094 17.234028,6.7078204 24.436138,2.841437 33.050938,1.2354705 c 4.29048,-0.79982804 11.08488,-0.52662517 15.46031,0.6216591 12.5522,3.2941872 23.20929,13.4250414 27.30313,25.9549324 2.52287,7.721674 2.44803,16.275445 -0.20716,23.676627 -3.66572,10.217954 -11.67157,18.880855 -21.27511,23.021165 -6.11104,2.634615 -12.9902,3.835124 -18.53272,3.234217 z m 18.99597,-18.789814 c 3.36338,-0.294496 3.93543,-0.626016 2.84048,-1.646123 -0.99603,-0.927943 -1.21828,-2.846914 -1.26729,-10.942326 -0.0469,-7.746369 -0.4644,-12.836034 -1.17592,-14.335461 -0.64511,-1.359454 -1.67472,-1.859455 -3.82904,-1.859455 -1.95158,0 -2.98811,0.816884 -3.61597,2.849735 -0.24743,0.801115 -0.48725,5.308834 -0.63966,12.023147 -0.1341,5.907839 -0.35594,11.001801 -0.49298,11.319915 -0.29523,0.685316 -2.22629,0.801034 -2.75412,0.16504 -0.18867,-0.227344 -0.47093,-3.350292 -0.62724,-6.939885 -0.26709,-6.133686 -0.32901,-6.571345 -1.02863,-7.270972 -0.62932,-0.629311 -1.09939,-0.744437 -3.03964,-0.744437 -1.93846,0 -2.4106,0.115404 -3.03767,0.742474 -0.69474,0.694732 -0.75956,1.141014 -1.00822,6.940678 -0.14616,3.409013 -0.40791,6.532844 -0.58166,6.941848 -0.23972,0.56431 -0.58805,0.743644 -1.44441,0.743644 -1.36876,0 -1.44722,-0.164755 -2.02811,-4.258288 -0.27141,-1.912639 -0.64407,-3.305465 -0.97219,-3.633587 -0.37199,-0.371987 -1.29982,-0.566795 -3.08373,-0.647456 -2.19846,-0.09941 -2.67374,-0.01924 -3.43378,0.579325 -0.94174,0.741641 -1.59667,2.919996 -1.59667,5.31069 0,1.624902 -0.50619,2.979824 -1.11324,2.979824 -0.62064,0 -0.94888,0.903505 -0.44224,1.217299 0.21928,0.135816 1.51416,0.341227 2.87751,0.456466 3.57784,0.302425 28.06064,0.308569 31.49442,0.0079 z M 25.470168,43.571021 c 0.5638,-0.860475 0.41038,-1.501823 -0.35926,-1.501823 -0.60586,0 -1.20211,1.129317 -0.9471,1.793854 0.2828,0.736971 0.69207,0.64548 1.30636,-0.292031 z m 5.12968,-5.366175 c 1.52991,-1.398275 4.19457,-3.906355 5.92148,-5.573515 1.72691,-1.667157 3.61747,-3.27545 4.20124,-3.573985 1.01027,-0.51664 1.13344,-0.507793 2.55662,0.183639 1.40615,0.683164 1.55947,0.695514 2.57418,0.207353 0.59344,-0.285491 2.467,-1.801361 4.16348,-3.368599 1.69648,-1.567239 3.2627,-2.849524 3.4805,-2.849524 0.21781,0 0.56443,0.446186 0.77027,0.991525 0.20584,0.545339 0.59572,0.991525 0.8664,0.991525 1.10407,0 1.62912,-3.892828 0.70332,-5.214595 -0.45644,-0.651654 -0.80367,-0.734557 -3.07666,-0.734557 -2.92308,0 -4.1474,0.525903 -3.3792,1.451523 0.24262,0.29234 0.79474,0.531528 1.22693,0.531528 0.44089,0 0.7858,0.196626 0.7858,0.447963 0,0.615261 -3.8414,4.758711 -4.93712,5.325333 -0.82033,0.424209 -1.00582,0.384067 -2.39206,-0.517674 -1.312,-0.853445 -1.62398,-0.931986 -2.45756,-0.618689 -0.98638,0.370729 -12.65151,11.883215 -13.97174,13.788914 -1.30967,1.890452 -0.002,1.242748 2.96412,-1.468165 z"
     id="path885"
     inkscape:connector-curvature="0" />
  <path
     style="opacity:1;vector-effect:none;fill:#c19864;fill-opacity:0;stroke:#ddc480;stroke-width:1;stroke-linecap:butt;stroke-linejoin:miter;stroke-miterlimit:4;stroke-dasharray:none;stroke-dashoffset:0;stroke-opacity:0"
     d="M 35.799438,77.744071 C 29.494678,77.060523 23.811458,74.980868 18.439818,71.391688 9.0507283,65.118151 3.3023123,56.700593 1.3389083,46.350363 0.66033326,42.77321 0.66464526,35.561228 1.3473083,32.222637 2.8938103,24.659918 6.1605783,18.354201 11.371098,12.874094 17.234028,6.7078204 24.436138,2.841437 33.050938,1.2354705 c 4.29048,-0.79982804 11.08488,-0.52662517 15.46031,0.6216591 12.5522,3.2941872 23.20929,13.4250414 27.30313,25.9549324 2.52287,7.721674 2.44803,16.275445 -0.20716,23.676627 -3.66572,10.217954 -11.67157,18.880855 -21.27511,23.021165 -6.11104,2.634615 -12.9902,3.835124 -18.53272,3.234217 z m 18.99597,-18.789814 c 3.36338,-0.294496 3.93543,-0.626016 2.84048,-1.646123 -0.99603,-0.927943 -1.21828,-2.846914 -1.26729,-10.942326 -0.0469,-7.746369 -0.4644,-12.836034 -1.17592,-14.335461 -0.64511,-1.359454 -1.67472,-1.859455 -3.82904,-1.859455 -1.95158,0 -2.98811,0.816884 -3.61597,2.849735 -0.24743,0.801115 -0.48725,5.308834 -0.63966,12.023147 -0.1341,5.907839 -0.35594,11.001801 -0.49298,11.319915 -0.29523,0.685316 -2.22629,0.801034 -2.75412,0.16504 -0.18867,-0.227344 -0.47093,-3.350292 -0.62724,-6.939885 -0.26709,-6.133686 -0.32901,-6.571345 -1.02863,-7.270972 -0.62932,-0.629311 -1.09939,-0.744437 -3.03964,-0.744437 -1.93846,0 -2.4106,0.115404 -3.03767,0.742474 -0.69474,0.694732 -0.75956,1.141014 -1.00822,6.940678 -0.14616,3.409013 -0.40791,6.532844 -0.58166,6.941848 -0.23972,0.56431 -0.58805,0.743644 -1.44441,0.743644 -1.36876,0 -1.44722,-0.164755 -2.02811,-4.258288 -0.27141,-1.912639 -0.64407,-3.305465 -0.97219,-3.633587 -0.37199,-0.371987 -1.29982,-0.566795 -3.08373,-0.647456 -2.19846,-0.09941 -2.67374,-0.01924 -3.43378,0.579325 -0.94174,0.741641 -1.59667,2.919996 -1.59667,5.31069 0,1.624902 -0.50619,2.979824 -1.11324,2.979824 -0.62064,0 -0.94888,0.903505 -0.44224,1.217299 0.21928,0.135816 1.51416,0.341227 2.87751,0.456466 3.57784,0.302425 28.06064,0.308569 31.49442,0.0079 z M 25.470168,43.571021 c 0.5638,-0.860475 0.41038,-1.501823 -0.35926,-1.501823 -0.60586,0 -1.20211,1.129317 -0.9471,1.793854 0.2828,0.736971 0.69207,0.64548 1.30636,-0.292031 z m 5.12968,-5.366175 c 1.52991,-1.398275 4.19457,-3.906355 5.92148,-5.573515 1.72691,-1.667157 3.61747,-3.27545 4.20124,-3.573985 1.01027,-0.51664 1.13344,-0.507793 2.55662,0.183639 1.40615,0.683164 1.55947,0.695514 2.57418,0.207353 0.59344,-0.285491 2.467,-1.801361 4.16348,-3.368599 1.69648,-1.567239 3.2627,-2.849524 3.4805,-2.849524 0.21781,0 0.56443,0.446186 0.77027,0.991525 0.20584,0.545339 0.59572,0.991525 0.8664,0.991525 1.10407,0 1.62912,-3.892828 0.70332,-5.214595 -0.45644,-0.651654 -0.80367,-0.734557 -3.07666,-0.734557 -2.92308,0 -4.1474,0.525903 -3.3792,1.451523 0.24262,0.29234 0.79474,0.531528 1.22693,0.531528 0.44089,0 0.7858,0.196626 0.7858,0.447963 0,0.615261 -3.8414,4.758711 -4.93712,5.325333 -0.82033,0.424209 -1.00582,0.384067 -2.39206,-0.517674 -1.312,-0.853445 -1.62398,-0.931986 -2.45756,-0.618689 -0.98638,0.370729 -12.65151,11.883215 -13.97174,13.788914 -1.30967,1.890452 -0.002,1.242748 2.96412,-1.468165 z"
     id="path887"
     inkscape:connector-curvature="0" />
  <path
     style="opacity:1;vector-effect:none;fill:#c19864;fill-opacity:0;stroke:#ddc480;stroke-width:1;stroke-linecap:butt;stroke-linejoin:miter;stroke-miterlimit:4;stroke-dasharray:none;stroke-dashoffset:0;stroke-opacity:0"
     d="M 35.799438,77.744071 C 29.494678,77.060523 23.811458,74.980868 18.439818,71.391688 9.0507283,65.118151 3.3023123,56.700593 1.3389083,46.350363 0.66033326,42.77321 0.66464526,35.561228 1.3473083,32.222637 2.8938103,24.659918 6.1605783,18.354201 11.371098,12.874094 17.234028,6.7078204 24.436138,2.841437 33.050938,1.2354705 c 4.29048,-0.79982804 11.08488,-0.52662517 15.46031,0.6216591 12.5522,3.2941872 23.20929,13.4250414 27.30313,25.9549324 2.52287,7.721674 2.44803,16.275445 -0.20716,23.676627 -3.66572,10.217954 -11.67157,18.880855 -21.27511,23.021165 -6.11104,2.634615 -12.9902,3.835124 -18.53272,3.234217 z m 18.99597,-18.789814 c 3.36338,-0.294496 3.93543,-0.626016 2.84048,-1.646123 -0.99603,-0.927943 -1.21828,-2.846914 -1.26729,-10.942326 -0.0469,-7.746369 -0.4644,-12.836034 -1.17592,-14.335461 -0.64511,-1.359454 -1.67472,-1.859455 -3.82904,-1.859455 -1.95158,0 -2.98811,0.816884 -3.61597,2.849735 -0.24743,0.801115 -0.48725,5.308834 -0.63966,12.023147 -0.1341,5.907839 -0.35594,11.001801 -0.49298,11.319915 -0.29523,0.685316 -2.22629,0.801034 -2.75412,0.16504 -0.18867,-0.227344 -0.47093,-3.350292 -0.62724,-6.939885 -0.26709,-6.133686 -0.32901,-6.571345 -1.02863,-7.270972 -0.62932,-0.629311 -1.09939,-0.744437 -3.03964,-0.744437 -1.93846,0 -2.4106,0.115404 -3.03767,0.742474 -0.69474,0.694732 -0.75956,1.141014 -1.00822,6.940678 -0.14616,3.409013 -0.40791,6.532844 -0.58166,6.941848 -0.23972,0.56431 -0.58805,0.743644 -1.44441,0.743644 -1.36876,0 -1.44722,-0.164755 -2.02811,-4.258288 -0.27141,-1.912639 -0.64407,-3.305465 -0.97219,-3.633587 -0.37199,-0.371987 -1.29982,-0.566795 -3.08373,-0.647456 -2.19846,-0.09941 -2.67374,-0.01924 -3.43378,0.579325 -0.94174,0.741641 -1.59667,2.919996 -1.59667,5.31069 0,1.624902 -0.50619,2.979824 -1.11324,2.979824 -0.62064,0 -0.94888,0.903505 -0.44224,1.217299 0.21928,0.135816 1.51416,0.341227 2.87751,0.456466 3.57784,0.302425 28.06064,0.308569 31.49442,0.0079 z M 25.470168,43.571021 c 0.5638,-0.860475 0.41038,-1.501823 -0.35926,-1.501823 -0.60586,0 -1.20211,1.129317 -0.9471,1.793854 0.2828,0.736971 0.69207,0.64548 1.30636,-0.292031 z m 5.12968,-5.366175 c 1.52991,-1.398275 4.19457,-3.906355 5.92148,-5.573515 1.72691,-1.667157 3.61747,-3.27545 4.20124,-3.573985 1.01027,-0.51664 1.13344,-0.507793 2.55662,0.183639 1.40615,0.683164 1.55947,0.695514 2.57418,0.207353 0.59344,-0.285491 2.467,-1.801361 4.16348,-3.368599 1.69648,-1.567239 3.2627,-2.849524 3.4805,-2.849524 0.21781,0 0.56443,0.446186 0.77027,0.991525 0.20584,0.545339 0.59572,0.991525 0.8664,0.991525 1.10407,0 1.62912,-3.892828 0.70332,-5.214595 -0.45644,-0.651654 -0.80367,-0.734557 -3.07666,-0.734557 -2.92308,0 -4.1474,0.525903 -3.3792,1.451523 0.24262,0.29234 0.79474,0.531528 1.22693,0.531528 0.44089,0 0.7858,0.196626 0.7858,0.447963 0,0.615261 -3.8414,4.758711 -4.93712,5.325333 -0.82033,0.424209 -1.00582,0.384067 -2.39206,-0.517674 -1.312,-0.853445 -1.62398,-0.931986 -2.45756,-0.618689 -0.98638,0.370729 -12.65151,11.883215 -13.97174,13.788914 -1.30967,1.890452 -0.002,1.242748 2.96412,-1.468165 z"
     id="path889"
     inkscape:connector-curvature="0" />
  <path
     style="opacity:1;vector-effect:none;fill:#c19864;fill-opacity:0;stroke:#ddc480;stroke-width:1;stroke-linecap:butt;stroke-linejoin:miter;stroke-miterlimit:4;stroke-dasharray:none;stroke-dashoffset:0;stroke-opacity:0"
     d="M 35.799438,77.744071 C 29.494678,77.060523 23.811458,74.980868 18.439818,71.391688 9.0507283,65.118151 3.3023123,56.700593 1.3389083,46.350363 0.66033326,42.77321 0.66464526,35.561228 1.3473083,32.222637 2.8938103,24.659918 6.1605783,18.354201 11.371098,12.874094 17.234028,6.7078204 24.436138,2.841437 33.050938,1.2354705 c 4.29048,-0.79982804 11.08488,-0.52662517 15.46031,0.6216591 12.5522,3.2941872 23.20929,13.4250414 27.30313,25.9549324 2.52287,7.721674 2.44803,16.275445 -0.20716,23.676627 -3.66572,10.217954 -11.67157,18.880855 -21.27511,23.021165 -6.11104,2.634615 -12.9902,3.835124 -18.53272,3.234217 z m 18.99597,-18.789814 c 3.36338,-0.294496 3.93543,-0.626016 2.84048,-1.646123 -0.99603,-0.927943 -1.21828,-2.846914 -1.26729,-10.942326 -0.0469,-7.746369 -0.4644,-12.836034 -1.17592,-14.335461 -0.64511,-1.359454 -1.67472,-1.859455 -3.82904,-1.859455 -1.95158,0 -2.98811,0.816884 -3.61597,2.849735 -0.24743,0.801115 -0.48725,5.308834 -0.63966,12.023147 -0.1341,5.907839 -0.35594,11.001801 -0.49298,11.319915 -0.29523,0.685316 -2.22629,0.801034 -2.75412,0.16504 -0.18867,-0.227344 -0.47093,-3.350292 -0.62724,-6.939885 -0.26709,-6.133686 -0.32901,-6.571345 -1.02863,-7.270972 -0.62932,-0.629311 -1.09939,-0.744437 -3.03964,-0.744437 -1.93846,0 -2.4106,0.115404 -3.03767,0.742474 -0.69474,0.694732 -0.75956,1.141014 -1.00822,6.940678 -0.14616,3.409013 -0.40791,6.532844 -0.58166,6.941848 -0.23972,0.56431 -0.58805,0.743644 -1.44441,0.743644 -1.36876,0 -1.44722,-0.164755 -2.02811,-4.258288 -0.27141,-1.912639 -0.64407,-3.305465 -0.97219,-3.633587 -0.37199,-0.371987 -1.29982,-0.566795 -3.08373,-0.647456 -2.19846,-0.09941 -2.67374,-0.01924 -3.43378,0.579325 -0.94174,0.741641 -1.59667,2.919996 -1.59667,5.31069 0,1.624902 -0.50619,2.979824 -1.11324,2.979824 -0.62064,0 -0.94888,0.903505 -0.44224,1.217299 0.21928,0.135816 1.51416,0.341227 2.87751,0.456466 3.57784,0.302425 28.06064,0.308569 31.49442,0.0079 z M 25.470168,43.571021 c 0.5638,-0.860475 0.41038,-1.501823 -0.35926,-1.501823 -0.60586,0 -1.20211,1.129317 -0.9471,1.793854 0.2828,0.736971 0.69207,0.64548 1.30636,-0.292031 z m 5.12968,-5.366175 c 1.52991,-1.398275 4.19457,-3.906355 5.92148,-5.573515 1.72691,-1.667157 3.61747,-3.27545 4.20124,-3.573985 1.01027,-0.51664 1.13344,-0.507793 2.55662,0.183639 1.40615,0.683164 1.55947,0.695514 2.57418,0.207353 0.59344,-0.285491 2.467,-1.801361 4.16348,-3.368599 1.69648,-1.567239 3.2627,-2.849524 3.4805,-2.849524 0.21781,0 0.56443,0.446186 0.77027,0.991525 0.20584,0.545339 0.59572,0.991525 0.8664,0.991525 1.10407,0 1.62912,-3.892828 0.70332,-5.214595 -0.45644,-0.651654 -0.80367,-0.734557 -3.07666,-0.734557 -2.92308,0 -4.1474,0.525903 -3.3792,1.451523 0.24262,0.29234 0.79474,0.531528 1.22693,0.531528 0.44089,0 0.7858,0.196626 0.7858,0.447963 0,0.615261 -3.8414,4.758711 -4.93712,5.325333 -0.82033,0.424209 -1.00582,0.384067 -2.39206,-0.517674 -1.312,-0.853445 -1.62398,-0.931986 -2.45756,-0.618689 -0.98638,0.370729 -12.65151,11.883215 -13.97174,13.788914 -1.30967,1.890452 -0.002,1.242748 2.96412,-1.468165 z"
     id="path891"
     inkscape:connector-curvature="0" />
  <path
     style="opacity:1;vector-effect:none;fill:#c19864;fill-opacity:1;stroke:#c19864;stroke-width:1;stroke-linecap:butt;stroke-linejoin:miter;stroke-miterlimit:4;stroke-dasharray:none;stroke-dashoffset:0;stroke-opacity:0.4321608"
     d="M 35.799438,77.744071 C 29.494678,77.060523 23.811458,74.980868 18.439818,71.391688 9.0507283,65.118151 3.3023123,56.700593 1.3389083,46.350363 0.66033326,42.77321 0.66464526,35.561228 1.3473083,32.222637 2.8938103,24.659918 6.1605783,18.354201 11.371098,12.874094 17.234028,6.7078204 24.436138,2.841437 33.050938,1.2354705 c 4.29048,-0.79982804 11.08488,-0.52662517 15.46031,0.6216591 12.5522,3.2941872 23.20929,13.4250414 27.30313,25.9549324 2.52287,7.721674 2.44803,16.275445 -0.20716,23.676627 -3.66572,10.217954 -11.67157,18.880855 -21.27511,23.021165 -6.11104,2.634615 -12.9902,3.835124 -18.53272,3.234217 z m 18.99597,-18.789814 c 3.36338,-0.294496 3.93543,-0.626016 2.84048,-1.646123 -0.99603,-0.927943 -1.21828,-2.846914 -1.26729,-10.942326 -0.0469,-7.746369 -0.4644,-12.836034 -1.17592,-14.335461 -0.64511,-1.359454 -1.67472,-1.859455 -3.82904,-1.859455 -1.95158,0 -2.98811,0.816884 -3.61597,2.849735 -0.24743,0.801115 -0.48725,5.308834 -0.63966,12.023147 -0.1341,5.907839 -0.35594,11.001801 -0.49298,11.319915 -0.29523,0.685316 -2.22629,0.801034 -2.75412,0.16504 -0.18867,-0.227344 -0.47093,-3.350292 -0.62724,-6.939885 -0.26709,-6.133686 -0.32901,-6.571345 -1.02863,-7.270972 -0.62932,-0.629311 -1.09939,-0.744437 -3.03964,-0.744437 -1.93846,0 -2.4106,0.115404 -3.03767,0.742474 -0.69474,0.694732 -0.75956,1.141014 -1.00822,6.940678 -0.14616,3.409013 -0.40791,6.532844 -0.58166,6.941848 -0.23972,0.56431 -0.58805,0.743644 -1.44441,0.743644 -1.36876,0 -1.44722,-0.164755 -2.02811,-4.258288 -0.27141,-1.912639 -0.64407,-3.305465 -0.97219,-3.633587 -0.37199,-0.371987 -1.29982,-0.566795 -3.08373,-0.647456 -2.19846,-0.09941 -2.67374,-0.01924 -3.43378,0.579325 -0.94174,0.741641 -1.59667,2.919996 -1.59667,5.31069 0,1.624902 -0.50619,2.979824 -1.11324,2.979824 -0.62064,0 -0.94888,0.903505 -0.44224,1.217299 0.21928,0.135816 1.51416,0.341227 2.87751,0.456466 3.57784,0.302425 28.06064,0.308569 31.49442,0.0079 z M 25.470168,43.571021 c 0.5638,-0.860475 0.41038,-1.501823 -0.35926,-1.501823 -0.60586,0 -1.20211,1.129317 -0.9471,1.793854 0.2828,0.736971 0.69207,0.64548 1.30636,-0.292031 z m 5.12968,-5.366175 c 1.52991,-1.398275 4.19457,-3.906355 5.92148,-5.573515 1.72691,-1.667157 3.61747,-3.27545 4.20124,-3.573985 1.01027,-0.51664 1.13344,-0.507793 2.55662,0.183639 1.40615,0.683164 1.55947,0.695514 2.57418,0.207353 0.59344,-0.285491 2.467,-1.801361 4.16348,-3.368599 1.69648,-1.567239 3.2627,-2.849524 3.4805,-2.849524 0.21781,0 0.56443,0.446186 0.77027,0.991525 0.20584,0.545339 0.59572,0.991525 0.8664,0.991525 1.10407,0 1.62912,-3.892828 0.70332,-5.214595 -0.45644,-0.651654 -0.80367,-0.734557 -3.07666,-0.734557 -2.92308,0 -4.1474,0.525903 -3.3792,1.451523 0.24262,0.29234 0.79474,0.531528 1.22693,0.531528 0.44089,0 0.7858,0.196626 0.7858,0.447963 0,0.615261 -3.8414,4.758711 -4.93712,5.325333 -0.82033,0.424209 -1.00582,0.384067 -2.39206,-0.517674 -1.312,-0.853445 -1.62398,-0.931986 -2.45756,-0.618689 -0.98638,0.370729 -12.65151,11.883215 -13.97174,13.788914 -1.30967,1.890452 -0.002,1.242748 2.96412,-1.468165 z"
     id="path893"
     inkscape:connector-curvature="0" />
  <path
     style="opacity:1;vector-effect:none;fill:#c19864;fill-opacity:0;stroke:#ddc480;stroke-width:1;stroke-linecap:butt;stroke-linejoin:miter;stroke-miterlimit:4;stroke-dasharray:none;stroke-dashoffset:0;stroke-opacity:0"
     d="M 49.168228,44.728802 V 32.254809 h 2.48311 2.48312 v 12.473993 12.473992 h -2.48312 -2.48311 z"
     id="path919"
     inkscape:connector-curvature="0" />
  <path
     style="opacity:1;vector-effect:none;fill:#c19864;fill-opacity:0;stroke:#ddc480;stroke-width:1;stroke-linecap:butt;stroke-linejoin:miter;stroke-miterlimit:4;stroke-dasharray:none;stroke-dashoffset:0;stroke-opacity:0"
     d="M 49.168228,44.728802 V 32.254809 h 2.48311 2.48312 v 12.473993 12.473992 h -2.48312 -2.48311 z"
     id="path921"
     inkscape:connector-curvature="0" />
  <path
     style="opacity:1;vector-effect:none;fill:#c19864;fill-opacity:0;stroke:#ddc480;stroke-width:1;stroke-linecap:butt;stroke-linejoin:miter;stroke-miterlimit:4;stroke-dasharray:none;stroke-dashoffset:0;stroke-opacity:0"
     d="M 49.168228,44.728802 V 32.254809 h 2.48311 2.48312 v 12.473993 12.473992 h -2.48312 -2.48311 z"
     id="path923"
     inkscape:connector-curvature="0" />
  <path
     style="opacity:1;vector-effect:none;fill:#c19864;fill-opacity:0;stroke:#ddc480;stroke-width:1;stroke-linecap:butt;stroke-linejoin:miter;stroke-miterlimit:4;stroke-dasharray:none;stroke-dashoffset:0;stroke-opacity:0"
     d="M 49.168228,44.728802 V 32.254809 h 2.48311 2.48312 v 12.473993 12.473992 h -2.48312 -2.48311 z"
     id="path925"
     inkscape:connector-curvature="0" />
  <path
     style="opacity:1;vector-effect:none;fill:#c19864;fill-opacity:1;stroke:#ddc480;stroke-width:1;stroke-linecap:butt;stroke-linejoin:miter;stroke-miterlimit:4;stroke-dasharray:none;stroke-dashoffset:0;stroke-opacity:0"
     d="M 49.168228,44.728802 V 32.254809 h 2.48311 2.48312 v 12.473993 12.473992 h -2.48312 -2.48311 z"
     id="path927"
     inkscape:connector-curvature="0" />
  <path
     style="opacity:1;vector-effect:none;fill:#c19864;fill-opacity:0;stroke:#ddc480;stroke-width:1;stroke-linecap:butt;stroke-linejoin:miter;stroke-miterlimit:4;stroke-dasharray:none;stroke-dashoffset:0;stroke-opacity:0"
     d="m 38.452238,57.137462 c -0.39331,-0.09226 -0.60062,-0.263322 -0.79255,-0.653985 -0.36129,-0.735404 -0.46768,-2.046857 -0.46774,-5.76599 -9e-5,-4.889256 0.18116,-5.967649 1.06507,-6.336878 0.30059,-0.125564 0.98995,-0.172124 1.44058,-0.0973 1.16368,0.193228 1.36542,0.91407 1.441,5.148799 0.0376,2.105657 -0.0386,5.077438 -0.15126,5.901046 -0.15236,1.113769 -0.49504,1.674109 -1.10363,1.804629 -0.35558,0.07626 -1.10571,0.07609 -1.43147,-3.5e-4 z"
     id="path929"
     inkscape:connector-curvature="0" />
  <path
     style="opacity:1;vector-effect:none;fill:#c19864;fill-opacity:1;stroke:#ddc480;stroke-width:1;stroke-linecap:butt;stroke-linejoin:miter;stroke-miterlimit:4;stroke-dasharray:none;stroke-dashoffset:0;stroke-opacity:0"
     d="m 38.452238,57.137462 c -0.39331,-0.09226 -0.60062,-0.263322 -0.79255,-0.653985 -0.36129,-0.735404 -0.46768,-2.046857 -0.46774,-5.76599 -9e-5,-4.889256 0.18116,-5.967649 1.06507,-6.336878 0.30059,-0.125564 0.98995,-0.172124 1.44058,-0.0973 1.16368,0.193228 1.36542,0.91407 1.441,5.148799 0.0376,2.105657 -0.0386,5.077438 -0.15126,5.901046 -0.15236,1.113769 -0.49504,1.674109 -1.10363,1.804629 -0.35558,0.07626 -1.10571,0.07609 -1.43147,-3.5e-4 z"
     id="path931"
     inkscape:connector-curvature="0" />
  <path
     style="opacity:1;vector-effect:none;fill:#c19864;fill-opacity:0;stroke:#ddc480;stroke-width:1;stroke-linecap:butt;stroke-linejoin:miter;stroke-miterlimit:4;stroke-dasharray:none;stroke-dashoffset:0;stroke-opacity:0"
     d="m 25.593958,57.136017 c -1.18478,-0.196265 -1.4519,-0.934161 -1.38892,-3.83664 0.058,-2.67333 0.36182,-3.048417 2.4691,-3.048417 1.85864,0 2.28226,0.36961 2.42686,2.117428 0.0688,0.831919 0.068,2.001926 -0.002,2.777801 -0.12434,1.379198 -0.44961,1.839488 -1.41002,1.995326 -0.44431,0.07209 -1.64573,0.06894 -2.09509,-0.0055 z"
     id="path933"
     inkscape:connector-curvature="0" />
  <path
     style="opacity:1;vector-effect:none;fill:#c19864;fill-opacity:0;stroke:#ddc480;stroke-width:1;stroke-linecap:butt;stroke-linejoin:miter;stroke-miterlimit:4;stroke-dasharray:none;stroke-dashoffset:0;stroke-opacity:0"
     d="m 25.593958,57.136017 c -1.18478,-0.196265 -1.4519,-0.934161 -1.38892,-3.83664 0.058,-2.67333 0.36182,-3.048417 2.4691,-3.048417 1.85864,0 2.28226,0.36961 2.42686,2.117428 0.0688,0.831919 0.068,2.001926 -0.002,2.777801 -0.12434,1.379198 -0.44961,1.839488 -1.41002,1.995326 -0.44431,0.07209 -1.64573,0.06894 -2.09509,-0.0055 z"
     id="path935"
     inkscape:connector-curvature="0" />
  <path
     style="opacity:1;vector-effect:none;fill:#c19864;fill-opacity:0;stroke:#ddc480;stroke-width:1;stroke-linecap:butt;stroke-linejoin:miter;stroke-miterlimit:4;stroke-dasharray:none;stroke-dashoffset:0;stroke-opacity:0"
     d="m 25.593958,57.136017 c -1.18478,-0.196265 -1.4519,-0.934161 -1.38892,-3.83664 0.058,-2.67333 0.36182,-3.048417 2.4691,-3.048417 1.85864,0 2.28226,0.36961 2.42686,2.117428 0.0688,0.831919 0.068,2.001926 -0.002,2.777801 -0.12434,1.379198 -0.44961,1.839488 -1.41002,1.995326 -0.44431,0.07209 -1.64573,0.06894 -2.09509,-0.0055 z"
     id="path937"
     inkscape:connector-curvature="0" />
  <path
     style="opacity:1;vector-effect:none;fill:#c19864;fill-opacity:0;stroke:#ddc480;stroke-width:1;stroke-linecap:butt;stroke-linejoin:miter;stroke-miterlimit:4;stroke-dasharray:none;stroke-dashoffset:0;stroke-opacity:0"
     d="m 25.593958,57.136017 c -1.18478,-0.196265 -1.4519,-0.934161 -1.38892,-3.83664 0.058,-2.67333 0.36182,-3.048417 2.4691,-3.048417 1.85864,0 2.28226,0.36961 2.42686,2.117428 0.0688,0.831919 0.068,2.001926 -0.002,2.777801 -0.12434,1.379198 -0.44961,1.839488 -1.41002,1.995326 -0.44431,0.07209 -1.64573,0.06894 -2.09509,-0.0055 z"
     id="path939"
     inkscape:connector-curvature="0" />
  <path
     style="opacity:1;vector-effect:none;fill:#c19864;fill-opacity:0;stroke:#ddc480;stroke-width:1;stroke-linecap:butt;stroke-linejoin:miter;stroke-miterlimit:4;stroke-dasharray:none;stroke-dashoffset:0;stroke-opacity:0"
     d="m 37.044788,77.846511 c -3.80536,-0.271267 -7.76537,-1.178819 -11.30547,-2.59098 -5.05077,-2.014775 -10.26932,-5.52789 -14.28837,-9.618884 C 8.9997783,63.141591 7.1519583,60.714421 5.5316683,57.86146 3.4904073,54.267272 1.9744723,50.040734 1.2928753,46.043391 0.72720626,42.725924 0.68415926,36.567746 1.2025153,33.116588 c 0.371689,-2.474666 1.412396,-6.035373 2.540132,-8.690889 2.326071,-5.477273 5.954451,-10.38741 10.6622007,-14.4287366 l 0.6155,-0.52837 h 24.08655 24.08655 l 0.69965,0.5985686 c 1.40218,1.199612 3.3828,3.216181 4.66591,4.750625 4.70301,5.624213 7.69705,12.26275 8.70748,19.306661 0.2815,1.962487 0.348,2.968279 0.34959,5.287571 0.001,2.108116 -0.0337,2.779733 -0.234,4.469604 -0.77984,6.58007 -3.50887,13.021687 -7.9332,18.725596 -1.76091,2.270208 -4.14954,4.724556 -6.346,6.520632 -3.38369,2.766878 -7.13577,4.883472 -11.26853,6.356717 -3.65783,1.303939 -7.44883,2.104839 -11.0785,2.340478 -0.84794,0.05505 -3.06043,0.06784 -3.71106,0.02147 z M 51.914258,59.07623 c 3.408,-0.0988 5.22917,-0.29936 5.94062,-0.654215 0.41483,-0.206912 0.37292,-0.471769 -0.16772,-1.059885 -0.56936,-0.61935 -0.78176,-1.14411 -0.97493,-2.408744 -0.19308,-1.263966 -0.32578,-4.298215 -0.32835,-7.507766 -0.004,-4.796785 -0.21662,-9.75352 -0.52922,-12.327928 -0.28756,-2.368217 -0.63932,-3.40794 -1.38439,-4.091902 -0.53872,-0.494533 -1.1501,-0.713816 -2.29267,-0.822307 -2.32035,-0.220324 -3.56208,0.478944 -4.29144,2.416683 -0.179,0.475559 -0.24349,0.844595 -0.34969,2.000904 -0.16594,1.806735 -0.28994,4.552543 -0.38389,8.501011 -0.21557,9.059333 -0.39715,13.028354 -0.611,13.354718 -0.352,0.537226 -2.16467,0.610067 -2.61379,0.105034 -0.0544,-0.06119 -0.12651,-0.234288 -0.16021,-0.384664 -0.15531,-0.693011 -0.40578,-3.832089 -0.52815,-6.618993 -0.23496,-5.351439 -0.29811,-6.006851 -0.64844,-6.730544 -0.29558,-0.610597 -0.89512,-1.04169 -1.66704,-1.198663 -0.49018,-0.09968 -3.10008,-0.09528 -3.55781,0.006 -0.51999,0.115055 -0.93,0.338949 -1.26035,0.688242 -0.68286,0.722026 -0.75307,1.205573 -0.99106,6.825981 -0.12175,2.875395 -0.32924,5.637846 -0.49525,6.593769 -0.0909,0.523557 -0.27811,0.856841 -0.56878,1.012672 -0.14197,0.07612 -0.36915,0.107585 -0.89689,0.124243 -0.62045,0.01958 -0.73493,0.0079 -0.93747,-0.09539 -0.46429,-0.236864 -0.68167,-0.922651 -1.01272,-3.194903 -0.43761,-3.003608 -0.74452,-4.231454 -1.14905,-4.596886 -0.43625,-0.394094 -1.93989,-0.631659 -4.00053,-0.632058 -0.566,-1.17e-4 -1.17071,0.02646 -1.34381,0.05904 -1.6817,0.316574 -2.565,2.158798 -2.73871,5.711905 -0.0326,0.66593 -0.0953,1.374782 -0.1394,1.575227 -0.21302,0.967957 -0.55208,1.484133 -1.02275,1.55701 -0.3111,0.04817 -0.56942,0.29784 -0.62728,0.606283 -0.083,0.44215 0.1957,0.652735 1.05842,0.799903 1.54486,0.263531 3.24153,0.358042 7.88753,0.439366 3.64896,0.06387 20.07113,0.02557 22.78622,-0.05315 z M 25.100168,44.03695 c 0.40574,-0.418906 0.75608,-1.120725 0.70785,-1.41798 -0.0626,-0.385995 -0.43596,-0.623022 -0.82678,-0.524933 -0.42636,0.10701 -0.85863,0.789166 -0.86404,1.363541 -0.003,0.350408 0.0613,0.534623 0.26659,0.759994 0.19572,0.214873 0.37777,0.168971 0.71638,-0.180622 z m 2.96799,-3.717452 c 1.06285,-0.734742 3.22429,-2.69286 7.86654,-7.126538 3.33271,-3.182982 4.83301,-4.363634 5.6952,-4.48181 0.33164,-0.04546 0.62599,0.05089 1.7297,0.566153 0.47468,0.221603 0.98553,0.433755 1.13522,0.471447 0.55058,0.138637 1.27832,-0.151993 2.27794,-0.909713 0.76675,-0.58121 2.12377,-1.736514 3.33029,-2.835258 1.81778,-1.65541 3.16532,-2.746604 3.39184,-2.746604 0.20719,0 0.55489,0.433134 0.75044,0.934819 0.25186,0.646177 0.6961,1.106897 0.98373,1.020231 0.92442,-0.278536 1.42012,-3.219656 0.81203,-4.817934 -0.23739,-0.623933 -0.60957,-0.93052 -1.26712,-1.043807 -0.96977,-0.167076 -3.25484,-0.125824 -4.32112,0.07801 -0.53847,0.102936 -1.05509,0.342897 -1.21516,0.564419 -0.15775,0.218319 -0.0852,0.476383 0.21972,0.781273 0.27528,0.275278 0.5962,0.404643 1.2198,0.491702 0.65268,0.09112 0.82446,0.284581 0.61172,0.688929 -0.304,0.577766 -1.58995,2.080449 -2.91036,3.40086 -1.82181,1.821811 -2.48118,2.165171 -3.32605,1.732002 -0.17491,-0.08967 -0.67445,-0.388444 -1.1101,-0.663935 -1.15067,-0.727643 -1.4465,-0.815669 -2.09451,-0.62323 -0.68801,0.204316 -3.01312,2.325842 -7.90433,7.212237 -4.12799,4.123927 -5.79615,5.902394 -6.42214,6.846807 -0.66728,1.006717 -0.47645,1.167257 0.54672,0.45994 z"
     id="path941"
     inkscape:connector-curvature="0" />
  <path
     style="opacity:1;vector-effect:none;fill:#c19864;fill-opacity:0;stroke:#ddc480;stroke-width:1;stroke-linecap:butt;stroke-linejoin:miter;stroke-miterlimit:4;stroke-dasharray:none;stroke-dashoffset:0;stroke-opacity:0"
     d="m 36.694238,77.827154 c -5.05722,-0.410602 -10.26363,-1.934252 -14.64981,-4.287262 -5.83261,-3.12895 -10.97465,-7.572682 -14.5190897,-12.547331 -3.12083,-4.380112 -5.336492,-9.694592 -6.232463,-14.94917 -0.56831104,-3.33296 -0.60935404,-9.422517 -0.08742,-12.970615 0.165942,-1.128075 0.646171,-3.143582 1.136026,-4.767871 2.13048,-7.064364 6.251777,-13.31904 12.0633667,-18.3079426 l 0.6155,-0.52837 h 24.08655 24.08655 l 0.69965,0.5985686 c 1.39895,1.196841 3.3747,3.207958 4.66709,4.750625 7.69557,9.185893 10.70645,21.035849 8.24759,32.460142 -1.2475,5.796083 -4.25093,11.703778 -8.52059,16.759904 -0.88919,1.052968 -2.78661,2.995674 -3.86972,3.962077 -3.91661,3.494564 -8.17245,5.979681 -13.17511,7.693357 -2.98868,1.023773 -6.20721,1.729117 -9.34819,2.048656 -1.05189,0.107007 -4.28,0.159918 -5.19993,0.08523 z m 11.91894,-18.697482 c 6.15683,-0.09954 7.97038,-0.229384 9.0983,-0.651393 0.56732,-0.21226 0.56151,-0.478881 -0.0243,-1.116149 -0.56936,-0.61935 -0.78176,-1.14411 -0.97493,-2.408744 -0.19267,-1.261304 -0.3262,-4.288231 -0.32863,-7.44934 -0.004,-4.828207 -0.21662,-9.814224 -0.52894,-12.386354 -0.28612,-2.356421 -0.6403,-3.409096 -1.37322,-4.081474 -0.54492,-0.499907 -1.1671,-0.724798 -2.30384,-0.832735 -2.32035,-0.220324 -3.56208,0.478944 -4.29144,2.416683 -0.179,0.475559 -0.24349,0.844595 -0.34969,2.000904 -0.17789,1.93683 -0.28542,4.45541 -0.41285,9.669535 -0.16951,6.936196 -0.35814,11.427683 -0.50366,11.992781 -0.10497,0.40761 -0.66169,0.646967 -1.49362,0.642167 -0.53989,-0.0031 -0.99096,-0.127289 -1.17535,-0.323559 -0.15221,-0.162024 -0.21417,-0.441102 -0.32708,-1.473329 -0.1827,-1.670195 -0.28507,-3.24077 -0.44366,-6.806792 -0.17746,-3.9905 -0.2651,-4.804603 -0.58926,-5.474241 -0.29552,-0.610475 -0.89464,-1.041336 -1.66704,-1.198868 -0.48389,-0.09869 -3.0965,-0.09393 -3.55781,0.0065 -0.4707,0.102455 -0.88179,0.313194 -1.1878,0.608897 -0.7482,0.723018 -0.81284,1.144817 -1.06266,6.934259 -0.0772,1.788403 -0.2091,3.882998 -0.32383,5.141505 -0.21484,2.356565 -0.3781,2.589128 -1.81215,2.581322 -0.42793,-0.0023 -0.58984,-0.02822 -0.77862,-0.124532 -0.45268,-0.230941 -0.66614,-0.912988 -0.99746,-3.187118 -0.47334,-3.248872 -0.76997,-4.344615 -1.26616,-4.677155 -0.48313,-0.323786 -1.5388,-0.487264 -3.43859,-0.532491 -1.53293,-0.03649 -1.90466,0.0013 -2.40256,0.244556 -0.83118,0.406015 -1.36215,1.210544 -1.73462,2.628335 -0.23183,0.882415 -0.32654,1.583649 -0.39126,2.896751 -0.0653,1.325658 -0.1037,1.583452 -0.32841,2.206758 -0.19852,0.550661 -0.47395,0.851955 -0.82909,0.906918 -0.30786,0.04765 -0.50188,0.228782 -0.60161,0.561664 -0.14176,0.473135 0.12296,0.690502 1.02919,0.845091 1.55601,0.265434 3.36355,0.363744 8.00439,0.435351 4.42867,0.06833 15.25928,0.07074 19.36828,0.0043 z M 25.100168,44.03695 c 0.40574,-0.418906 0.75608,-1.120725 0.70785,-1.41798 -0.0626,-0.385995 -0.43596,-0.623022 -0.82678,-0.524933 -0.42636,0.10701 -0.85863,0.789166 -0.86404,1.363541 -0.003,0.350408 0.0613,0.534623 0.26659,0.759994 0.19572,0.214873 0.37777,0.168971 0.71638,-0.180622 z m 2.8789,-3.65434 c 1.06006,-0.71987 3.31081,-2.752884 7.8972,-7.133232 3.40861,-3.25548 4.88373,-4.418996 5.75363,-4.538228 0.33164,-0.04546 0.62599,0.05089 1.7297,0.566153 0.47468,0.221603 0.98553,0.433755 1.13522,0.471447 0.54966,0.138407 1.25928,-0.144879 2.27111,-0.906645 0.76052,-0.57257 2.10215,-1.713672 3.33712,-2.838326 1.81778,-1.65541 3.16532,-2.746604 3.39184,-2.746604 0.066,0 0.20223,0.08545 0.30271,0.189885 0.17158,0.178333 0.48292,0.724152 0.48292,0.846606 0,0.03052 0.10155,0.212603 0.22566,0.404631 0.48133,0.744703 0.97429,0.662738 1.38254,-0.229873 0.34643,-0.757447 0.51263,-2.228458 0.36129,-3.19774 -0.19679,-1.260371 -0.58614,-1.766882 -1.47604,-1.9202 -0.96977,-0.167076 -3.25484,-0.125824 -4.32112,0.07801 -0.53847,0.102936 -1.05509,0.342897 -1.21516,0.564419 -0.15775,0.218319 -0.0852,0.476383 0.21972,0.781273 0.27528,0.275278 0.5962,0.404643 1.2198,0.491702 0.65268,0.09112 0.82446,0.284581 0.61172,0.688929 -0.304,0.577766 -1.58995,2.080449 -2.91036,3.40086 -1.82181,1.821811 -2.48118,2.165171 -3.32605,1.732002 -0.17491,-0.08967 -0.67445,-0.388444 -1.1101,-0.663935 -1.15067,-0.727643 -1.4465,-0.815669 -2.09451,-0.62323 -0.68768,0.204218 -3.00206,2.31604 -7.9045,7.212676 -4.12243,4.117539 -5.79539,5.901065 -6.42197,6.846368 -0.64459,0.972487 -0.48045,1.160092 0.45763,0.523052 z"
     id="path943"
     inkscape:connector-curvature="0" />
  <path
     style="opacity:1;vector-effect:none;fill:#c19864;fill-opacity:1;stroke:#ddc480;stroke-width:1;stroke-linecap:butt;stroke-linejoin:miter;stroke-miterlimit:4;stroke-dasharray:none;stroke-dashoffset:0;stroke-opacity:0"
     d="m 25.593958,57.136017 c -1.18478,-0.196265 -1.4519,-0.934161 -1.38892,-3.83664 0.058,-2.67333 0.36182,-3.048417 2.4691,-3.048417 1.85864,0 2.28226,0.36961 2.42686,2.117428 0.0688,0.831919 0.068,2.001926 -0.002,2.777801 -0.12434,1.379198 -0.44961,1.839488 -1.41002,1.995326 -0.44431,0.07209 -1.64573,0.06894 -2.09509,-0.0055 z"
     id="path945"
     inkscape:connector-curvature="0" />
  <path
     style="opacity:1;vector-effect:none;fill:#c19864;fill-opacity:0;stroke:#ddc480;stroke-width:1;stroke-linecap:butt;stroke-linejoin:miter;stroke-miterlimit:4;stroke-dasharray:none;stroke-dashoffset:0;stroke-opacity:0"
     d="m 29.108568,38.74409 c 0.0875,-0.244565 6.92719,-7.137151 9.36962,-9.442042 1.21154,-1.143311 2.43545,-2.247626 2.96151,-2.672125 0.32674,-0.263656 0.62826,-0.392078 0.92188,-0.39264 0.21147,-4.09e-4 0.77852,0.282985 1.51908,0.759168 1.24552,0.800884 1.64754,0.919564 2.32127,0.685263 0.22411,-0.07794 0.54939,-0.235986 0.72285,-0.351219 1.20968,-0.80361 4.28691,-4.091925 4.83484,-5.166484 0.2864,-0.561667 0.0511,-1.110372 -0.57009,-1.329549 -0.1397,-0.04929 -0.33794,-0.08961 -0.44054,-0.08961 -0.31587,0 -0.7589,-0.163546 -0.93175,-0.343957 -0.15389,-0.160626 -0.15742,-0.17507 -0.0561,-0.229254 0.48229,-0.257829 1.4644,-0.369167 3.23725,-0.366995 1.69846,0.0021 1.97784,0.04507 2.28454,0.351548 0.34962,0.349362 0.48469,0.887139 0.48535,1.932461 3.5e-4,0.592245 -0.0309,0.996624 -0.1041,1.343802 -0.10815,0.513231 -0.39914,1.22695 -0.50025,1.22695 -0.0849,0 -0.25149,-0.263395 -0.49355,-0.780547 -0.47111,-1.006536 -0.96202,-1.334923 -1.54838,-1.035783 -0.44627,0.227668 -1.728,1.285979 -3.36954,2.782181 -2.96897,2.706112 -4.40362,3.730445 -5.07528,3.623727 -0.12425,-0.01974 -0.67638,-0.24206 -1.22695,-0.494041 -1.52074,-0.695999 -1.75289,-0.719551 -2.6954,-0.273454 -0.99597,0.471397 -2.27547,1.566287 -6.09229,5.213286 -1.36137,1.300803 -3.96584,3.73027 -4.92839,4.597232 -0.53033,0.477667 -0.67116,0.579436 -0.62561,0.452086 z"
     id="path947"
     inkscape:connector-curvature="0" />
  <path
     style="opacity:1;vector-effect:none;fill:#c19864;fill-opacity:0;stroke:#ddc480;stroke-width:1;stroke-linecap:butt;stroke-linejoin:miter;stroke-miterlimit:4;stroke-dasharray:none;stroke-dashoffset:0;stroke-opacity:0"
     d="m 27.170768,40.593819 c 0,-0.198387 0.38196,-0.807753 0.88272,-1.408268 1.57716,-1.891331 8.49254,-8.829473 11.79576,-11.83459 2.14485,-1.951287 2.37362,-1.993408 4.27707,-0.787517 1.19996,0.76021 1.45531,0.83559 2.0454,0.603801 0.5026,-0.19742 1.11608,-0.703242 2.32601,-1.917807 1.52951,-1.535369 2.78868,-3.054879 2.90042,-3.50008 0.0594,-0.236645 -0.23378,-0.459936 -0.66262,-0.504669 -0.61212,-0.06385 -0.93865,-0.192709 -1.25085,-0.493627 -0.24461,-0.235779 -0.28724,-0.309658 -0.28724,-0.497867 0,-0.420247 0.46465,-0.67805 1.54957,-0.859752 0.31433,-0.05264 1.02743,-0.07839 2.18971,-0.07905 1.49303,-8.52e-4 1.76883,0.013 2.06194,0.103597 0.8785,0.271523 1.26523,1.101502 1.26734,2.719912 10e-4,0.976697 -0.14821,1.786897 -0.44044,2.387215 -0.34457,0.707841 -0.66528,0.838771 -1.06803,0.436022 -0.12493,-0.12493 -0.33392,-0.454587 -0.47226,-0.744934 -0.27168,-0.570212 -0.47178,-0.865021 -0.65293,-0.961967 -0.0941,-0.05034 -0.16734,-0.03378 -0.36607,0.08268 -0.47964,0.281087 -1.65603,1.270697 -3.55151,2.987632 -1.8499,1.675652 -3.29133,2.81251 -4.02289,3.172869 -0.39783,0.195965 -0.48126,0.215541 -0.90561,0.212492 -0.46056,-0.0033 -0.4828,-0.01052 -1.51908,-0.492701 -1.3152,-0.611964 -1.53971,-0.646958 -2.20082,-0.343051 -0.91324,0.419808 -2.19555,1.499315 -5.36537,4.516814 -5.16758,4.91926 -6.94786,6.510059 -7.98306,7.133426 -0.39773,0.239502 -0.54716,0.25846 -0.54716,0.06942 z m 2.62301,-2.319629 c 0.84099,-0.748389 2.86739,-2.639507 4.75962,-4.441874 3.0511,-2.906194 4.22224,-3.961842 5.26658,-4.747228 0.61275,-0.460815 1.34136,-0.806168 1.78584,-0.846472 0.46784,-0.04242 0.74167,0.03914 1.85435,0.55236 1.16903,0.539202 1.36301,0.572849 1.92516,0.333929 0.6852,-0.291213 2.0947,-1.412406 4.48992,-3.571527 2.09898,-1.892079 3.12508,-2.704136 3.52898,-2.792849 0.40428,-0.08879 0.87126,0.341373 1.26301,1.163433 0.29923,0.627897 0.39518,0.761784 0.51344,0.716403 0.12372,-0.04748 0.30233,-0.420674 0.45722,-0.955323 0.11576,-0.39959 0.13242,-0.589357 0.13245,-1.508752 4e-5,-1.193132 -0.0694,-1.538468 -0.39484,-1.962701 -0.2887,-0.376369 -0.45022,-0.41296 -1.97138,-0.446595 -1.85772,-0.04108 -3.29203,0.113986 -3.63607,0.393094 l -0.13242,0.107424 0.14026,0.149559 c 0.17255,0.183988 0.5086,0.30872 0.96828,0.359397 0.6314,0.06961 0.99664,0.333025 1.11407,0.803488 0.0869,0.347991 -0.30617,0.990561 -1.36538,2.232267 -0.6445,0.755547 -2.79951,2.911249 -3.25271,3.253762 -0.84133,0.635847 -1.5077,0.816249 -2.13705,0.578544 -0.17921,-0.06769 -0.75948,-0.393374 -1.2895,-0.723743 -1.15661,-0.720943 -1.33158,-0.785609 -1.77603,-0.656404 -0.45589,0.13253 -1.17963,0.750752 -3.99919,3.416139 -2.55378,2.41414 -8.92327,8.880391 -9.34029,9.482188 -0.10348,0.14933 0.2672,-0.151268 1.09568,-0.888519 z"
     id="path949"
     inkscape:connector-curvature="0" />
</svg>
