<?xml version="1.0" encoding="UTF-8" standalone="no"?>
<!-- Created with Inkscape (http://www.inkscape.org/) -->

<svg
   xmlns:dc="http://purl.org/dc/elements/1.1/"
   xmlns:cc="http://creativecommons.org/ns#"
   xmlns:rdf="http://www.w3.org/1999/02/22-rdf-syntax-ns#"
   xmlns:svg="http://www.w3.org/2000/svg"
   xmlns="http://www.w3.org/2000/svg"
   xmlns:sodipodi="http://sodipodi.sourceforge.net/DTD/sodipodi-0.dtd"
   xmlns:inkscape="http://www.inkscape.org/namespaces/inkscape"
   version="1.1"
   id="svg2"
   width="78"
   height="78"
   viewBox="0 0 78 78"
   sodipodi:docname="Shape4.svg"
   inkscape:version="0.92.4 (5da689c313, 2019-01-14)">
  <metadata
     id="metadata8">
    <rdf:RDF>
      <cc:Work
         rdf:about="">
        <dc:format>image/svg+xml</dc:format>
        <dc:type
           rdf:resource="http://purl.org/dc/dcmitype/StillImage" />
        <dc:title />
      </cc:Work>
    </rdf:RDF>
  </metadata>
  <defs
     id="defs6" />
  <sodipodi:namedview
     pagecolor="#ffffff"
     bordercolor="#666666"
     borderopacity="1"
     objecttolerance="10"
     gridtolerance="10"
     guidetolerance="10"
     inkscape:pageopacity="0"
     inkscape:pageshadow="2"
     inkscape:window-width="1920"
     inkscape:window-height="1017"
     id="namedview4"
     showgrid="false"
     inkscape:zoom="7.375"
     inkscape:cx="7.310821"
     inkscape:cy="46.001932"
     inkscape:window-x="-8"
     inkscape:window-y="-8"
     inkscape:window-maximized="1"
     inkscape:current-layer="layer1" />
  <g
     inkscape:groupmode="layer"
     id="layer1"
     inkscape:label="Layer 1">
    <circle
       style="opacity:1;fill:#c19864;fill-opacity:1;fill-rule:nonzero;stroke:#c19864;stroke-width:0.1;stroke-linecap:square;stroke-miterlimit:4;stroke-dasharray:none;stroke-dashoffset:0;stroke-opacity:1"
       id="path817"
       cx="39.209652"
       cy="38.949215"
       r="38.644012" />
  </g>
  <path
     style="fill:#ffffff;stroke-width:1"
     d="m 25.4259,55.57938 c -0.321521,-0.160928 -0.648466,-0.600804 -0.648466,-0.872458 0,-0.101325 -0.03547,-0.277202 -0.07883,-0.390845 l -0.07883,-0.20662 h -1.042102 c -1.201781,0 -1.723494,-0.08122 -2.346316,-0.365279 -0.836141,-0.381348 -1.442426,-1.027568 -1.762762,-1.878852 -0.07735,-0.205572 -0.178893,-0.39962 -0.225639,-0.431231 -0.125133,-0.08459 -0.118504,-20.02538 0.0069,-20.289438 0.05048,-0.106392 0.204548,-0.432393 0.342415,-0.724436 0.48533,-1.028102 1.491494,-1.761584 2.638369,-1.923333 0.311297,-0.04392 1.917462,-0.08054 3.569257,-0.08142 2.663036,-0.0011 3.00882,-0.01604 3.052335,-0.129009 0.02697,-0.07007 0.0491,-0.606175 0.0491,-1.191332 0,-1.163778 0.10422,-1.717183 0.452207,-2.401331 0.275773,-0.542136 0.922234,-1.172093 1.528775,-1.48973 1.004149,-0.525851 0.71498,-0.509275 8.881697,-0.509275 5.197481,0 7.530589,0.02712 7.831414,0.09104 1.385723,0.294442 2.447711,1.187755 2.908186,2.446298 0.144574,0.395141 0.185275,0.725745 0.22313,1.812386 l 0.04633,1.329083 3.395975,0.04381 c 3.679157,0.04744 3.712695,0.05144 4.538178,0.531135 0.664203,0.386015 1.566492,1.583042 1.566492,2.07821 0,0.0692 0.03635,0.125815 0.08091,0.125815 0.05344,0 0.08091,3.423393 0.08091,10.109084 0,6.685686 -0.02736,10.10908 -0.08091,10.10908 -0.04445,0 -0.0812,0.06343 -0.0817,0.140959 -9.88e-4,0.215605 -0.351919,0.908862 -0.640277,1.265632 -0.357806,0.442685 -0.972379,0.885316 -1.522621,1.096605 -0.380774,0.146221 -0.696388,0.186991 -1.757062,0.22701 l -1.292903,0.04879 -0.05404,0.377868 c -0.07132,0.498864 -0.27035,0.818013 -0.638538,1.024169 -0.541481,0.303173 -1.281522,0.157633 -1.633569,-0.321279 -0.08407,-0.114421 -0.196714,-0.404406 -0.250207,-0.644399 l -0.0973,-0.436359 -12.485519,-0.02042 c -9.935041,-0.01626 -12.498658,2.11e-4 -12.549849,0.08055 -0.03537,0.0555 -0.0649,0.204756 -0.06559,0.33163 -0.004,0.844321 -1.064221,1.435826 -1.859336,1.03786 z m 32.079422,-4.323265 0.302021,-0.275722 0.01956,-9.611841 c 0.01541,-7.58767 -0.002,-9.653741 -0.08199,-9.810801 -0.05591,-0.109428 -0.225066,-0.281842 -0.375973,-0.383156 l -0.274371,-0.184204 -17.369846,0.0207 -17.369836,0.0207 -0.264333,0.263328 -0.264334,0.263328 -0.02144,9.604099 c -0.01551,6.969576 0.004,9.664221 0.06945,9.82328 0.04999,0.120542 0.205161,0.292114 0.344826,0.381255 0.25242,0.161101 0.35823,0.16209 17.619085,0.163436 l 17.365123,0.0011 z M 37.203493,48.015574 c -0.03023,-0.03015 -0.05502,-0.937961 -0.05502,-2.017385 0,-1.611148 -0.02035,-1.97037 -0.113585,-2.006012 -0.06243,-0.02388 -0.98121,-0.04992 -2.041628,-0.0579 l -1.928042,-0.01448 -0.02134,-2.638019 -0.02134,-2.638029 h 1.97219 c 1.542803,0 1.991631,-0.02334 2.061474,-0.107181 0.05838,-0.07007 0.09681,-0.788142 0.110977,-2.074174 l 0.02163,-1.966999 h 2.627838 2.627839 l 0.02163,1.966994 c 0.01423,1.286032 0.05265,2.004099 0.110977,2.074179 0.06984,0.08384 0.518671,0.107176 2.061474,0.107176 h 1.97219 l -0.02134,2.638028 -0.02134,2.638025 -1.933644,0.01664 c -1.063499,0.0091 -1.981594,0.0349 -2.040214,0.05736 -0.08338,0.03188 -0.111264,0.474929 -0.128196,2.037436 l -0.02163,1.996692 -2.593046,0.02123 c -1.426175,0.01173 -2.617801,-0.0038 -2.64805,-0.03355 z M 48.144984,27.317268 c 0,-1.276496 -0.103924,-1.567476 -0.676601,-1.894401 L 47.134276,25.232131 H 39.81676 32.499235 l -0.357085,0.20138 c -0.53743,0.303082 -0.685057,0.652898 -0.722063,1.711073 -0.01669,0.475907 -0.0069,0.956186 0.02065,1.067289 l 0.05088,0.202 h 8.326682 8.326693 z"
     id="path4520"
     inkscape:connector-curvature="0" />
  <g
     inkscape:groupmode="layer"
     id="layer2"
     inkscape:label="Layer 2" />
</svg>
