<?xml version="1.0" encoding="UTF-8" standalone="no"?>
<!-- Created with Inkscape (http://www.inkscape.org/) -->

<svg
   xmlns:osb="http://www.openswatchbook.org/uri/2009/osb"
   xmlns:dc="http://purl.org/dc/elements/1.1/"
   xmlns:cc="http://creativecommons.org/ns#"
   xmlns:rdf="http://www.w3.org/1999/02/22-rdf-syntax-ns#"
   xmlns:svg="http://www.w3.org/2000/svg"
   xmlns="http://www.w3.org/2000/svg"
   xmlns:sodipodi="http://sodipodi.sourceforge.net/DTD/sodipodi-0.dtd"
   xmlns:inkscape="http://www.inkscape.org/namespaces/inkscape"
   version="1.1"
   id="svg2"
   width="78"
   height="78"
   viewBox="0 0 78 78"
   sodipodi:docname="Shape3.svg"
   inkscape:version="0.92.4 (5da689c313, 2019-01-14)">
  <metadata
     id="metadata8">
    <rdf:RDF>
      <cc:Work
         rdf:about="">
        <dc:format>image/svg+xml</dc:format>
        <dc:type
           rdf:resource="http://purl.org/dc/dcmitype/StillImage" />
        <dc:title></dc:title>
      </cc:Work>
    </rdf:RDF>
  </metadata>
  <defs
     id="defs6">
    <linearGradient
       id="linearGradient2337"
       osb:paint="solid">
      <stop
         style="stop-color:#ff9864;stop-opacity:1;"
         offset="0"
         id="stop2335" />
    </linearGradient>
  </defs>
  <sodipodi:namedview
     pagecolor="#ffffff"
     bordercolor="#666666"
     borderopacity="1"
     objecttolerance="10"
     gridtolerance="10"
     guidetolerance="10"
     inkscape:pageopacity="0"
     inkscape:pageshadow="2"
     inkscape:window-width="1920"
     inkscape:window-height="1017"
     id="namedview4"
     showgrid="false"
     inkscape:zoom="8"
     inkscape:cx="6.9620844"
     inkscape:cy="39.208673"
     inkscape:window-x="-8"
     inkscape:window-y="-8"
     inkscape:window-maximized="1"
     inkscape:current-layer="svg2" />
  <path
     style="fill:#000000"
     d="M 31.24576,76.518202 C 15.79336,73.147403 4.1562003,60.935681 1.2796703,45.07259 -1.6103597,29.135014 7.0929603,12.064098 21.94576,4.5376171 40.34582,-4.7864 63.36625,2.4680511 73.02255,20.633498 85.42128,43.958003 71.82473,71.980001 45.77189,76.796129 38.81412,78.082344 38.37783,78.073997 31.24576,76.518202 Z M 47.96649,56.002076 c 1.80357,-1.439065 3.27923,-3.211126 3.27924,-3.937912 2e-5,-0.726785 0.67503,-1.996428 1.50003,-2.821428 0.825,-0.825 1.5,-2.537757 1.5,-3.806127 0,-1.26837 0.72244,-2.905696 1.60542,-3.638503 1.30121,-1.079912 1.47698,-2.467591 0.9276,-7.323466 -0.86336,-7.63109 -1.48035,-8.703314 -7.18084,-12.479162 -6.66168,-4.412515 -14.04268,-4.412515 -20.70436,0 -5.70049,3.775848 -6.31747,4.848072 -7.18083,12.479162 -0.54938,4.855875 -0.37362,6.243554 0.9276,7.323466 0.88298,0.732807 1.60541,2.370133 1.60541,3.638503 0,1.26837 0.675,2.981127 1.5,3.806127 0.825,0.825 1.5,2.061871 1.5,2.748602 0,0.686732 1.4625,2.476701 3.25,3.977709 4.56262,3.831343 12.69109,3.846711 17.47073,0.03303 z M 31.99576,54.576658 c -1.5125,-1.246407 -2.75,-2.988645 -2.75,-3.871641 0,-0.882995 -0.675,-1.864468 -1.5,-2.18105 -0.825,-0.316583 -1.5,-1.791794 -1.5,-3.278249 0,-1.486454 -0.72871,-3.507861 -1.61936,-4.492016 -1.33655,-1.476875 -1.46753,-2.800428 -0.75,-7.57874 0.82114,-5.468216 1.13913,-5.969656 5.73238,-9.039369 8.77492,-5.864364 8.72471,-5.950843 8.41006,14.487153 -0.30068,19.529937 -0.62883,20.399152 -6.02308,15.953912 z m 4.93921,-2.323531 c 0.34454,-0.897856 0.0685,-2.52591 -0.61349,-3.617897 -0.88933,-1.424049 -0.93396,-2.291398 -0.15782,-3.067535 1.36027,-1.360267 1.41852,-4.682102 0.0821,-4.682102 -0.55,0 -1,-1.125 -1,-2.5 0,-1.375 -0.45,-2.5 -1,-2.5 -1.36047,0 -1.26373,-3.604835 0.15782,-5.881103 1.53494,-2.457826 0.41319,-5.118897 -2.15782,-5.118897 -2.57101,0 -3.69276,2.661071 -2.15782,5.118897 0.6368,1.019681 1.15782,2.763885 1.15782,3.876008 0,1.766224 -0.25098,1.8653 -1.98383,0.783118 -1.6477,-1.029003 -2.27704,-0.94572 -3.71429,0.491526 -1.62252,1.622527 -1.62537,1.835526 -0.0457,3.415225 1.4657,1.465697 2.0135,1.508845 4.21278,0.331827 3.20553,-1.715546 4.24383,-0.717022 2.54846,2.450817 -1.03484,1.933606 -1.05869,2.777948 -0.11076,3.920132 0.94572,1.139526 0.93722,1.889537 -0.0391,3.452888 -1.00341,1.606711 -0.9907,2.306287 0.065,3.578361 1.69792,2.04587 3.96121,2.021478 4.75659,-0.05127 z m -3.68921,-1.367534 c 0,-0.55 0.45,-1 1,-1 0.55,0 1,0.45 1,1 0,0.55 -0.45,1 -1,1 -0.55,0 -1,-0.45 -1,-1 z m 0.5,-8 c 0.33992,-0.55 0.81648,-1 1.05902,-1 0.24254,0 0.44098,0.45 0.44098,1 0,0.55 -0.47656,1 -1.05901,1 -0.58246,0 -0.78091,-0.45 -0.44099,-1 z m -7.5,-6 c 0,-0.55 0.45,-1 1,-1 0.55,0 1,0.45 1,1 0,0.55 -0.45,1 -1,1 -0.55,0 -1,-0.45 -1,-1 z m 5,-9 c 0,-0.55 0.45,-1 1,-1 0.55,0 1,0.45 1,1 0,0.55 -0.45,1 -1,1 -0.55,0 -1,-0.45 -1,-1 z m 9.66667,28.333333 c -0.36667,-0.366666 -0.66667,-5.154557 -0.66667,-10.639757 0,-8.229732 0.29698,-10.190245 1.69889,-11.215348 1.4279,-1.044107 1.99776,-0.862306 3.57258,1.139758 1.88979,2.40248 7.72853,3.446562 7.72853,1.382014 0,-0.55 -1.13161,-1 -2.5147,-1 -2.85066,0 -6.47527,-4.92617 -6.48156,-8.809017 -0.002,-1.284004 -0.44765,-2.034661 -1.00374,-1.690983 -0.55,0.339919 -1.00689,1.603976 -1.01531,2.809017 -0.008,1.205041 -0.45153,2.865983 -0.98469,3.690983 -0.68311,1.057037 -0.97389,-0.34568 -0.98468,-4.75 -0.014,-5.693966 0.17213,-6.25 2.09167,-6.25 1.46969,0 1.93145,0.457442 1.52664,1.512366 -0.4616,1.20292 -0.0413,1.377085 2.05394,0.851202 2.59703,-0.651813 2.61079,-0.627626 0.97336,1.71014 -1.86409,2.661363 -2.16796,4.926292 -0.66093,4.926292 0.55,0 1,-0.659167 1,-1.464816 0,-0.805649 0.84336,-1.916169 1.87414,-2.467822 2.7332,-1.462769 4.76342,1.333764 5.62,7.741293 0.57951,4.334986 0.38744,5.664721 -1.04722,7.25 -2.14732,2.372759 -3.25059,2.428993 -5.61818,0.286357 -1.50876,-1.365412 -1.82874,-1.400406 -1.82874,-0.2 0,1.993532 2.02805,3.854988 4.2,3.854988 2.17452,0 2.40783,2.829525 0.3,3.638374 -0.825,0.316582 -1.5,1.342832 -1.5,2.280556 0,0.937724 -1.33178,2.689579 -2.9595,3.893012 -3.10507,2.295671 -4.2698,2.625421 -5.37383,1.521391 z m 4.76039,-9.11419 c -0.59012,-0.395529 -1.36349,-1.506643 -1.71861,-2.469143 -1.1969,-3.243998 -2.20797,-1.781328 -2.28258,3.302103 l -0.0741,5.050708 2.57413,-2.582263 c 1.64895,-1.65416 2.1885,-2.840732 1.50119,-3.301405 z"
     id="path851"
     inkscape:connector-curvature="0" />
  <path
     style="opacity:1;vector-effect:none;fill:#c19864;fill-opacity:1;stroke:#c19864;stroke-width:1;stroke-linecap:butt;stroke-linejoin:miter;stroke-miterlimit:4;stroke-dasharray:none;stroke-dashoffset:0;stroke-opacity:1"
     d="M 33.41956,76.826928 C 24.34228,74.914252 18.12479,71.699991 12.3694,65.944606 7.3688703,60.944079 3.8674703,54.787129 2.1444903,47.964902 -0.53698966,37.347393 1.2810003,27.131315 7.5185603,17.765816 18.32705,1.5371997 38.69729,-3.9057416 56.18278,4.7627037 c 4.6484,2.3044453 7.36807,4.2863843 10.76305,7.8434883 4.99875,5.237465 8.44699,11.98869 9.92928,19.440285 0.58687,2.950261 0.5867,11.224206 -3e-4,13.881356 -1.77926,8.05425 -5.24709,14.55121 -10.65158,19.955701 -5.88069,5.880688 -13.14766,9.489851 -22.348,11.099199 -3.75141,0.656205 -6.81892,0.610495 -10.45567,-0.155805 z M 42.53304,58.6113 c 3.75556,-0.796846 8.18882,-4.086238 8.85836,-6.572729 0.18207,-0.676161 0.77713,-1.790722 1.32236,-2.476804 0.98205,-1.235742 1.4426,-2.471133 1.8194,-4.880407 0.1097,-0.701468 0.63147,-1.743654 1.19332,-2.383565 1.46736,-1.671232 1.70372,-2.930384 1.28892,-6.86633 -0.7574,-7.186819 -1.6072,-9.319042 -4.64603,-11.65737 -5.95016,-4.578541 -11.83731,-6.12269 -17.61028,-4.619023 -4.39173,1.143901 -10.02998,5.003211 -11.51231,7.880029 -0.863,1.674869 -1.5784,5.521139 -1.82347,9.803749 l -0.19858,3.470339 1.17366,1.402628 c 1.04324,1.246757 1.89033,3.567657 1.89033,5.1792 0,0.239186 0.58993,1.304097 1.31096,2.366467 0.72104,1.062373 1.40091,2.341068 1.51083,2.84155 0.24605,1.120245 3.45649,4.387573 5.17026,5.261873 2.94741,1.503659 6.82801,1.976947 10.25227,1.250393 z"
     id="path853"
     inkscape:connector-curvature="0" />
  <path
     style="opacity:1;vector-effect:none;fill:#c19864;fill-opacity:1;stroke:#c19864;stroke-width:1;stroke-linecap:butt;stroke-linejoin:miter;stroke-miterlimit:4;stroke-dasharray:none;stroke-dashoffset:0;stroke-opacity:1"
     d="m 41.73332,56.728844 c -0.29095,-0.09536 -0.73429,-0.409796 -0.84361,-0.598328 -0.20722,-0.357327 -0.40075,-2.312921 -0.5397,-5.453308 -0.073,-1.650288 -0.073,-9.390474 5e-5,-10.700212 0.21942,-3.935237 0.60506,-5.038806 2.05902,-5.8923 0.63941,-0.375345 1.01762,-0.414081 1.50981,-0.154634 0.31188,0.164405 0.89702,0.729684 1.38449,1.337515 0.63562,0.792559 1.26341,1.294181 2.20284,1.76013 2.03052,1.007126 4.48979,1.281284 5.3811,0.599884 0.21566,-0.16487 0.36148,-0.437176 0.36148,-0.675035 0,-0.308323 -0.14345,-0.498425 -0.51642,-0.684364 C 52.25044,36.027922 51.744,35.91972 50.86103,35.86837 50.40099,35.84161 50.12991,35.80492 49.92919,35.742226 48.17469,35.194229 46.2386,33.147156 45.13107,30.669061 44.5855,29.448354 44.35239,28.503546 44.28299,27.231763 44.22419,26.1548 44.0882,25.652254 43.78686,25.398691 c -0.49848,-0.419445 -1.18235,0.407201 -1.46519,1.771101 -0.0377,0.18178 -0.0859,0.637262 -0.10718,1.012182 -0.075,1.323341 -0.34009,2.426499 -0.8061,3.354471 -0.4346,0.865442 -0.69648,0.867712 -0.88197,0.0076 -0.16618,-0.77052 -0.24828,-2.372601 -0.24852,-4.849404 -3.5e-4,-3.789101 0.15406,-4.937884 0.73418,-5.461985 0.27786,-0.251033 0.50063,-0.301367 1.32994,-0.300501 0.8233,8.6e-4 1.11961,0.06061 1.38488,0.279271 0.30979,0.255356 0.34073,0.559541 0.12307,1.210103 -0.23467,0.701388 -0.1819,0.992689 0.19845,1.095546 0.31533,0.08528 0.82311,0.0082 2.30102,-0.349125 1.34129,-0.324322 1.65254,-0.340302 1.65254,-0.08484 0,0.16964 -0.25499,0.614442 -0.85806,1.496773 -0.69602,1.018326 -0.99879,1.516432 -1.27288,2.094106 -0.83821,1.766588 -0.78938,3.011512 0.12558,3.201456 0.37759,0.07839 0.6131,-0.0049 0.88379,-0.312373 0.22126,-0.251363 0.33359,-0.564246 0.37639,-1.048369 0.0596,-0.673694 0.31971,-1.188759 0.90578,-1.793326 0.7692,-0.793482 1.797,-1.22657 2.61889,-1.10354 1.21813,0.182342 2.25918,1.470262 2.99959,3.71089 0.66267,2.005386 1.21211,5.498274 1.22007,7.756278 0.005,1.332089 -0.0909,1.859128 -0.48059,2.650525 -0.43717,0.887728 -1.7989,2.303355 -2.63319,2.737399 -0.73476,0.382265 -1.31755,0.383851 -2.07319,0.0056 -0.52716,-0.263851 -0.88408,-0.527421 -1.80181,-1.330535 -0.89025,-0.77907 -1.19129,-0.985171 -1.439,-0.985171 -0.0707,0 -0.15817,0.03281 -0.19446,0.07291 -0.14431,0.159458 -0.19548,0.758648 -0.10986,1.286339 0.21944,1.352454 1.37411,2.629534 2.84842,3.150397 0.36064,0.127412 0.75369,0.198064 1.32865,0.238832 0.46002,0.03262 0.57089,0.05503 0.79798,0.161298 0.14506,0.06788 0.34871,0.201739 0.45256,0.297466 0.57264,0.527844 0.6401,1.503363 0.15577,2.252715 -0.23277,0.360129 -0.53754,0.60515 -1.08242,0.870211 -0.40272,0.195904 -0.51921,0.276039 -0.76455,0.525952 -0.46488,0.473523 -0.70239,0.997279 -0.76904,1.695893 -0.0599,0.627445 -0.2878,1.126157 -0.86671,1.896399 -0.80386,1.069538 -1.7933,1.929537 -3.53619,3.073551 -1.47718,0.969603 -2.38963,1.276868 -3.10018,1.043975 z m 3.21792,-7.146446 c 0.64075,-0.758948 0.97283,-1.353573 1.01524,-1.817931 0.0288,-0.315568 -0.0486,-0.473141 -0.36476,-0.742164 -0.6949,-0.591332 -1.2108,-1.368119 -1.68552,-2.537867 -0.39908,-0.983373 -0.74445,-1.499234 -1.05612,-1.577458 -0.55955,-0.140439 -0.96566,1.036518 -1.1375,3.296662 -0.0483,0.63563 -0.12309,4.214455 -0.12108,5.795601 l 10e-4,1.032839 1.50853,-1.528601 c 0.82969,-0.840731 1.65764,-1.705217 1.83989,-1.921081 z"
     id="path855"
     inkscape:connector-curvature="0" />
  <path
     style="opacity:1;vector-effect:none;fill:#c19864;fill-opacity:1;stroke:#c19864;stroke-width:1;stroke-linecap:butt;stroke-linejoin:miter;stroke-miterlimit:4;stroke-dasharray:none;stroke-dashoffset:0;stroke-opacity:1"
     d="m 35.26352,56.708081 c -0.6344,-0.159879 -1.5569,-0.759319 -3.04332,-1.97753 -1.67667,-1.374145 -2.8313,-2.939493 -2.94371,-3.990842 -0.10945,-1.023576 -0.5987,-1.759966 -1.46711,-2.20816 -0.44773,-0.231077 -0.74118,-0.52335 -0.97805,-0.974127 -0.35854,-0.682305 -0.50751,-1.284705 -0.56174,-2.271634 -0.0581,-1.058018 -0.22426,-1.838444 -0.58478,-2.747352 -0.31572,-0.795941 -0.60521,-1.268266 -1.28465,-2.096002 -0.3331,-0.405811 -0.65226,-1.027537 -0.76912,-1.498277 -0.2836,-1.14242 -0.21562,-2.531711 0.28909,-5.907839 0.69236,-4.631398 1.15392,-5.580423 3.61098,-7.42462 0.79718,-0.598339 4.44193,-3.035336 5.38428,-3.600107 2.23747,-1.340967 3.26063,-1.568512 3.96559,-0.88193 0.73025,0.711218 1.03503,2.227523 1.16838,5.812907 0.0893,2.40186 -0.0324,13.554994 -0.21186,19.417373 -0.25997,8.49043 -0.83129,10.787324 -2.57398,10.34814 z m 0.32374,-2.994684 c 0.70582,-0.265599 1.27772,-0.965403 1.44891,-1.772949 0.1138,-0.536841 0.0531,-1.356349 -0.15174,-2.048198 -0.14113,-0.476731 -0.28236,-0.801702 -0.55873,-1.28571 -0.54895,-0.96138 -0.69542,-1.379984 -0.66914,-1.912347 0.0202,-0.410276 0.14146,-0.669006 0.51814,-1.106 0.68082,-0.789822 0.98748,-1.597949 1.03213,-2.719885 0.027,-0.678403 -0.0245,-1.05921 -0.19086,-1.410329 -0.16594,-0.350303 -0.38167,-0.529183 -0.70742,-0.586561 -0.31575,-0.05562 -0.48112,-0.194578 -0.66725,-0.560693 -0.21766,-0.428154 -0.32094,-0.942164 -0.36587,-1.821018 -0.0221,-0.431726 -0.0687,-0.939486 -0.10352,-1.128355 -0.066,-0.357871 -0.23121,-0.861416 -0.34111,-1.04004 -0.11809,-0.191926 -0.35065,-0.409869 -0.45856,-0.42974 -0.0589,-0.01084 -0.17713,-0.03117 -0.26283,-0.04519 -0.31507,-0.05152 -0.58233,-0.407868 -0.72067,-0.960918 -0.0983,-0.393016 -0.0951,-1.492976 0.006,-2.055403 0.18532,-1.030936 0.50264,-1.907715 1.00865,-2.787005 0.16283,-0.282944 0.35395,-0.664062 0.42471,-0.846928 0.52853,-1.365798 0.30009,-2.771536 -0.58329,-3.589386 -0.29754,-0.27547 -0.57869,-0.439756 -1.01244,-0.591597 -0.30852,-0.108006 -0.37447,-0.115736 -0.99152,-0.11623 -0.63399,-5.08e-4 -0.67557,0.0047 -1.01705,0.126514 -0.69704,0.248724 -1.2244,0.704199 -1.52612,1.318088 -0.24323,0.49487 -0.30445,0.777233 -0.30458,1.404661 -1.6e-4,0.83343 0.17588,1.403195 0.72997,2.362629 0.50031,0.86629 0.95036,2.231241 1.06676,3.235358 0.054,0.465702 0.0299,1.35784 -0.0437,1.616777 -0.15784,0.555563 -0.53345,0.495936 -1.83363,-0.291091 -0.95751,-0.579598 -1.35708,-0.728009 -1.87873,-0.697811 -0.59697,0.03456 -1.03684,0.315008 -1.99169,1.269866 -0.8739,0.873898 -1.12868,1.247701 -1.12868,1.655976 0,0.401886 0.31687,0.841639 1.28012,1.776546 0.8796,0.85372 1.34027,1.100394 1.97889,1.059626 0.47572,-0.03037 0.91078,-0.187824 1.87976,-0.680312 1.65629,-0.841814 2.47775,-1.085931 3.06358,-0.910413 0.18956,0.0568 0.40546,0.263917 0.47491,0.455618 0.12468,0.34412 0.009,1.05773 -0.28906,1.776759 -0.0811,0.195998 -0.32414,0.7079 -0.54001,1.137562 -0.60707,1.208276 -0.78842,1.856829 -0.68847,2.462099 0.0597,0.361627 0.25938,0.783522 0.54102,1.143163 0.73879,0.943404 0.9237,1.456894 0.76617,2.127648 -0.0794,0.338316 -0.37539,0.975557 -0.6737,1.450698 -0.62243,0.991364 -0.84364,1.704527 -0.70942,2.28703 0.19179,0.832316 1.28305,2.071166 2.23667,2.539162 0.66229,0.325026 1.40087,0.396233 1.95338,0.188325 z"
     id="path857"
     inkscape:connector-curvature="0" />
  <path
     style="opacity:1;vector-effect:none;fill:#c19864;fill-opacity:1;stroke:#c19864;stroke-width:1;stroke-linecap:butt;stroke-linejoin:miter;stroke-miterlimit:4;stroke-dasharray:none;stroke-dashoffset:0;stroke-opacity:0"
     d="m 27.02448,37.846068 c -0.27297,-0.06431 -0.53765,-0.278481 -0.66567,-0.538632 -0.0607,-0.123243 -0.0715,-0.187439 -0.0715,-0.422828 0,-0.235389 0.0109,-0.299585 0.0715,-0.422828 0.29107,-0.591512 1.05391,-0.742307 1.53426,-0.30329 0.0947,0.08652 0.19208,0.212638 0.24067,0.311581 0.0699,0.142389 0.0816,0.201833 0.0816,0.414537 0,0.212703 -0.0117,0.272148 -0.0816,0.414536 -0.2047,0.416855 -0.67568,0.649073 -1.10926,0.546924 z"
     id="path859"
     inkscape:connector-curvature="0" />
  <path
     style="opacity:1;vector-effect:none;fill:#c19864;fill-opacity:1;stroke:#ddc480;stroke-width:1;stroke-linecap:butt;stroke-linejoin:miter;stroke-miterlimit:4;stroke-dasharray:none;stroke-dashoffset:0;stroke-opacity:0"
     d="m 31.91491,28.786341 c -0.12854,-0.04631 -0.24011,-0.08459 -0.24794,-0.08508 -0.008,-4.84e-4 -0.0933,-0.109992 -0.18989,-0.243351 -0.29969,-0.413716 -0.21112,-1.060157 0.18379,-1.341359 0.40928,-0.291427 0.90846,-0.256552 1.25252,0.08751 0.49254,0.492543 0.34663,1.270403 -0.29277,1.560806 -0.28454,0.12923 -0.39709,0.132655 -0.70571,0.02147 z"
     id="path861"
     inkscape:connector-curvature="0" />
  <path
     style="opacity:1;vector-effect:none;fill:#c19864;fill-opacity:1;stroke:#ddc480;stroke-width:1;stroke-linecap:butt;stroke-linejoin:miter;stroke-miterlimit:4;stroke-dasharray:none;stroke-dashoffset:0;stroke-opacity:0"
     d="m 33.76174,43.722318 c -0.28245,-0.282447 -0.10644,-0.81694 0.46187,-1.402542 0.46495,-0.479101 0.67079,-0.513788 0.84688,-0.142711 0.16493,0.347565 0.18102,0.831199 0.037,1.113421 -0.17934,0.351541 -0.4268,0.504414 -0.86129,0.53208 -0.30793,0.01961 -0.37944,0.0048 -0.4845,-0.100248 z"
     id="path863"
     inkscape:connector-curvature="0" />
  <path
     style="opacity:1;vector-effect:none;fill:#c19864;fill-opacity:0;stroke:#ddc480;stroke-width:1;stroke-linecap:butt;stroke-linejoin:miter;stroke-miterlimit:4;stroke-dasharray:none;stroke-dashoffset:0;stroke-opacity:0"
     d="m 33.75076,51.704311 c -0.10842,-0.07307 -0.25924,-0.224245 -0.33515,-0.335951 -0.1147,-0.168784 -0.13412,-0.258902 -0.11493,-0.53334 0.0701,-1.001762 1.36605,-1.264115 1.80146,-0.364674 0.22754,0.470029 0.0426,1.044098 -0.4121,1.279236 -0.25949,0.134186 -0.70483,0.112721 -0.93928,-0.04527 z"
     id="path865"
     inkscape:connector-curvature="0" />
  <path
     style="opacity:1;vector-effect:none;fill:none;fill-opacity:1;stroke:#ddc480;stroke-width:1;stroke-linecap:butt;stroke-linejoin:miter;stroke-miterlimit:4;stroke-dasharray:none;stroke-dashoffset:0;stroke-opacity:0"
     d="m 33.75076,51.704311 c -0.10842,-0.07307 -0.25924,-0.224245 -0.33515,-0.335951 -0.1147,-0.168784 -0.13412,-0.258902 -0.11493,-0.53334 0.0701,-1.001762 1.36605,-1.264115 1.80146,-0.364674 0.22754,0.470029 0.0426,1.044098 -0.4121,1.279236 -0.25949,0.134186 -0.70483,0.112721 -0.93928,-0.04527 z"
     id="path867"
     inkscape:connector-curvature="0" />
  <path
     style="opacity:1;vector-effect:none;fill:#c19864;fill-opacity:0;stroke:#ddc480;stroke-width:1;stroke-linecap:butt;stroke-linejoin:miter;stroke-miterlimit:4;stroke-dasharray:none;stroke-dashoffset:0;stroke-opacity:0"
     d="m 41.58789,57.174398 c -0.47477,-0.166173 -0.95419,-0.526063 -1.11146,-0.834351 -0.21406,-0.419585 -0.36756,-1.616842 -0.53987,-4.210756 -0.1074,-1.616786 -0.10673,-12.071869 8.5e-4,-13.262747 0.27622,-3.057704 0.71621,-4.179647 1.96725,-5.016399 0.5671,-0.379299 0.98869,-0.534089 1.45465,-0.534089 0.69261,0 1.23115,0.392149 2.39504,1.74399 0.62203,0.72249 1.0975,1.086989 1.99406,1.52867 1.17146,0.577108 2.16396,0.851629 3.30108,0.913063 1.01982,0.0551 1.69436,-0.16119 1.69436,-0.543286 0,-0.10256 -0.0665,-0.168064 -0.27752,-0.273256 -0.38591,-0.192392 -0.70885,-0.262001 -1.54289,-0.332563 -0.90081,-0.07621 -1.26771,-0.167498 -1.84357,-0.458695 -0.69899,-0.353452 -1.27281,-0.785371 -1.94493,-1.463965 -1.29783,-1.310312 -2.29833,-2.943333 -2.86052,-4.668931 -0.26409,-0.810612 -0.38422,-1.456594 -0.46888,-2.521352 -0.0612,-0.769252 -0.1815,-1.362515 -0.28999,-1.429562 -0.0704,-0.04352 -0.31979,0.286435 -0.46465,0.614812 -0.18587,0.421333 -0.29016,0.958871 -0.38479,1.983274 -0.13317,1.441687 -0.3502,2.32754 -0.79446,3.242845 -0.42843,0.882695 -0.79679,1.153836 -1.26013,0.92756 -0.62146,-0.30349 -0.78324,-1.517379 -0.78246,-5.870961 7.3e-4,-4.086313 0.1411,-5.094636 0.80113,-5.754668 0.37271,-0.372703 0.64058,-0.455869 1.54678,-0.48023 0.9455,-0.02542 1.34687,0.04432 1.72806,0.300251 0.5325,0.357515 0.67087,0.904614 0.4262,1.685132 -0.13396,0.427356 -0.14846,0.633321 -0.0446,0.633208 0.1593,-1.76e-4 1.05427,-0.178272 1.91346,-0.380773 0.49808,-0.117394 1.11825,-0.227771 1.37814,-0.245284 0.45871,-0.03091 0.47801,-0.02691 0.65933,0.136476 0.42646,0.384296 0.31411,0.721176 -0.80422,2.411412 -0.82999,1.25445 -1.0343,1.61046 -1.31132,2.284935 -0.49563,1.206766 -0.47645,2.103343 0.045,2.103343 0.14887,0 0.23507,-0.04411 0.34767,-0.177936 0.1595,-0.189556 0.21585,-0.370451 0.31661,-1.016478 0.10491,-0.672597 0.40426,-1.194794 1.05836,-1.846267 0.43009,-0.428358 0.66814,-0.613357 1.02724,-0.798315 2.69085,-1.385975 4.80158,0.669894 5.86095,5.708634 0.52957,2.51881 0.81222,5.4959 0.65734,6.923504 -0.0714,0.658106 -0.2454,1.278786 -0.49855,1.778348 -0.35218,0.695009 -1.48877,1.977274 -2.258,2.547421 -0.77783,0.576519 -1.53551,0.806236 -2.22338,0.674091 -0.78232,-0.150288 -1.40678,-0.541957 -2.96464,-1.859452 -0.38947,-0.329378 -0.72457,-0.598868 -0.74466,-0.598868 -0.0201,0 -0.0224,0.226686 -0.005,0.503747 0.0275,0.440699 0.0625,0.56684 0.28008,1.007852 0.1974,0.400206 0.34616,0.600439 0.72174,0.971514 0.79976,0.790158 1.42644,1.072663 2.69967,1.216999 1.08814,0.123353 1.57293,0.396291 1.95475,1.100544 0.19404,0.3579 0.20064,0.391225 0.20064,1.013979 0,0.612395 -0.01,0.663387 -0.19581,1.041661 -0.26021,0.528547 -0.68126,0.931116 -1.35163,1.29227 -0.87954,0.47385 -1.21256,0.953624 -1.35055,1.945682 -0.10415,0.748811 -0.36272,1.291413 -1.03504,2.172017 -0.74033,0.969667 -1.81139,1.904016 -3.36345,2.934112 -1.76339,1.170359 -2.86094,1.536217 -3.71342,1.237838 z m 2.89405,-7.79128 c 0.57437,-0.643981 1.01505,-1.366595 1.01649,-1.666834 3.3e-4,-0.0686 -0.14955,-0.265839 -0.35518,-0.467409 -0.70678,-0.692837 -1.14829,-1.374628 -1.66289,-2.567884 -0.32939,-0.763784 -0.59898,-1.233704 -0.70041,-1.220893 -0.1607,0.0203 -0.43444,1.230596 -0.55341,2.446803 -0.0582,0.595454 -0.17586,5.792946 -0.13312,5.882647 0.0193,0.04053 1.86086,-1.814822 2.38852,-2.40643 z"
     id="path869"
     inkscape:connector-curvature="0" />
  <path
     style="opacity:1;vector-effect:none;fill:#c19864;fill-opacity:0;stroke:#ddc480;stroke-width:1;stroke-linecap:butt;stroke-linejoin:miter;stroke-miterlimit:4;stroke-dasharray:none;stroke-dashoffset:0;stroke-opacity:0"
     d="m 41.58789,57.174398 c -0.47477,-0.166173 -0.95419,-0.526063 -1.11146,-0.834351 -0.21406,-0.419585 -0.36756,-1.616842 -0.53987,-4.210756 -0.1074,-1.616786 -0.10673,-12.071869 8.5e-4,-13.262747 0.27622,-3.057704 0.71621,-4.179647 1.96725,-5.016399 0.5671,-0.379299 0.98869,-0.534089 1.45465,-0.534089 0.69261,0 1.23115,0.392149 2.39504,1.74399 0.62203,0.72249 1.0975,1.086989 1.99406,1.52867 1.17146,0.577108 2.16396,0.851629 3.30108,0.913063 1.01982,0.0551 1.69436,-0.16119 1.69436,-0.543286 0,-0.10256 -0.0665,-0.168064 -0.27752,-0.273256 -0.38591,-0.192392 -0.70885,-0.262001 -1.54289,-0.332563 -0.90081,-0.07621 -1.26771,-0.167498 -1.84357,-0.458695 -0.69899,-0.353452 -1.27281,-0.785371 -1.94493,-1.463965 -1.29783,-1.310312 -2.29833,-2.943333 -2.86052,-4.668931 -0.26409,-0.810612 -0.38422,-1.456594 -0.46888,-2.521352 -0.0612,-0.769252 -0.1815,-1.362515 -0.28999,-1.429562 -0.0704,-0.04352 -0.31979,0.286435 -0.46465,0.614812 -0.18587,0.421333 -0.29016,0.958871 -0.38479,1.983274 -0.13317,1.441687 -0.3502,2.32754 -0.79446,3.242845 -0.42843,0.882695 -0.79679,1.153836 -1.26013,0.92756 -0.62146,-0.30349 -0.78324,-1.517379 -0.78246,-5.870961 7.3e-4,-4.086313 0.1411,-5.094636 0.80113,-5.754668 0.37271,-0.372703 0.64058,-0.455869 1.54678,-0.48023 0.9455,-0.02542 1.34687,0.04432 1.72806,0.300251 0.5325,0.357515 0.67087,0.904614 0.4262,1.685132 -0.13396,0.427356 -0.14846,0.633321 -0.0446,0.633208 0.1593,-1.76e-4 1.05427,-0.178272 1.91346,-0.380773 0.49808,-0.117394 1.11825,-0.227771 1.37814,-0.245284 0.45871,-0.03091 0.47801,-0.02691 0.65933,0.136476 0.42646,0.384296 0.31411,0.721176 -0.80422,2.411412 -0.82999,1.25445 -1.0343,1.61046 -1.31132,2.284935 -0.49563,1.206766 -0.47645,2.103343 0.045,2.103343 0.14887,0 0.23507,-0.04411 0.34767,-0.177936 0.1595,-0.189556 0.21585,-0.370451 0.31661,-1.016478 0.10491,-0.672597 0.40426,-1.194794 1.05836,-1.846267 0.43009,-0.428358 0.66814,-0.613357 1.02724,-0.798315 2.69085,-1.385975 4.80158,0.669894 5.86095,5.708634 0.52957,2.51881 0.81222,5.4959 0.65734,6.923504 -0.0714,0.658106 -0.2454,1.278786 -0.49855,1.778348 -0.35218,0.695009 -1.48877,1.977274 -2.258,2.547421 -0.77783,0.576519 -1.53551,0.806236 -2.22338,0.674091 -0.78232,-0.150288 -1.40678,-0.541957 -2.96464,-1.859452 -0.38947,-0.329378 -0.72457,-0.598868 -0.74466,-0.598868 -0.0201,0 -0.0224,0.226686 -0.005,0.503747 0.0275,0.440699 0.0625,0.56684 0.28008,1.007852 0.1974,0.400206 0.34616,0.600439 0.72174,0.971514 0.79976,0.790158 1.42644,1.072663 2.69967,1.216999 1.08814,0.123353 1.57293,0.396291 1.95475,1.100544 0.19404,0.3579 0.20064,0.391225 0.20064,1.013979 0,0.612395 -0.01,0.663387 -0.19581,1.041661 -0.26021,0.528547 -0.68126,0.931116 -1.35163,1.29227 -0.87954,0.47385 -1.21256,0.953624 -1.35055,1.945682 -0.10415,0.748811 -0.36272,1.291413 -1.03504,2.172017 -0.74033,0.969667 -1.81139,1.904016 -3.36345,2.934112 -1.76339,1.170359 -2.86094,1.536217 -3.71342,1.237838 z m 2.89405,-7.79128 c 0.57437,-0.643981 1.01505,-1.366595 1.01649,-1.666834 3.3e-4,-0.0686 -0.14955,-0.265839 -0.35518,-0.467409 -0.70678,-0.692837 -1.14829,-1.374628 -1.66289,-2.567884 -0.32939,-0.763784 -0.59898,-1.233704 -0.70041,-1.220893 -0.1607,0.0203 -0.43444,1.230596 -0.55341,2.446803 -0.0582,0.595454 -0.17586,5.792946 -0.13312,5.882647 0.0193,0.04053 1.86086,-1.814822 2.38852,-2.40643 z"
     id="path871"
     inkscape:connector-curvature="0" />
  <path
     style="opacity:1;vector-effect:none;fill:#c19864;fill-opacity:0;stroke:#ddc480;stroke-width:1;stroke-linecap:butt;stroke-linejoin:miter;stroke-miterlimit:4;stroke-dasharray:none;stroke-dashoffset:0;stroke-opacity:0"
     d="m 42.14349,49.938308 c 0.0673,-3.715651 0.16768,-4.992029 0.47089,-5.98787 l 0.15097,-0.495808 0.13947,0.174464 c 0.0767,0.09595 0.30078,0.542549 0.49794,0.992431 0.57525,1.312671 0.97013,1.929465 1.68207,2.62735 0.20563,0.20157 0.35551,0.39881 0.35518,0.467409 -9.6e-4,0.198508 -0.28192,0.737897 -0.61481,1.180318 -0.17338,0.230422 -0.85508,0.966591 -1.51488,1.635934 l -1.19964,1.216985 z"
     id="path873"
     inkscape:connector-curvature="0" />
  <path
     style="opacity:1;vector-effect:none;fill:#c19864;fill-opacity:1;fill-rule:nonzero;stroke:#ddc480;stroke-width:1;stroke-linecap:butt;stroke-linejoin:miter;stroke-miterlimit:4;stroke-dasharray:none;stroke-dashoffset:0;stroke-opacity:0"
     d="m 34.15043,51.879563 c -0.3365,-0.03727 -0.6198,-0.226127 -0.78219,-0.521417 -0.11361,-0.206572 -0.14819,-0.45415 -0.0963,-0.689453 0.072,-0.326694 0.31365,-0.602129 0.63215,-0.720607 0.0502,-0.01867 0.14393,-0.04233 0.20338,-0.05133 0.065,-0.0098 0.21178,-0.01 0.27539,-2.62e-4 0.2907,0.04443 0.53478,0.199895 0.69719,0.444076 0.0657,0.09875 0.12173,0.235391 0.14422,0.351562 0.0143,0.07397 0.0179,0.112636 0.0179,0.19336 0,0.08072 -0.004,0.119387 -0.0179,0.193359 -0.0209,0.108005 -0.0738,0.241169 -0.13255,0.333976 -0.15879,0.250635 -0.41267,0.416699 -0.70496,0.461104 -0.0481,0.0073 -0.19053,0.01071 -0.23632,0.0056 z"
     id="path875"
     inkscape:connector-curvature="0" />
  <path
     style="opacity:1;vector-effect:none;fill:#c19864;fill-opacity:0;stroke:#ddc480;stroke-width:1;stroke-linecap:butt;stroke-linejoin:miter;stroke-miterlimit:4;stroke-dasharray:none;stroke-dashoffset:0;stroke-opacity:0"
     d="m 34.11527,51.873755 c -0.19955,-0.03215 -0.36481,-0.105937 -0.50977,-0.227616 -0.1609,-0.135063 -0.28539,-0.33778 -0.32963,-0.536754 -0.0191,-0.08573 -0.0236,-0.128194 -0.0237,-0.221942 -8e-5,-0.09225 0.003,-0.129646 0.0197,-0.207311 0.0435,-0.20887 0.16023,-0.40567 0.32407,-0.54653 0.14376,-0.123595 0.30091,-0.197302 0.49597,-0.232626 0.0474,-0.0086 0.19613,-0.01211 0.25731,-0.0061 0.32998,0.03235 0.63467,0.243621 0.78408,0.543678 0.0827,0.166055 0.11395,0.318197 0.10465,0.509447 -0.008,0.163462 -0.0676,0.342894 -0.16007,0.481848 -0.10209,0.153335 -0.23319,0.268633 -0.39619,0.348444 -0.0955,0.04675 -0.17702,0.07346 -0.2793,0.09151 -0.0528,0.0093 -0.23806,0.01187 -0.28711,0.004 z"
     id="path2623"
     inkscape:connector-curvature="0" />
  <path
     style="opacity:1;vector-effect:none;fill:#c19864;fill-opacity:0;stroke:#ddc480;stroke-width:1;stroke-linecap:butt;stroke-linejoin:miter;stroke-miterlimit:4;stroke-dasharray:none;stroke-dashoffset:0;stroke-opacity:0"
     d="m 32.14326,28.879045 c -0.10888,-0.01175 -0.23143,-0.04758 -0.33203,-0.09709 -0.0578,-0.02847 -0.12982,-0.07046 -0.12078,-0.07046 0.005,0 0.0962,0.03085 0.21179,0.07182 0.11023,0.03908 0.17089,0.05726 0.23901,0.07163 0.0675,0.01424 0.16474,0.01495 0.22662,0.0017 0.11624,-0.02496 0.29139,-0.100013 0.40039,-0.171576 0.2244,-0.147317 0.37653,-0.370406 0.42377,-0.621445 0.0232,-0.123004 0.021,-0.257456 -0.006,-0.377489 -0.0775,-0.343974 -0.36027,-0.642544 -0.69553,-0.734429 -0.0908,-0.0249 -0.13704,-0.03086 -0.23976,-0.03093 -0.10047,-7.6e-5 -0.14168,0.0045 -0.22577,0.02515 -0.1298,0.03185 -0.2734,0.100315 -0.38252,0.182389 -0.26255,0.197467 -0.39498,0.58136 -0.32719,0.948454 0.0228,0.123565 0.0701,0.244394 0.13371,0.341797 0.0263,0.0402 0.10103,0.142232 0.15673,0.213867 0.0155,0.01987 0.0266,0.03613 0.0248,0.03613 -0.005,0 -0.0777,-0.06567 -0.10828,-0.098 -0.3104,-0.328212 -0.36298,-0.818896 -0.12874,-1.201493 0.0798,-0.13036 0.19761,-0.249402 0.32799,-0.331471 0.0439,-0.02764 0.13222,-0.07087 0.18334,-0.08974 0.0506,-0.0187 0.14443,-0.04231 0.20338,-0.05119 0.058,-0.0087 0.20344,-0.0099 0.25976,-0.0021 0.29667,0.04121 0.55149,0.201228 0.71315,0.447833 0.16097,0.245547 0.20495,0.549438 0.12013,0.830078 -0.10128,0.335115 -0.37745,0.597815 -0.71609,0.681158 -0.0311,0.0077 -0.0751,0.01675 -0.0977,0.02018 -0.0495,0.0075 -0.19419,0.01066 -0.24415,0.0053 z"
     id="path2625"
     inkscape:connector-curvature="0" />
  <path
     style="opacity:1;vector-effect:none;fill:#c19864;fill-opacity:0;stroke:#ddc480;stroke-width:1;stroke-linecap:butt;stroke-linejoin:miter;stroke-miterlimit:4;stroke-dasharray:none;stroke-dashoffset:0;stroke-opacity:0"
     d="m 32.18637,28.859624 c -0.0769,-0.01059 -0.13518,-0.02827 -0.42779,-0.129698 -0.10973,-0.03803 -0.0935,-0.02627 -0.16562,-0.119996 -0.0656,-0.08526 -0.12441,-0.166244 -0.14907,-0.205297 -0.0634,-0.100482 -0.11276,-0.23742 -0.13285,-0.368922 -0.009,-0.05662 -0.0117,-0.186526 -0.006,-0.248736 0.0209,-0.22393 0.10683,-0.423775 0.24592,-0.57217 0.0985,-0.105076 0.26895,-0.205982 0.42684,-0.252671 0.0876,-0.0259 0.14937,-0.03575 0.24194,-0.03856 0.0816,-0.0025 0.13615,0.0018 0.20971,0.01665 0.1346,0.02707 0.28683,0.09934 0.39734,0.188609 0.0406,0.03281 0.1158,0.106904 0.15127,0.149071 0.0957,0.113716 0.17263,0.267424 0.2038,0.406964 0.0281,0.125717 0.0295,0.279001 0.004,0.39577 -0.0638,0.288933 -0.25169,0.52522 -0.5277,0.663528 -0.10106,0.05064 -0.21074,0.09214 -0.28622,0.108277 -0.0432,0.0092 -0.14259,0.01309 -0.18541,0.0072 z"
     id="path2627"
     inkscape:connector-curvature="0" />
  <path
     style="opacity:1;vector-effect:none;fill:#c19864;fill-opacity:1;stroke:#c19864;stroke-width:0.1;stroke-linecap:butt;stroke-linejoin:miter;stroke-miterlimit:4;stroke-dasharray:none;stroke-dashoffset:0;stroke-opacity:1"
     d="m 32.18637,28.859624 c -0.0769,-0.01059 -0.0258,0.03033 -0.31842,-0.0711 -0.0824,-0.05756 -0.20287,-0.08487 -0.27499,-0.178589 -0.0656,-0.08526 -0.12441,-0.166244 -0.14907,-0.205297 -0.0634,-0.100482 -0.11276,-0.23742 -0.13285,-0.368922 -0.009,-0.05662 -0.0234,-0.135745 -0.0138,-0.229205 0.0209,-0.22393 0.11464,-0.443306 0.25373,-0.591701 0.0985,-0.105076 0.26895,-0.205982 0.42684,-0.252671 0.0876,-0.0259 0.14937,-0.03575 0.24194,-0.03856 0.0816,-0.0025 0.13615,0.0018 0.20971,0.01665 0.1346,0.02707 0.28683,0.09934 0.39734,0.188609 0.0406,0.03281 0.1158,0.106904 0.15127,0.149071 0.0957,0.113716 0.17263,0.267424 0.2038,0.406964 0.0281,0.125717 0.0295,0.279001 0.004,0.39577 -0.0638,0.288933 -0.25169,0.52522 -0.5277,0.663528 -0.10106,0.05064 -0.21074,0.09214 -0.28622,0.108277 -0.0432,0.0092 -0.14259,0.01309 -0.18541,0.0072 z"
     id="path2629"
     inkscape:connector-curvature="0"
     sodipodi:nodetypes="cccccccccccccccccc" />
  <path
     style="opacity:1;vector-effect:none;fill:#c19864;fill-opacity:0;stroke:#ddc480;stroke-width:1;stroke-linecap:butt;stroke-linejoin:miter;stroke-miterlimit:4;stroke-dasharray:none;stroke-dashoffset:0;stroke-opacity:0"
     d="m 33.45799,30.83161 c 0.004,-0.01311 0.0709,-0.167522 0.10437,-0.241211 0.10681,-0.235319 0.23729,-0.492207 0.36269,-0.714026 0.14696,-0.259977 0.21662,-0.39026 0.30644,-0.573084 0.0964,-0.196115 0.12693,-0.26742 0.17992,-0.419478 0.10667,-0.306131 0.16923,-0.610191 0.19337,-0.939897 0.006,-0.08151 0.006,-0.318772 -1.1e-4,-0.398437 -0.0187,-0.247268 -0.059,-0.45757 -0.1273,-0.664063 -0.0386,-0.116506 -0.0685,-0.189749 -0.12313,-0.300781 -0.11377,-0.23139 -0.25229,-0.421604 -0.42973,-0.590069 -0.25864,-0.245571 -0.49514,-0.381769 -0.90625,-0.521899 -0.0376,-0.01282 -0.0912,-0.02928 -0.11914,-0.03658 l -0.0508,-0.01328 1.99121,-1.45e-4 1.99121,-1.44e-4 v 2.710937 2.710938 h -1.68776 -1.68776 z"
     id="path2631"
     inkscape:connector-curvature="0" />
</svg>
