<?xml version="1.0" encoding="UTF-8" standalone="no"?>
<!-- Created with Inkscape (http://www.inkscape.org/) -->

<svg
   xmlns:dc="http://purl.org/dc/elements/1.1/"
   xmlns:cc="http://creativecommons.org/ns#"
   xmlns:rdf="http://www.w3.org/1999/02/22-rdf-syntax-ns#"
   xmlns:svg="http://www.w3.org/2000/svg"
   xmlns="http://www.w3.org/2000/svg"
   xmlns:sodipodi="http://sodipodi.sourceforge.net/DTD/sodipodi-0.dtd"
   xmlns:inkscape="http://www.inkscape.org/namespaces/inkscape"
   version="1.1"
   id="svg2"
   width="78"
   height="78"
   viewBox="0 0 78 78"
   sodipodi:docname="Shape 1.svg"
   inkscape:version="0.92.4 (5da689c313, 2019-01-14)">
  <metadata
     id="metadata8">
    <rdf:RDF>
      <cc:Work
         rdf:about="">
        <dc:format>image/svg+xml</dc:format>
        <dc:type
           rdf:resource="http://purl.org/dc/dcmitype/StillImage" />
        <dc:title></dc:title>
      </cc:Work>
    </rdf:RDF>
  </metadata>
  <defs
     id="defs6" />
  <sodipodi:namedview
     pagecolor="#ffffff"
     bordercolor="#666666"
     borderopacity="1"
     objecttolerance="10"
     gridtolerance="10"
     guidetolerance="10"
     inkscape:pageopacity="0"
     inkscape:pageshadow="2"
     inkscape:window-width="1920"
     inkscape:window-height="1017"
     id="namedview4"
     showgrid="false"
     inkscape:zoom="4.2789026"
     inkscape:cx="-24.335698"
     inkscape:cy="24.39154"
     inkscape:window-x="-8"
     inkscape:window-y="-8"
     inkscape:window-maximized="1"
     inkscape:current-layer="svg2" />
  <g
     id="g823"
     transform="matrix(1,0,0,0.99401777,0.16067403,0.11341253)"
     style="stroke-width:1.00300455">
    <path
       style="fill:#e6e6e6;fill-opacity:1;stroke-width:1.00300455"
       d="M 26.328848,76.123461 C 15.846205,72.23362 8.3369649,65.370752 3.2158957,55 0.78301227,50.073132 0.5,48.405838 0.5,39 0.5,29.409982 0.75467115,27.98001 3.4385716,22.5 7.1887528,14.842849 14.842849,7.1887528 22.5,3.4385716 27.98001,0.75467115 29.409982,0.5 39,0.5 48.590018,0.5 50.01999,0.75467115 55.5,3.4385716 63.157151,7.1887528 70.811247,14.842849 74.561428,22.5 77.245329,27.98001 77.5,29.409982 77.5,39 77.5,48.590018 77.245329,50.01999 74.561428,55.5 70.789726,63.201093 63.114839,70.849602 55.5,74.495916 47.502617,78.325408 34.254715,79.064548 26.328848,76.123461 Z M 41.218945,57.955994 C 48.254444,56.002044 54,49.301097 54,43.04966 V 40 h -8 -8 v -8 -8 h -3.04966 c -6.33674,0 -13.01291,5.804936 -14.950106,12.99913 -2.263334,8.405383 3.193051,18.043658 11.703902,20.674018 4.868525,1.504665 5.091584,1.511296 9.514809,0.282846 z M 30.450423,55.648768 C 18.902091,50.408971 17.910618,33.16285 28.838296,27.606706 36.016147,23.957149 36,23.944013 36,33.432612 V 42 h 8.567388 c 8.417231,0 8.555604,0.03943 7.895088,2.25 -1.160073,3.882441 -3.860586,7.964996 -6.637984,10.035104 -3.3723,2.513512 -11.291687,3.215954 -15.374069,1.363664 z M 58.382791,37.189649 C 59.551394,35.298809 56.569037,27.90237 53.333333,24.666667 50.09763,21.430963 42.701191,18.448606 40.810351,19.617209 c -0.969257,0.599035 -1.100325,16.759484 -0.143684,17.716124 0.95664,0.956641 17.117089,0.825573 17.716124,-0.143684 z M 42,28.391592 v -7.608408 l 2.75,0.653536 C 50.093204,22.706529 55.293471,27.906796 56.56328,33.25 L 57.216816,36 H 49.608408 42 Z"
       id="path829"
       inkscape:connector-curvature="0" />
    <path
       style="fill:#c2c2c2;fill-opacity:1;stroke-width:1.00300455"
       d="M 28.775951,76.580056 C 7.4364786,70.438493 -4.4403412,48.399773 1.9622151,26.824275 3.8022772,20.623587 10.598875,11.51982 16.340093,7.5656922 22.657979,3.2143969 32.285378,0 39,0 50.945927,0 64.282027,7.1776139 70.984198,17.214195 76.024896,24.7627 77.456232,29.580784 77.456232,39 c 0,9.438922 -1.431103,14.236952 -6.519014,21.856159 -4.315924,6.463147 -13.042511,13.174407 -19.761493,15.197753 -5.861872,1.765237 -17.171402,2.030884 -22.399774,0.526144 z M 44.750259,56.878851 C 49.844412,54.412815 53.804515,49.023901 54.214427,44 L 54.5,40.5 l -8.210201,-0.289799 -8.2102,-0.2898 -0.2898,-8.2102 L 37.5,23.5 34,23.785573 c -7.519879,0.613565 -15,9.122087 -15,17.06227 0,3.702382 2.296422,9.70072 4.788138,12.506789 2.433156,2.740122 9.113274,5.597616 13.146138,5.623406 1.888851,0.01208 5.406044,-0.932555 7.815983,-2.099187 z M 29.96189,54.75 C 24.181512,51.835125 20.594477,45.424014 21.480575,39.591336 22.546313,32.576191 26.88702,27.572596 32.960879,26.357824 L 36,25.75 V 33.875 42 h 8.125 8.125 l -0.644503,3.222515 c -1.177914,5.88957 -8.962721,11.747684 -15.643607,11.771908 -0.845961,0.0031 -3.545961,-1.006923 -6,-2.244423 z M 59,35.967881 C 59,33.296719 56.368562,27.074156 54.211862,24.645368 52.092503,22.258632 45.270311,19.051443 42.25,19.021962 40.07302,19.000713 40,19.308308 40,28.5 V 38 h 9.5 C 58.383384,38 59,37.868101 59,35.967881 Z M 42,29.059017 c 0,-3.817541 0.357415,-7.161878 0.794256,-7.43186 0.43684,-0.269982 2.677543,0.352296 4.97934,1.382841 C 52.21965,25.000556 55.989907,29.925062 55.996262,33.75 55.999783,35.869404 55.5937,36 49,36 h -7 z"
       id="path827"
       inkscape:connector-curvature="0" />
    <path
       style="fill:#9e9e9e;fill-opacity:1;stroke-width:1.00300455"
       d="M 31,76.632609 C 15.547595,73.26181 3.9104359,61.050088 1.0339091,45.186997 -1.8561247,29.249421 6.8471994,12.178505 21.699995,4.6520239 40.100057,-4.6719932 63.120486,2.5824579 72.776787,20.747905 85.175516,44.07241 71.57897,72.094408 45.526132,76.910536 38.568355,78.196751 38.132067,78.188404 31,76.632609 Z M 44.928898,57.248446 C 49.7635,54.78321 54.052719,49.025842 54.710991,44.118058 L 55.263338,40 H 46.631669 38 v -8.631669 -8.631669 l -4.118058,0.552347 c -4.907784,0.658272 -10.665152,4.947491 -13.130388,9.782093 -2.108346,4.134703 -2.279179,12.018262 -0.34083,15.728558 1.532011,2.932503 5.90355,7.278459 9.089276,9.036085 3.080467,1.699552 11.578501,1.376076 15.428898,-0.587299 z M 29.24086,54.005402 c -11.171836,-6.811551 -9.035115,-23.728476 3.467821,-27.45555 2.138827,-0.637576 2.217894,-0.39576 2.5,7.645875 L 35.5,42.5 l 8.304273,0.291319 c 8.041635,0.282106 8.283451,0.361173 7.645875,2.5 C 48.669392,54.619715 37.46118,59.017392 29.24086,54.005402 Z M 59,34.886155 C 59,27.599911 50.426234,19 43.162142,19 H 40 V 28.5 38 H 49.5 59 Z M 43,28.5 c 0,-4.535327 0.377822,-6.49887 1.25,-6.496262 2.397831,0.0072 7.783085,4.002264 9.755402,7.237122 C 57.184171,34.454458 56.757391,35 49.5,35 H 43 Z"
       id="path825"
       inkscape:connector-curvature="0" />
  </g>
  <path
     style="opacity:1;vector-effect:none;fill:#c19864;fill-opacity:1;stroke:#c19864;stroke-width:0.99999994;stroke-linecap:butt;stroke-linejoin:miter;stroke-miterlimit:4;stroke-dasharray:none;stroke-dashoffset:0;stroke-opacity:1"
     d="m 36.176304,77.126438 c -3.73408,-0.43127 -9.75793,-2.128035 -13.03772,-3.672388 -4.48118,-2.110058 -7.49778,-4.210083 -10.91928,-7.601524 -4.56012,-4.520065 -7.65222,-9.610612 -9.67847,-15.933768 -2.73540997,-8.536193 -2.18757997,-17.901655 1.53807,-26.29389 3.90231,-8.790174 11.78665,-16.5017888 20.37661,-19.9302048 12.13791,-4.8444675 25.62034,-3.42422707 36.56174,3.8514168 3.13078,2.0818601 8.39831,7.580442 10.50815,10.969084 9.53217,15.309742 7.39225,34.54526 -5.25149,47.205025 -5.70284,5.710082 -12.59802,9.235981 -21.07721,10.777989 -4.47618,0.814028 -6.30755,0.941584 -9.0204,0.62826 z m 4.69047,-18.805148 c 3.10026,-0.598012 4.30124,-1.115465 6.7531,-2.909618 2.11487,-1.547569 4.62214,-4.593763 5.99077,-7.278469 0.7873,-1.544373 1.70829,-5.526813 1.73342,-7.495455 l 0.0115,-0.903461 h -8.59322 -8.59322 v -8.541813 c 0,-4.697998 -0.11155,-8.541252 -0.24788,-8.540564 -1.3264,0.0067 -6.29616,1.069842 -7.52328,1.609409 -1.88367,0.828253 -5.22313,3.17315 -6.66723,4.681594 -1.3292,1.388408 -3.31278,4.655816 -3.75081,6.178433 -0.71479,2.48461 -0.97702,6.017902 -0.65543,8.831175 0.45348,3.967051 1.44313,5.796626 5.10613,9.439716 3.27142,3.253638 5.29113,4.610545 7.50734,5.043682 2.27986,0.445573 6.29155,0.394069 8.92878,-0.114629 z m 18.23704,-23.316763 c -0.0491,-2.725363 -0.14716,-3.112512 -1.4521,-5.73022 -1.87994,-3.77119 -5.07501,-6.990105 -8.71166,-8.776682 -2.32608,-1.142737 -2.89374,-1.282937 -5.68596,-1.404328 l -3.10189,-0.134856 v 9.571633 9.571633 l 9.50212,-0.08717 9.50211,-0.08718 z"
     id="path831"
     inkscape:connector-curvature="0" />
  <path
     style="opacity:1;vector-effect:none;fill:#c19864;fill-opacity:1;stroke:#c19864;stroke-width:0.99999994;stroke-linecap:butt;stroke-linejoin:miter;stroke-miterlimit:4;stroke-dasharray:none;stroke-dashoffset:0;stroke-opacity:1"
     d="m 33.872544,55.471609 c -4.11241,-0.798322 -8.36844,-4.254549 -10.30525,-8.368653 -0.84647,-1.798044 -1.05598,-2.717016 -1.18697,-5.206312 -0.24775,-4.70816 0.9345,-8.059383 3.96794,-11.247614 1.84153,-1.935501 3.57535,-3.051566 6.01016,-3.868756 2.54185,-0.853118 2.53489,-0.871975 2.9237,7.916339 0.18254,4.125913 0.37028,7.547396 0.41721,7.603298 0.0469,0.0559 3.39147,0.245148 7.43229,0.42055 4.04083,0.175401 7.64213,0.475934 8.00289,0.667851 0.80969,0.430741 0.63973,1.617353 -0.5915,4.129603 -2.87817,5.872757 -9.96712,9.254985 -16.67047,7.953694 z"
     id="path833"
     inkscape:connector-curvature="0" />
  <path
     style="opacity:1;vector-effect:none;fill:#c19864;fill-opacity:1;stroke:#c19864;stroke-width:0.99999994;stroke-linecap:butt;stroke-linejoin:miter;stroke-miterlimit:4;stroke-dasharray:none;stroke-dashoffset:0;stroke-opacity:1"
     d="m 43.211754,29.303419 c 0.18289,-5.536024 0.50838,-7.309822 1.34134,-7.309822 1.08922,0 4.65802,2.169653 6.77801,4.120696 1.68553,1.551205 2.65207,2.788372 3.57984,4.582164 1.98282,3.833647 1.67488,4.027943 -6.46182,4.077113 l -5.41917,0.03274 z"
     id="path835"
     inkscape:connector-curvature="0" />
  <path
     style="opacity:1;vector-effect:none;fill:#c19864;fill-opacity:0;stroke:#ddc480;stroke-width:0.99999994;stroke-linecap:butt;stroke-linejoin:miter;stroke-miterlimit:4;stroke-dasharray:none;stroke-dashoffset:0;stroke-opacity:0"
     d="m 35.476924,58.424283 c -1.46302,-0.291492 -4.12109,-1.116263 -5.41162,-1.67917 -5.53893,-2.415983 -9.69852,-8.221 -10.32492,-14.409197 -0.11786,-1.164412 -0.10804,-2.085018 0.0353,-3.302616 0.59422,-5.049468 3.93352,-10.13089 8.51071,-12.950792 1.33672,-0.823521 2.89731,-1.473621 4.4186,-1.840665 0.59039,-0.142445 1.05709,-0.17703 2.83441,-0.210039 l 2.12765,-0.03951 3.3e-4,0.316087 c 2.1e-4,0.173848 0.0921,2.847831 0.20424,5.942186 0.11213,3.094353 0.22939,6.540852 0.26058,7.658886 l 0.0567,2.032787 1.82541,7.38e-4 c 1.00397,4.12e-4 4.39098,0.09254 7.52668,0.204764 3.1357,0.112225 5.89971,0.204301 6.14225,0.204614 l 0.44099,5.75e-4 -0.0371,2.11492 c -0.028,1.591679 -0.0719,2.264274 -0.17758,2.718602 -0.91604,3.937452 -3.65616,7.663145 -7.5253,10.232026 -0.97068,0.644472 -2.83276,1.572989 -3.87748,1.933479 -1.01347,0.349712 -3.32157,0.95789 -4.21014,1.109367 -0.94547,0.161175 -1.88695,0.148818 -2.81962,-0.03701 z m 3.09898,-1.894074 c 0.43172,-0.09278 1.06382,-0.223693 1.40466,-0.290917 2.34361,-0.462229 3.69829,-0.873328 4.875,-1.479397 0.90442,-0.465827 1.50869,-0.920757 2.47221,-1.861212 2.21109,-2.158168 4.09753,-5.207521 5.14159,-8.31116 0.49476,-1.47076 0.50516,-1.931825 0.0508,-2.25217 -0.11232,-0.07919 -0.14428,-0.169279 -0.10925,-0.307999 l 0.0495,-0.196067 h -8.14034 -8.14035 V 33.749854 25.66842 l -0.30903,0.06928 c -0.24923,0.05587 -0.34116,0.0403 -0.4751,-0.08051 -0.47019,-0.424099 -1.04511,-0.443677 -2.16726,-0.07381 -0.99743,0.328764 -4.61495,2.112755 -5.60052,2.761915 -5.93288,3.907787 -7.96517,12.054044 -4.79873,19.235294 1.57796,3.578673 4.74151,6.667533 8.22939,8.035075 0.61288,0.2403 2.12671,0.607639 2.93163,0.711372 0.22723,0.02928 0.71059,0.143813 1.07415,0.25451 0.59653,0.18163 0.76179,0.197173 1.69386,0.159314 0.56806,-0.02307 1.38607,-0.117866 1.8178,-0.210647 z"
     id="path837"
     inkscape:connector-curvature="0" />
  <path
     style="opacity:1;vector-effect:none;fill:#c19864;fill-opacity:0;stroke:#ddc480;stroke-width:0.99999994;stroke-linecap:butt;stroke-linejoin:miter;stroke-miterlimit:4;stroke-dasharray:none;stroke-dashoffset:0;stroke-opacity:0"
     d="m 35.476924,58.424283 c -1.46302,-0.291492 -4.12109,-1.116263 -5.41162,-1.67917 -5.53893,-2.415983 -9.69852,-8.221 -10.32492,-14.409197 -0.11786,-1.164412 -0.10804,-2.085018 0.0353,-3.302616 0.59422,-5.049468 3.93352,-10.13089 8.51071,-12.950792 1.33672,-0.823521 2.89731,-1.473621 4.4186,-1.840665 0.59039,-0.142445 1.05709,-0.17703 2.83441,-0.210039 l 2.12765,-0.03951 3.3e-4,0.316087 c 2.1e-4,0.173848 0.0921,2.847831 0.20424,5.942186 0.11213,3.094353 0.22939,6.540852 0.26058,7.658886 l 0.0567,2.032787 1.82541,7.38e-4 c 1.00397,4.12e-4 4.39098,0.09254 7.52668,0.204764 3.1357,0.112225 5.89971,0.204301 6.14225,0.204614 l 0.44099,5.75e-4 -0.0371,2.11492 c -0.028,1.591679 -0.0719,2.264274 -0.17758,2.718602 -0.91604,3.937452 -3.65616,7.663145 -7.5253,10.232026 -0.97068,0.644472 -2.83276,1.572989 -3.87748,1.933479 -1.01347,0.349712 -3.32157,0.95789 -4.21014,1.109367 -0.94547,0.161175 -1.88695,0.148818 -2.81962,-0.03701 z m 3.09898,-1.894074 c 0.43172,-0.09278 1.06382,-0.223693 1.40466,-0.290917 2.34361,-0.462229 3.69829,-0.873328 4.875,-1.479397 0.90442,-0.465827 1.50869,-0.920757 2.47221,-1.861212 2.21109,-2.158168 4.09753,-5.207521 5.14159,-8.31116 0.49476,-1.47076 0.50516,-1.931825 0.0508,-2.25217 -0.11232,-0.07919 -0.14428,-0.169279 -0.10925,-0.307999 l 0.0495,-0.196067 h -8.14034 -8.14035 V 33.749854 25.66842 l -0.30903,0.06928 c -0.24923,0.05587 -0.34116,0.0403 -0.4751,-0.08051 -0.47019,-0.424099 -1.04511,-0.443677 -2.16726,-0.07381 -0.99743,0.328764 -4.61495,2.112755 -5.60052,2.761915 -5.93288,3.907787 -7.96517,12.054044 -4.79873,19.235294 1.57796,3.578673 4.74151,6.667533 8.22939,8.035075 0.61288,0.2403 2.12671,0.607639 2.93163,0.711372 0.22723,0.02928 0.71059,0.143813 1.07415,0.25451 0.59653,0.18163 0.76179,0.197173 1.69386,0.159314 0.56806,-0.02307 1.38607,-0.117866 1.8178,-0.210647 z"
     id="path839"
     inkscape:connector-curvature="0" />
  <path
     style="opacity:1;vector-effect:none;fill:#ffffff;fill-opacity:0;stroke:#ddc480;stroke-width:0.99999994;stroke-linecap:butt;stroke-linejoin:miter;stroke-miterlimit:4;stroke-dasharray:none;stroke-dashoffset:0;stroke-opacity:0"
     d="m 35.476924,58.424283 c -1.46302,-0.291492 -4.12109,-1.116263 -5.41162,-1.67917 -5.53893,-2.415983 -9.69852,-8.221 -10.32492,-14.409197 -0.11786,-1.164412 -0.10804,-2.085018 0.0353,-3.302616 0.59422,-5.049468 3.93352,-10.13089 8.51071,-12.950792 1.33672,-0.823521 2.89731,-1.473621 4.4186,-1.840665 0.59039,-0.142445 1.05709,-0.17703 2.83441,-0.210039 l 2.12765,-0.03951 3.3e-4,0.316087 c 2.1e-4,0.173848 0.0921,2.847831 0.20424,5.942186 0.11213,3.094353 0.22939,6.540852 0.26058,7.658886 l 0.0567,2.032787 1.82541,7.38e-4 c 1.00397,4.12e-4 4.39098,0.09254 7.52668,0.204764 3.1357,0.112225 5.89971,0.204301 6.14225,0.204614 l 0.44099,5.75e-4 -0.0371,2.11492 c -0.028,1.591679 -0.0719,2.264274 -0.17758,2.718602 -0.91604,3.937452 -3.65616,7.663145 -7.5253,10.232026 -0.97068,0.644472 -2.83276,1.572989 -3.87748,1.933479 -1.01347,0.349712 -3.32157,0.95789 -4.21014,1.109367 -0.94547,0.161175 -1.88695,0.148818 -2.81962,-0.03701 z m 3.09898,-1.894074 c 0.43172,-0.09278 1.06382,-0.223693 1.40466,-0.290917 2.34361,-0.462229 3.69829,-0.873328 4.875,-1.479397 0.90442,-0.465827 1.50869,-0.920757 2.47221,-1.861212 2.21109,-2.158168 4.09753,-5.207521 5.14159,-8.31116 0.49476,-1.47076 0.50516,-1.931825 0.0508,-2.25217 -0.11232,-0.07919 -0.14428,-0.169279 -0.10925,-0.307999 l 0.0495,-0.196067 h -8.14034 -8.14035 V 33.749854 25.66842 l -0.30903,0.06928 c -0.24923,0.05587 -0.34116,0.0403 -0.4751,-0.08051 -0.47019,-0.424099 -1.04511,-0.443677 -2.16726,-0.07381 -0.99743,0.328764 -4.61495,2.112755 -5.60052,2.761915 -5.93288,3.907787 -7.96517,12.054044 -4.79873,19.235294 1.57796,3.578673 4.74151,6.667533 8.22939,8.035075 0.61288,0.2403 2.12671,0.607639 2.93163,0.711372 0.22723,0.02928 0.71059,0.143813 1.07415,0.25451 0.59653,0.18163 0.76179,0.197173 1.69386,0.159314 0.56806,-0.02307 1.38607,-0.117866 1.8178,-0.210647 z"
     id="path841"
     inkscape:connector-curvature="0" />
  <path
     style="opacity:1;vector-effect:none;fill:#c19864;fill-opacity:0;stroke:#ddc480;stroke-width:0.99999994;stroke-linecap:butt;stroke-linejoin:miter;stroke-miterlimit:4;stroke-dasharray:none;stroke-dashoffset:0;stroke-opacity:0"
     d="m 35.476924,58.424283 c -1.46302,-0.291492 -4.12109,-1.116263 -5.41162,-1.67917 -5.53893,-2.415983 -9.69852,-8.221 -10.32492,-14.409197 -0.11786,-1.164412 -0.10804,-2.085018 0.0353,-3.302616 0.59422,-5.049468 3.93352,-10.13089 8.51071,-12.950792 1.33672,-0.823521 2.89731,-1.473621 4.4186,-1.840665 0.59039,-0.142445 1.05709,-0.17703 2.83441,-0.210039 l 2.12765,-0.03951 3.3e-4,0.316087 c 2.1e-4,0.173848 0.0921,2.847831 0.20424,5.942186 0.11213,3.094353 0.22939,6.540852 0.26058,7.658886 l 0.0567,2.032787 1.82541,7.38e-4 c 1.00397,4.12e-4 4.39098,0.09254 7.52668,0.204764 3.1357,0.112225 5.89971,0.204301 6.14225,0.204614 l 0.44099,5.75e-4 -0.0371,2.11492 c -0.028,1.591679 -0.0719,2.264274 -0.17758,2.718602 -0.91604,3.937452 -3.65616,7.663145 -7.5253,10.232026 -0.97068,0.644472 -2.83276,1.572989 -3.87748,1.933479 -1.01347,0.349712 -3.32157,0.95789 -4.21014,1.109367 -0.94547,0.161175 -1.88695,0.148818 -2.81962,-0.03701 z m 3.09898,-1.894074 c 0.43172,-0.09278 1.06382,-0.223693 1.40466,-0.290917 2.34361,-0.462229 3.69829,-0.873328 4.875,-1.479397 0.90442,-0.465827 1.50869,-0.920757 2.47221,-1.861212 2.21109,-2.158168 4.09753,-5.207521 5.14159,-8.31116 0.49476,-1.47076 0.50516,-1.931825 0.0508,-2.25217 -0.11232,-0.07919 -0.14428,-0.169279 -0.10925,-0.307999 l 0.0495,-0.196067 h -8.14034 -8.14035 V 33.749854 25.66842 l -0.30903,0.06928 c -0.24923,0.05587 -0.34116,0.0403 -0.4751,-0.08051 -0.47019,-0.424099 -1.04511,-0.443677 -2.16726,-0.07381 -0.99743,0.328764 -4.61495,2.112755 -5.60052,2.761915 -5.93288,3.907787 -7.96517,12.054044 -4.79873,19.235294 1.57796,3.578673 4.74151,6.667533 8.22939,8.035075 0.61288,0.2403 2.12671,0.607639 2.93163,0.711372 0.22723,0.02928 0.71059,0.143813 1.07415,0.25451 0.59653,0.18163 0.76179,0.197173 1.69386,0.159314 0.56806,-0.02307 1.38607,-0.117866 1.8178,-0.210647 z"
     id="path843"
     inkscape:connector-curvature="0" />
  <path
     style="opacity:1;vector-effect:none;fill:#ffffff;fill-opacity:0;stroke:#ddc480;stroke-width:0.99999994;stroke-linecap:butt;stroke-linejoin:miter;stroke-miterlimit:4;stroke-dasharray:none;stroke-dashoffset:0;stroke-opacity:0"
     d="m 21.991344,50.684785 c -1.47525,-1.861354 -2.18983,-3.565389 -2.53916,-6.055026 -0.0706,-0.503285 -0.12574,-1.089353 -0.12248,-1.302371 0.005,-0.335354 0.0338,-0.266116 0.2138,0.516154 0.46031,2.000567 1.47974,4.682194 2.43144,6.395911 0.27276,0.491156 0.48023,0.908611 0.46105,0.927678 -0.0192,0.01907 -0.21928,-0.197989 -0.44465,-0.482346 z"
     id="path845"
     inkscape:connector-curvature="0" />
  <path
     style="opacity:1;vector-effect:none;fill:#c19864;fill-opacity:0;stroke:#ddc480;stroke-width:0.99999994;stroke-linecap:butt;stroke-linejoin:miter;stroke-miterlimit:4;stroke-dasharray:none;stroke-dashoffset:0;stroke-opacity:0"
     d="m 51.849684,43.951159 c -0.0824,-0.422878 -0.42681,-0.683065 -1.10484,-0.834694 -1.1724,-0.262186 -2.64445,-0.351903 -9.69013,-0.590582 -2.11319,-0.07159 -4.1768,-0.155516 -4.5858,-0.186511 l -0.74365,-0.05635 -0.0585,-0.903461 c -0.0322,-0.496904 -0.13558,-3.102567 -0.22981,-5.790365 -0.2827,-8.064076 -0.38777,-8.855364 -1.22691,-9.239941 l -0.35842,-0.164267 1.10206,-0.21214 c 0.60614,-0.116678 1.11272,-0.204649 1.12574,-0.195493 0.013,0.0091 0.0316,3.634279 0.0413,8.055826 l 0.0177,8.039177 8.11596,0.02093 8.11597,0.02093 -0.0501,0.26653 c -0.33763,1.796539 -0.41139,2.074052 -0.47056,1.770404 z"
     id="path847"
     inkscape:connector-curvature="0" />
  <path
     style="opacity:1;vector-effect:none;fill:#ffffff;fill-opacity:1;stroke:#ddc480;stroke-width:0.99999994;stroke-linecap:butt;stroke-linejoin:miter;stroke-miterlimit:4;stroke-dasharray:none;stroke-dashoffset:0;stroke-opacity:0"
     d="m 51.849684,43.951159 c -0.0824,-0.422878 -0.42681,-0.683065 -1.10484,-0.834694 -1.1724,-0.262186 -2.64445,-0.351903 -9.69013,-0.590582 -2.11319,-0.07159 -4.1768,-0.155516 -4.5858,-0.186511 l -0.74365,-0.05635 -0.0585,-0.903461 c -0.0322,-0.496904 -0.13558,-3.102567 -0.22981,-5.790365 -0.2827,-8.064076 -0.38777,-8.855364 -1.22691,-9.239941 l -0.35842,-0.164267 1.10206,-0.21214 c 0.60614,-0.116678 1.11272,-0.204649 1.12574,-0.195493 0.013,0.0091 0.0316,3.634279 0.0413,8.055826 l 0.0177,8.039177 8.11596,0.02093 8.11597,0.02093 -0.0501,0.26653 c -0.33763,1.796539 -0.41139,2.074052 -0.47056,1.770404 z"
     id="path849"
     inkscape:connector-curvature="0" />
  <path
     style="opacity:1;vector-effect:none;fill:#c19864;fill-opacity:0;stroke:#ddc480;stroke-width:0.99999994;stroke-linecap:butt;stroke-linejoin:miter;stroke-miterlimit:4;stroke-dasharray:none;stroke-dashoffset:0;stroke-opacity:0"
     d="m 36.758104,77.17986 c -3.97802,-0.479052 -8.951,-1.79129 -12.7743,-3.370799 -1.87478,-0.774526 -5.09449,-2.555716 -6.777,-3.749134 -3.76617,-2.671392 -7.38098,-6.394471 -9.90385,-10.200484 -1.08237,-1.632884 -1.45213,-2.268289 -2.2992,-3.951004 C 2.9402512e-4,45.968957 -0.50197597,35.189053 3.559984,24.921662 6.924734,16.41661 14.109224,8.6689326 22.339674,4.669866 c 7.42344,-3.6069531 16.30802,-4.68817206 24.58157,-2.9914796 4.58922,0.9411338 9.06684,2.7308066 13.02805,5.2072225 1.88881,1.1808225 3.17292,2.2100317 5.20895,4.1749631 2.76387,2.667355 5.26272,5.655476 6.63713,7.936674 5.38346,8.935228 6.97322,19.405806 4.44583,29.281468 -1.88332,7.359009 -6.00707,14.034982 -11.84433,19.174887 -5.16702,4.549745 -11.30558,7.49036 -18.5911,8.905884 -3.32589,0.646197 -4.56426,0.797521 -6.77542,0.82793 -1.09068,0.015 -2.11319,0.0116 -2.27225,-0.0076 z m 1.45463,-18.513938 c 2.79087,-0.221929 5.17386,-0.783516 6.82828,-1.609189 0.87478,-0.43658 2.34839,-1.415977 3.19788,-2.12539 2.28328,-1.906776 4.89264,-5.368451 5.73342,-7.606145 0.72046,-1.917481 1.37221,-5.15335 1.37538,-6.828569 l 0.002,-0.800795 h -8.59322 -8.59322 l -0.003,-6.960757 c -0.003,-6.765576 -0.0727,-9.902228 -0.22407,-10.052726 -0.15967,-0.158716 -3.64806,0.462214 -5.88751,1.047973 -0.76459,0.199986 -1.42737,0.442007 -2.107,0.769389 -1.8631,0.897467 -4.8436,3.028857 -6.159,4.404374 -1.65233,1.727848 -3.46739,4.836834 -3.9564,6.77686 -0.66762,2.648616 -0.83215,6.148482 -0.42021,8.938436 0.29226,1.979348 0.71229,3.277664 1.47008,4.543968 1.72385,2.880659 6.65574,7.529209 9.2091,8.680029 1.04827,0.472465 2.26895,0.741861 3.86385,0.852725 0.91792,0.06381 3.29345,0.04699 4.26395,-0.03018 z m 13.9055,-20.66451 7.0561,-0.05295 -0.0516,-2.391094 c -0.0581,-2.695591 -0.13409,-3.260886 -0.59282,-4.411934 -2.1166,-5.310961 -6.27531,-9.500536 -11.37381,-11.458243 -1.15878,-0.444941 -2.09499,-0.552991 -6.20471,-0.716098 l -0.80562,-0.03198 v 9.609088 9.609089 l 2.45816,-0.05147 c 1.35198,-0.02831 5.6334,-0.0753 9.51426,-0.104418 z"
     id="path851"
     inkscape:connector-curvature="0" />
  <path
     style="opacity:1;vector-effect:none;fill:#c19864;fill-opacity:0;stroke:#ddc480;stroke-width:0.99999994;stroke-linecap:butt;stroke-linejoin:miter;stroke-miterlimit:4;stroke-dasharray:none;stroke-dashoffset:0;stroke-opacity:0"
     d="m 36.758104,77.17986 c -3.97802,-0.479052 -8.951,-1.79129 -12.7743,-3.370799 -1.87478,-0.774526 -5.09449,-2.555716 -6.777,-3.749134 -3.76617,-2.671392 -7.38098,-6.394471 -9.90385,-10.200484 -1.08237,-1.632884 -1.45213,-2.268289 -2.2992,-3.951004 C 2.9402512e-4,45.968957 -0.50197597,35.189053 3.559984,24.921662 6.924734,16.41661 14.109224,8.6689326 22.339674,4.669866 c 7.42344,-3.6069531 16.30802,-4.68817206 24.58157,-2.9914796 4.58922,0.9411338 9.06684,2.7308066 13.02805,5.2072225 1.88881,1.1808225 3.17292,2.2100317 5.20895,4.1749631 2.76387,2.667355 5.26272,5.655476 6.63713,7.936674 5.38346,8.935228 6.97322,19.405806 4.44583,29.281468 -1.88332,7.359009 -6.00707,14.034982 -11.84433,19.174887 -5.16702,4.549745 -11.30558,7.49036 -18.5911,8.905884 -3.32589,0.646197 -4.56426,0.797521 -6.77542,0.82793 -1.09068,0.015 -2.11319,0.0116 -2.27225,-0.0076 z m 1.45463,-18.513938 c 2.79087,-0.221929 5.17386,-0.783516 6.82828,-1.609189 0.87478,-0.43658 2.34839,-1.415977 3.19788,-2.12539 2.28328,-1.906776 4.89264,-5.368451 5.73342,-7.606145 0.72046,-1.917481 1.37221,-5.15335 1.37538,-6.828569 l 0.002,-0.800795 h -8.59322 -8.59322 l -0.003,-6.960757 c -0.003,-6.765576 -0.0727,-9.902228 -0.22407,-10.052726 -0.15967,-0.158716 -3.64806,0.462214 -5.88751,1.047973 -0.76459,0.199986 -1.42737,0.442007 -2.107,0.769389 -1.8631,0.897467 -4.8436,3.028857 -6.159,4.404374 -1.65233,1.727848 -3.46739,4.836834 -3.9564,6.77686 -0.66762,2.648616 -0.83215,6.148482 -0.42021,8.938436 0.29226,1.979348 0.71229,3.277664 1.47008,4.543968 1.72385,2.880659 6.65574,7.529209 9.2091,8.680029 1.04827,0.472465 2.26895,0.741861 3.86385,0.852725 0.91792,0.06381 3.29345,0.04699 4.26395,-0.03018 z m 13.9055,-20.66451 7.0561,-0.05295 -0.0516,-2.391094 c -0.0581,-2.695591 -0.13409,-3.260886 -0.59282,-4.411934 -2.1166,-5.310961 -6.27531,-9.500536 -11.37381,-11.458243 -1.15878,-0.444941 -2.09499,-0.552991 -6.20471,-0.716098 l -0.80562,-0.03198 v 9.609088 9.609089 l 2.45816,-0.05147 c 1.35198,-0.02831 5.6334,-0.0753 9.51426,-0.104418 z"
     id="path853"
     inkscape:connector-curvature="0" />
  <path
     style="opacity:1;vector-effect:none;fill:#c19864;fill-opacity:0;stroke:#ddc480;stroke-width:0.99999994;stroke-linecap:butt;stroke-linejoin:miter;stroke-miterlimit:4;stroke-dasharray:none;stroke-dashoffset:0;stroke-opacity:0"
     d="m 36.758104,77.17986 c -3.97802,-0.479052 -8.951,-1.79129 -12.7743,-3.370799 -1.87478,-0.774526 -5.09449,-2.555716 -6.777,-3.749134 -3.76617,-2.671392 -7.38098,-6.394471 -9.90385,-10.200484 -1.08237,-1.632884 -1.45213,-2.268289 -2.2992,-3.951004 C 2.9402512e-4,45.968957 -0.50197597,35.189053 3.559984,24.921662 6.924734,16.41661 14.109224,8.6689326 22.339674,4.669866 c 7.42344,-3.6069531 16.30802,-4.68817206 24.58157,-2.9914796 4.58922,0.9411338 9.06684,2.7308066 13.02805,5.2072225 1.88881,1.1808225 3.17292,2.2100317 5.20895,4.1749631 2.76387,2.667355 5.26272,5.655476 6.63713,7.936674 5.38346,8.935228 6.97322,19.405806 4.44583,29.281468 -1.88332,7.359009 -6.00707,14.034982 -11.84433,19.174887 -5.16702,4.549745 -11.30558,7.49036 -18.5911,8.905884 -3.32589,0.646197 -4.56426,0.797521 -6.77542,0.82793 -1.09068,0.015 -2.11319,0.0116 -2.27225,-0.0076 z m 1.45463,-18.513938 c 2.79087,-0.221929 5.17386,-0.783516 6.82828,-1.609189 0.87478,-0.43658 2.34839,-1.415977 3.19788,-2.12539 2.28328,-1.906776 4.89264,-5.368451 5.73342,-7.606145 0.72046,-1.917481 1.37221,-5.15335 1.37538,-6.828569 l 0.002,-0.800795 h -8.59322 -8.59322 l -0.003,-6.960757 c -0.003,-6.765576 -0.0727,-9.902228 -0.22407,-10.052726 -0.15967,-0.158716 -3.64806,0.462214 -5.88751,1.047973 -0.76459,0.199986 -1.42737,0.442007 -2.107,0.769389 -1.8631,0.897467 -4.8436,3.028857 -6.159,4.404374 -1.65233,1.727848 -3.46739,4.836834 -3.9564,6.77686 -0.66762,2.648616 -0.83215,6.148482 -0.42021,8.938436 0.29226,1.979348 0.71229,3.277664 1.47008,4.543968 1.72385,2.880659 6.65574,7.529209 9.2091,8.680029 1.04827,0.472465 2.26895,0.741861 3.86385,0.852725 0.91792,0.06381 3.29345,0.04699 4.26395,-0.03018 z m 13.9055,-20.66451 7.0561,-0.05295 -0.0516,-2.391094 c -0.0581,-2.695591 -0.13409,-3.260886 -0.59282,-4.411934 -2.1166,-5.310961 -6.27531,-9.500536 -11.37381,-11.458243 -1.15878,-0.444941 -2.09499,-0.552991 -6.20471,-0.716098 l -0.80562,-0.03198 v 9.609088 9.609089 l 2.45816,-0.05147 c 1.35198,-0.02831 5.6334,-0.0753 9.51426,-0.104418 z"
     id="path855"
     inkscape:connector-curvature="0" />
</svg>
